<?xml version="1.0" encoding="utf-8"?>
<!-- Generator: Adobe Illustrator 16.0.0, SVG Export Plug-In . SVG Version: 6.00 Build 0)  -->
<!DOCTYPE svg PUBLIC "-//W3C//DTD SVG 1.1//EN" "http://www.w3.org/Graphics/SVG/1.1/DTD/svg11.dtd">
<svg version="1.1" id="Capa_1" xmlns="http://www.w3.org/2000/svg" xmlns:xlink="http://www.w3.org/1999/xlink" x="0px" y="0px"
	 width="132.333px" height="275.662px" viewBox="0 0 132.333 275.662" enable-background="new 0 0 132.333 275.662"
	 xml:space="preserve">
<g>
	<path fill="#FF4943" d="M20.52,211.976c2.824,31.343,4.997,56.408,4.997,56.408s32.197,12.005,84.04,0l4.597-54.352
		C98.556,216.715,48.521,223.943,20.52,211.976z"/>
	<path fill="#FF4943" d="M11.758,76.861c1.64-0.237,3.631-0.527,5.916-0.858c2.284-0.339,4.864-0.688,7.688-0.98
		c2.822-0.302,5.881-0.628,9.115-0.974c3.238-0.32,6.654-0.672,10.194-0.914c3.544-0.219,7.198-0.56,10.925-0.697
		c3.726-0.164,7.508-0.366,11.297-0.461c3.788-0.088,7.578-0.152,11.311-0.145c3.73-0.056,7.408,0.078,10.965,0.18
		c3.555,0.039,6.992,0.332,10.246,0.559c3.256,0.186,6.329,0.552,9.164,0.834c1.415,0.17,2.775,0.23,4.062,0.473
		c1.281,0.217,2.5,0.422,3.644,0.615c1.141,0.193,2.209,0.375,3.196,0.542c0.987,0.165,1.881,0.417,2.694,0.591
		c1.198,0.266,2.195,0.525,2.984,0.728l-2.388-13.064C84.366,53.222,12.208,62.924,10.539,63.65
		c-1.515,0.661-2.54,11.797-2.718,13.861c0.05-0.008,0.087-0.016,0.139-0.023C8.837,77.345,10.118,77.087,11.758,76.861z"/>
	<path fill="#FF4943" d="M11.134,84.959c1.062,0.074,2.208,0.155,3.434,0.24c2.453,0.172,5.211,0.393,8.237,0.474
		c3.022,0.106,6.288,0.283,9.755,0.302c3.465,0.055,7.114,0.127,10.895,0.099c1.89-0.001,3.812-0.003,5.757-0.005
		c1.944-0.027,3.913-0.057,5.897-0.084c3.969-0.028,8.001-0.13,12.033-0.252c4.031-0.063,8.064-0.225,12.034-0.353
		c3.97-0.146,7.876-0.29,11.656-0.427c7.562-0.33,14.619-0.637,20.669-0.899c7.619-0.351,13.635-0.628,17.053-0.784
		c3.113-4.523-3.277-6.277-3.277-6.277l-0.041-0.217c-0.82-0.139-1.877-0.316-3.159-0.531c-0.816-0.125-1.712-0.32-2.7-0.425
		c-0.989-0.106-2.061-0.222-3.203-0.346c-2.288-0.249-4.865-0.558-7.695-0.694c-2.827-0.176-5.885-0.423-9.131-0.486
		c-3.244-0.106-6.662-0.243-10.205-0.235c-1.77-0.015-3.568-0.028-5.391-0.044c-1.822,0.02-3.666,0.036-5.524,0.055
		c-3.719,0.022-7.493,0.117-11.269,0.234c-3.775,0.07-7.551,0.238-11.266,0.373c-3.717,0.129-7.37,0.345-10.906,0.506
		c-7.073,0.385-13.671,0.805-19.322,1.221c-8.735,0.635-15.192,1.215-17.684,1.447c-6.775,3.752-2.133,5.086-2.489,6.297
		c-0.012,0.039-0.028,0.085-0.04,0.127c0.819,0.096,1.807,0.213,2.98,0.352C9.109,84.721,10.07,84.888,11.134,84.959z"/>
	<path fill="#FF4943" d="M129.928,87.785c-0.462-0.704-1.479-4.012-1.546-4.225c-0.652,0.081-1.388,0.172-2.216,0.27
		c-3.515,0.396-8.534,0.997-14.571,1.551c-6.039,0.576-13.094,1.133-20.658,1.615c-3.785,0.198-7.693,0.487-11.672,0.629
		c-3.979,0.154-8.018,0.344-12.063,0.434c-4.045,0.101-8.09,0.172-12.072,0.174c-3.983,0.063-7.904-0.029-11.699-0.107
		c-3.794-0.029-7.461-0.241-10.936-0.413c-3.476-0.119-6.757-0.45-9.783-0.706c-1.51-0.148-2.964-0.211-4.337-0.416
		c-1.372-0.186-2.675-0.362-3.897-0.527c-1.224-0.166-2.367-0.321-3.425-0.465c-1.057-0.141-2.016-0.371-2.888-0.525
		c-1.176-0.236-2.164-0.436-2.98-0.6c-0.485,1.416-1.803,4.404-1.803,4.404c-5.943,3.021,2.185,2.864,5.107,2.725
		c0.709,3.922,1.908,14.432,3.354,28.49c14.921-0.438,92.753-2.616,110.342-1l2.426-28.666c0.761-0.051,2.535-0.188,4.84-0.457
		C132.55,89.605,130.405,88.514,129.928,87.785z"/>
</g>
<g>
	<path fill="#FF4943" d="M34.355,163.141c-1.59,1.549-4.037,2.807-7.171,2.437c-5.065-0.597-8.551-4.229-8.755-9.35
		c-0.213-5.285,3.849-7.831,7.03-7.429c2.425,0.311,3.555,1.711,3.781,2.012c0.173-0.404,0.346-0.809,0.52-1.214
		c1.27,0.146,2.54,0.286,3.812,0.418c0.058,2.157,0.116,4.315,0.173,6.474c-1.441-0.146-2.882-0.303-4.321-0.467
		c-0.116-1.493-0.934-2.973-2.651-3.185c-1.74-0.214-2.805,1.671-2.717,4.17c0.078,2.267,1.372,4.468,3.651,4.736
		c2.016,0.235,3.542-1.604,3.754-1.809C32.428,161.008,33.393,162.077,34.355,163.141z"/>
	<path fill="#FF4943" d="M34.943,158.017c-0.133-4.929,3.277-7.947,8.321-7.563c5.972,0.445,8.791,3.865,8.844,8.955
		c0.055,5.098-2.939,8.116-8.36,7.755C38.736,166.823,35.097,163.711,34.943,158.017z M46.061,159.072
		c-0.046-2.741-0.884-4.988-2.754-5.126c-1.481-0.134-2.46,1.78-2.398,4.599c0.063,2.975,1.233,4.949,2.772,5.057
		C45.197,163.705,46.105,161.882,46.061,159.072z"/>
	<path fill="#FF4943" d="M67.575,151.852c-0.002,1.654-0.006,3.308-0.01,4.961c-1.434-0.004-2.866-0.016-4.299-0.037
		c-0.001-0.667-0.002-1.334-0.003-2c-1.226-0.02-2.45-0.046-3.674-0.078c0.006,1.307,0.013,2.612,0.02,3.918
		c1.535,0.038,3.071,0.066,4.606,0.084c0.001,0.996,0.001,1.992,0.002,2.99c-1.531-0.017-3.063-0.043-4.594-0.079
		c0.005,0.954,0.01,1.907,0.014,2.861c0.82,0.018,1.641,0.033,2.461,0.046c0.003,0.998,0.006,1.994,0.008,2.991
		c-2.981-0.041-5.965-0.122-8.945-0.241c-0.011-1.003-0.021-2.004-0.032-3.005c0.499,0.021,0.996,0.04,1.493,0.06
		c-0.029-3.266-0.06-6.531-0.091-9.797c-0.503-0.02-1.004-0.041-1.507-0.064c-0.011-0.994-0.021-1.988-0.032-2.981
		C57.851,151.708,62.713,151.832,67.575,151.852z"/>
	<path fill="#FF4943" d="M83.14,151.565c-0.025,1.644-0.054,3.286-0.08,4.929c-1.432,0.063-2.864,0.115-4.297,0.16
		c0.008-0.664,0.016-1.326,0.023-1.989c-1.224,0.036-2.447,0.066-3.673,0.09c-0.012,1.298-0.022,2.596-0.034,3.893
		c1.535-0.031,3.07-0.073,4.605-0.126c-0.014,0.99-0.025,1.98-0.038,2.971c-1.531,0.055-3.063,0.098-4.594,0.133
		c-0.008,0.945-0.017,1.894-0.025,2.841c0.819-0.019,1.639-0.04,2.458-0.065c-0.01,0.991-0.021,1.982-0.031,2.973
		c-2.982,0.094-5.965,0.148-8.947,0.164c0.002-0.994,0.006-1.988,0.008-2.984c0.499-0.002,0.997-0.005,1.496-0.008
		c0.014-3.244,0.027-6.488,0.041-9.731c-0.503,0.002-1.006,0.003-1.508,0.003c0.003-0.986,0.006-1.975,0.009-2.961
		C73.415,151.861,78.279,151.766,83.14,151.565z"/>
	<path fill="#FF4943" d="M98.807,150.561c-0.05,1.634-0.101,3.268-0.151,4.902c-1.397,0.123-2.795,0.24-4.191,0.348
		c0.016-0.658,0.035-1.318,0.053-1.977c-1.295,0.098-2.591,0.189-3.888,0.273c-0.022,1.022-0.048,2.045-0.071,3.068
		c1.536-0.1,3.069-0.211,4.603-0.334c-0.026,0.985-0.055,1.971-0.083,2.955c-1.528,0.123-3.058,0.236-4.587,0.339
		c-0.029,1.208-0.057,2.417-0.085,3.626c1.284-0.088,2.568-0.184,3.853-0.287c0.019-0.688,0.036-1.377,0.056-2.064
		c1.39-0.111,2.779-0.229,4.169-0.357c-0.052,1.671-0.104,3.344-0.156,5.014c-4.818,0.452-9.646,0.8-14.477,1.044
		c0.017-0.989,0.032-1.977,0.05-2.966c0.508-0.024,1.014-0.051,1.52-0.078c0.059-3.224,0.119-6.448,0.178-9.672
		c-0.51,0.025-1.021,0.049-1.531,0.072c0.018-0.98,0.033-1.962,0.051-2.942C89.017,151.309,93.915,150.987,98.807,150.561z"/>
	<path fill="#FF4943" d="M114.673,148.805c-0.076,1.626-0.151,3.25-0.225,4.878c-1.393,0.189-2.787,0.37-4.18,0.543
		c0.029-0.656,0.057-1.311,0.084-1.967c-1.292,0.159-2.582,0.31-3.875,0.454c-0.039,1.018-0.079,2.036-0.117,3.054
		c1.53-0.173,3.06-0.355,4.586-0.549c-0.041,0.979-0.083,1.96-0.126,2.939c-1.523,0.194-3.048,0.378-4.573,0.552
		c-0.047,1.203-0.093,2.405-0.139,3.607c1.28-0.148,2.561-0.303,3.84-0.465c0.027-0.686,0.057-1.371,0.086-2.056
		c1.385-0.175,2.771-0.359,4.154-0.551c-0.076,1.663-0.154,3.325-0.232,4.987c-4.799,0.678-9.61,1.25-14.43,1.72
		c0.032-0.983,0.063-1.966,0.095-2.95c0.505-0.048,1.011-0.098,1.516-0.148c0.106-3.206,0.214-6.412,0.322-9.618
		c-0.511,0.049-1.02,0.097-1.528,0.144c0.031-0.976,0.063-1.951,0.094-2.928C104.915,150.008,109.8,149.459,114.673,148.805z"/>
	<path fill="#FF4943" d="M43.382,183.567c0.459,0.03,0.916,0.058,1.374,0.085c-0.061-3.326-0.122-6.652-0.181-9.979
		c-0.462-0.029-0.924-0.059-1.386-0.09c-0.019-0.977-0.038-1.951-0.057-2.928c2.976,0.205,5.953,0.37,8.931,0.495
		c3.98,0.164,5.882,1.591,5.896,4.05c0.012,1.893-0.53,2.807-2.31,3.436c1.718,0.5,3.153,1.719,3.165,3.904
		c0.016,3.17-1.843,4.563-6.4,4.412c-2.994-0.104-5.986-0.249-8.975-0.435C43.421,185.535,43.401,184.552,43.382,183.567z
		 M49.566,177.413c0.483,0.022,0.968,0.044,1.452,0.065c1.262,0.053,1.613-0.592,1.601-1.675c-0.012-1.039-0.688-1.675-1.596-1.715
		c-0.501-0.022-1.003-0.046-1.505-0.07C49.534,175.15,49.55,176.281,49.566,177.413z M51.552,183.984
		c0.994,0.039,1.91-0.654,1.896-1.873c-0.012-1.153-0.708-2.011-2.018-2.063c-0.609-0.024-1.219-0.051-1.83-0.08
		c0.02,1.313,0.037,2.625,0.056,3.938C50.288,183.934,50.919,183.96,51.552,183.984z"/>
	<path fill="#FF4943" d="M68.696,187.121c0.004-0.98,0.007-1.96,0.01-2.939c0.75-0.01,1.501-0.021,2.251-0.037
		c-0.163-0.504-0.327-1.009-0.489-1.514c-1.622,0.028-3.244,0.045-4.865,0.051c-0.166,0.509-0.332,1.018-0.497,1.527
		c0.615-0.002,1.231-0.004,1.848-0.01c-0.001,0.98-0.003,1.961-0.005,2.941c-2.505,0.023-5.01,0.017-7.516-0.018
		c-0.006-0.982-0.01-1.967-0.016-2.951c0.537,0.009,1.075,0.016,1.612,0.021c1.054-3.282,2.116-6.565,3.188-9.851
		c-0.326,0-0.652-0.002-0.979-0.004c-0.002-0.969-0.004-1.936-0.005-2.901c3.067,0.027,6.137,0.013,9.204-0.045
		c1.387,4.216,2.757,8.413,4.109,12.596c0.554-0.02,1.106-0.041,1.657-0.063c-0.011,0.976-0.022,1.951-0.035,2.928
		C75.013,186.986,71.854,187.076,68.696,187.121z M69.599,179.954c-0.517-1.608-1.035-3.217-1.557-4.829
		c-0.521,1.619-1.041,3.238-1.559,4.856C67.522,179.977,68.562,179.969,69.599,179.954z"/>
	<path fill="#FF4943" d="M87.101,170.802c5.555-0.358,6.572,1.557,6.505,4.1c-0.048,1.731-1.552,3.083-3.528,3.497
		c1.635,0.101,3.07,1.309,3.026,2.908c-0.024,0.955,0.103,1.499,0.528,1.461c0.354-0.031,0.551-0.314,0.563-0.759
		c0.006-0.243,0.014-0.488,0.02-0.733c0.53-0.047,1.057-0.095,1.586-0.145c-0.014,0.408-0.024,0.814-0.036,1.223
		c-0.054,1.838-0.927,3.636-3.539,3.862c-3.085,0.263-4.54-1.179-4.486-3.782c0.044-2.025-0.207-2.494-2.319-2.36
		c-0.021,1.151-0.043,2.304-0.064,3.454c0.48-0.03,0.961-0.062,1.442-0.094c-0.019,0.979-0.04,1.96-0.06,2.939
		c-2.538,0.175-5.08,0.319-7.621,0.437c0.012-0.983,0.025-1.966,0.038-2.949c0.44-0.021,0.884-0.04,1.324-0.062
		c0.046-3.244,0.093-6.489,0.137-9.734c-0.445,0.02-0.891,0.039-1.337,0.057c0.014-0.977,0.026-1.95,0.037-2.926
		C81.911,171.094,84.507,170.963,87.101,170.802z M85.466,177.578c0.356-0.022,0.713-0.045,1.071-0.067
		c1.379-0.089,2.296-0.777,2.321-1.956c0.03-1.313-0.742-1.925-2.129-1.838c-0.396,0.024-0.795,0.049-1.191,0.071
		C85.513,175.051,85.49,176.314,85.466,177.578z"/>
</g>
<path fill="#FF4943" d="M45.88,15.504c1.006,0.814,2.055,1.411,3.02,2.039c1.876,1.238,3.954,2.447,5.358,3.938
	c0.73,0.737,1.334,1.568,1.866,2.33c0.526,0.775,0.973,1.514,1.255,2.281c0.559,1.506,0.464,2.942,0.166,4.59
	c-0.572,3.357-2.628,7.106-4.652,11.225l0.339,0.4c2.289-0.809,4.211-2.182,5.938-3.867c1.694-1.711,3.152-3.82,3.891-6.479
	c0.761-2.598,0.282-5.838-1.24-8.197c-1.458-2.448-3.75-3.884-5.978-4.723c-1.121-0.463-2.267-0.785-3.224-1.186
	c-0.986-0.423-1.906-0.979-2.691-1.687c-1.607-1.372-2.328-3.615-2.141-4.909c0.063-0.651,0.18-1.193,0.4-1.914
	c0.243-0.684,0.651-1.459,1.177-2.242c1.028-1.594,2.416-3.227,3.813-5.115l-0.236-0.471c-1.239,0.07-2.4,0.399-3.497,0.87
	c-1.123,0.456-2.165,1.099-3.131,1.921c-0.965,0.84-1.858,1.884-2.479,3.217c-0.627,1.318-0.871,3.027-0.393,4.534
	C43.911,13.564,44.877,14.703,45.88,15.504z"/>
<path fill="#FF4943" d="M66.612,25.175c0.775,0.525,1.521,0.854,2.172,1.247c1.271,0.762,2.637,1.647,3.382,2.746
	c0.8,1.113,1.278,2.18,1.521,2.956c0.188,0.84,0.03,1.452-0.071,2.361c-0.109,0.879-0.416,2.001-0.792,3.248
	c-0.392,1.263-0.895,2.588-1.325,4.181l0.345,0.393c1.704-0.307,3.115-1.106,4.386-2.158c1.254-1.066,2.345-2.502,2.895-4.384
	c0.572-1.868,0.18-4.283-0.99-5.962c-1.088-1.757-2.799-2.666-4.385-3.091c-0.791-0.235-1.599-0.392-2.22-0.61
	c-0.643-0.229-1.229-0.574-1.7-1.053c-1.021-0.918-1.146-2.573-0.809-3.082c0.133-0.275,0.188-0.432,0.25-0.785
	c0.104-0.344,0.283-0.792,0.526-1.293c0.517-1.037,1.262-2.197,1.983-3.728l-0.233-0.47c-0.903-0.126-1.727,0.008-2.526,0.242
	c-0.816,0.221-1.569,0.612-2.268,1.161c-0.705,0.55-1.364,1.271-1.828,2.251c-0.485,0.941-0.658,2.26-0.258,3.396
	C65.075,23.896,65.858,24.672,66.612,25.175z"/>
</svg>
