<?xml version="1.0" encoding="utf-8"?>
<!-- Generator: Adobe Illustrator 16.0.0, SVG Export Plug-In . SVG Version: 6.00 Build 0)  -->
<!DOCTYPE svg PUBLIC "-//W3C//DTD SVG 1.1//EN" "http://www.w3.org/Graphics/SVG/1.1/DTD/svg11.dtd">
<svg version="1.1" id="Capa_1" xmlns="http://www.w3.org/2000/svg" xmlns:xlink="http://www.w3.org/1999/xlink" x="0px" y="0px"
	 width="102px" height="46.611px" viewBox="0 0 102 46.611" enable-background="new 0 0 102 46.611" xml:space="preserve">
<g>
	<rect x="0.5" y="0.5" fill="none" stroke="#FF4833" stroke-miterlimit="10" width="101" height="45"/>
	<line fill="none" stroke="#FF4833" stroke-miterlimit="10" x1="0" y1="37.5" x2="102" y2="37.5"/>
	<line fill="none" stroke="#FF4833" stroke-miterlimit="10" x1="0" y1="30.5" x2="102" y2="30.5"/>
	<line fill="none" stroke="#FF4833" stroke-miterlimit="10" x1="0" y1="23.5" x2="102" y2="23.5"/>
	<line fill="none" stroke="#FF4833" stroke-miterlimit="10" x1="0" y1="14.5" x2="102" y2="14.5"/>
	<line fill="none" stroke="#FF4833" stroke-miterlimit="10" x1="0" y1="8.5" x2="102" y2="8.5"/>
	<line fill="none" stroke="#FF4833" stroke-miterlimit="10" x1="84.5" y1="0" x2="84.5" y2="45"/>
	<line fill="none" stroke="#FF4833" stroke-miterlimit="10" x1="68.5" y1="0" x2="68.5" y2="45"/>
	<line fill="none" stroke="#FF4833" stroke-miterlimit="10" x1="49.5" y1="0" x2="49.5" y2="45"/>
	<line fill="none" stroke="#FF4833" stroke-miterlimit="10" x1="34.5" y1="0" x2="34.5" y2="45"/>
	<line fill="none" stroke="#FF4833" stroke-miterlimit="10" x1="18.5" y1="0" x2="18.5" y2="45"/>
</g>
<g>
	<polygon fill="#FF4833" stroke="#FFFFFF" stroke-miterlimit="10" points="89.219,46.611 84.737,14.402 75.629,41.681 
		70.705,18.896 61.872,33.563 57.11,25.658 46.42,39.96 37.879,32.361 29.932,39.723 24.8,25.611 16.81,32.922 7.749,15.904 
		9.7,14.863 17.423,29.365 25.75,21.746 30.873,35.836 37.848,29.373 46.089,36.707 57.31,21.697 61.872,29.276 71.688,12.977 
		76.088,33.326 85.628,4.751 89.07,29.501 91.544,9.168 93.74,9.434 	"/>
</g>
</svg>
