<?xml version="1.0" encoding="utf-8"?>
<!-- Generator: Adobe Illustrator 16.0.0, SVG Export Plug-In . SVG Version: 6.00 Build 0)  -->
<!DOCTYPE svg PUBLIC "-//W3C//DTD SVG 1.1//EN" "http://www.w3.org/Graphics/SVG/1.1/DTD/svg11.dtd">
<svg version="1.1" id="Capa_1" xmlns="http://www.w3.org/2000/svg" xmlns:xlink="http://www.w3.org/1999/xlink" x="0px" y="0px"
	 width="595.362px" height="613.798px" viewBox="0 0 595.362 613.798" enable-background="new 0 0 595.362 613.798"
	 xml:space="preserve">
<path fill-rule="evenodd" clip-rule="evenodd" fill="#FFFFFF" d="M453.146,290.829c-8.82,2.37-182.615,2.969-199.852,0.711
	c6.762-4.729,12.311-8.594,17.84-12.469c8.254-5.777,13.848-13.409,16.596-23.175c4.269-15.124-0.977-30.379-14.842-37.419
	c-10.893-5.539-22.842-9.04-34.346-13.362c-9.062-3.4-18.521-5.946-27.178-10.159c-18.068-8.8-29.19-30.818-24.354-49.448
	c8.205-2.22,321.751-2.579,332.646-0.379c5.438,19.714-7.256,42.024-23.561,49.576c-8.777,4.059-18.08,6.954-27.164,10.337
	c-11.17,4.163-22.824,7.358-33.436,12.641c-17.869,8.896-22.967,30.941-12.419,48.02c5.29,8.569,12.942,14.354,21.212,19.58
	C447.015,287.005,449.748,288.703,453.146,290.829z"/>
<path fill-rule="evenodd" clip-rule="evenodd" fill="#FFFFFF" d="M578.812,579.886c-6.23-0.283-12.487-0.281-19.029-0.415
	c-0.291-2.827-0.639-4.633-0.639-6.44c0.154-80.817,0.348-161.636,0.566-242.455c0-0.29,0.404-0.591,0.648-0.858
	c0.258-0.27,0.541-0.502,0.633-0.58c6.846-0.781,13.588-1.047,20.1-2.439c6.301-1.353,10.16-8.633,9.311-15.694
	c-1.061-8.824-4.222-11.839-12.87-12.174c-2.247-0.089-4.497-0.005-6.733-0.005c-101.803-0.002-203.595-0.005-305.398-0.007
	c-47.523-0.002-95.053,0.216-142.58-0.168c-11.744-0.093-16.782,4.459-15.638,17.292c0.49,5.535,3.342,9.178,8.573,10.475
	c4.292,1.065,8.781,1.666,13.205,1.869c6.618,0.303,13.262,0.08,19.248,0.08c0.935,1.9,1.537,2.549,1.537,3.199
	c0.1,77.837,0.162,155.675,0.199,233.515c0.012,4.103-0.243,8.206-0.42,12.312c-0.008,0.321-0.311,0.648-0.521,0.934
	c-0.219,0.3-0.504,0.556-1.354,1.47c-8.354,0-17.309-0.153-26.258,0.046c-7.456,0.166-12.834,4.176-13.736,10.629
	c-2.396,17.104,5.658,24.98,18.672,23.342c0.733-0.093,1.5-0.012,2.24-0.012c147.842-0.001,295.671,0.005,443.499-0.037
	c3.709-0.002,7.524-0.052,11.098-0.879c8.518-1.966,11.761-6.258,12.163-15.015C595.851,586.427,590.402,580.413,578.812,579.886z
	 M542.333,569.667h-377v-232h377V569.667z"/>
<path fill-rule="evenodd" clip-rule="evenodd" fill="#FFFFFF" d="M321.695,102.748c0.166-3.607,0.486-6.556,0.387-9.487
	c-0.248-7.516,3.957-11.729,10.352-14.31c6.053-2.438,12.248-3.018,18.658-1.325c11.514,3.042,13.836,5.779,14.295,17.853
	c0.137,3.363,0.234,6.255,2.988,9.114c1.67,1.741,1.232,5.563,1.627,8.466c0.391,2.943,0.623,5.91,1.006,9.61
	c-9.023,2.002-3.895,10.23-6.406,15.484c-7.568,2.468-28.939,2.871-41.297,0.65c-0.549-3.377-1.123-6.976-1.816-11.294
	c-2.258-0.304-4.744-0.958-7.215-0.918c-48.953,0.747-97.907,1.515-146.862,2.408c-32.501,0.592-64.982,1.53-97.484,1.965
	c-6.482,0.087-11.063,0.997-14.518,7.533c-3.654,6.93-12.518,9.074-20.617,6.851c-10.469-2.873-17.972-9.585-17.641-19.111
	C17.81,107.682,10.829,91.176,5.71,74.08C2.271,62.591-0.198,50.823,1.103,38.783C2.655,24.311,8.569,12.209,22.326,5.348
	c17.089-8.521,38.55-0.306,46.052,17.2c6.355,14.82,5.77,29.803,2.152,45.006c-0.695,2.9-1.52,5.771-2.223,8.665
	c-2.988,12.238-5.961,24.476-9.146,37.599c3.908,0.528,6.357,1.206,8.791,1.133c27.619-0.836,55.241-1.712,82.853-2.738
	c14.907-0.557,29.804-1.453,44.714-2.145c32.803-1.521,65.616-2.912,98.409-4.587C302.812,105.025,311.662,103.758,321.695,102.748z
	"/>
</svg>
