<?xml version="1.0" encoding="utf-8"?>
<!-- Generator: Adobe Illustrator 16.0.0, SVG Export Plug-In . SVG Version: 6.00 Build 0)  -->
<!DOCTYPE svg PUBLIC "-//W3C//DTD SVG 1.1//EN" "http://www.w3.org/Graphics/SVG/1.1/DTD/svg11.dtd">
<svg version="1.1" id="Capa_1" xmlns="http://www.w3.org/2000/svg" xmlns:xlink="http://www.w3.org/1999/xlink" x="0px" y="0px"
	 width="65.375px" height="63.909px" viewBox="0 0 65.375 63.909" enable-background="new 0 0 65.375 63.909" xml:space="preserve">
<g>
	<path fill="#FF4833" d="M51.854,32.837c-0.219,10.551-8.945,18.926-19.496,18.708c-10.551-0.217-18.924-8.946-18.709-19.498
		c0.219-10.549,8.947-18.923,19.496-18.707C43.691,13.56,52.07,22.288,51.854,32.837z"/>
	<polygon fill="#FF4833" points="33.258,0.976 35.969,5.363 38.678,9.75 33.258,9.75 27.836,9.75 30.547,5.363 	"/>
	<circle fill="#FF4833" cx="32.75" cy="32.442" r="19.106"/>
	<polygon fill="#FF4833" points="17.455,4.938 22.121,7.595 26.785,10.254 22.09,12.964 17.395,15.676 17.426,10.306 	"/>
	<path fill="#FF4833" d="M42.641,16.097c9.029,5.464,11.92,17.212,6.455,26.238c-5.461,9.027-17.209,11.916-26.24,6.453
		c-9.025-5.465-11.916-17.211-6.451-26.238C21.869,13.524,33.617,10.633,42.641,16.097z"/>
	<polygon fill="#FF4833" points="5.752,16.271 11.121,16.239 16.49,16.21 13.777,20.904 11.068,25.601 8.41,20.935 	"/>
	<path fill="#FF4833" d="M33.145,13.341c10.549,0.218,18.926,8.945,18.709,19.496c-0.217,10.548-8.947,18.924-19.5,18.709
		c-10.549-0.22-18.924-8.948-18.705-19.498C13.867,21.501,22.596,13.122,33.145,13.341z"/>
	<polygon fill="#FF4833" points="1.283,31.937 5.267,29.226 9.25,26.515 9.25,31.935 9.25,37.358 5.267,34.646 	"/>
	<circle fill="#FF4833" cx="32.748" cy="32.443" r="19.107"/>
	<polygon fill="#FF4833" points="5.244,47.737 7.951,43.045 10.656,38.354 13.367,43.048 16.078,47.744 10.662,47.741 	"/>
	<path fill="#FF4833" d="M16.404,22.551c5.465-9.026,17.211-11.918,26.236-6.454c9.029,5.461,11.918,17.212,6.455,26.241
		c-5.463,9.025-17.211,11.915-26.238,6.452C13.834,43.325,10.939,31.577,16.404,22.551z"/>
	<polygon fill="#FF4833" points="16.578,59.44 16.574,54.024 16.57,48.608 21.266,51.319 25.963,54.03 21.27,56.735 	"/>
	<path fill="#FF4833" d="M13.648,32.05c0.219-10.549,8.947-18.926,19.496-18.709c10.547,0.217,18.924,8.946,18.709,19.499
		c-0.221,10.549-8.949,18.925-19.498,18.706C21.809,51.326,13.43,42.598,13.648,32.05z"/>
	<polygon fill="#FF4833" points="32.244,63.909 29.531,58.83 26.82,53.75 32.242,53.75 37.666,53.75 34.953,58.83 	"/>
	<path fill="#FF4833" d="M16.01,41.653c-5.084-9.246-1.715-20.864,7.529-25.951c9.244-5.086,20.863-1.714,25.953,7.531
		c5.086,9.247,1.713,20.865-7.533,25.95C32.715,54.269,21.094,50.897,16.01,41.653z"/>
	<polygon fill="#FF4833" points="48.045,59.946 43.258,57.079 38.471,54.21 43.164,51.499 47.861,48.788 47.951,54.366 	"/>
	<path fill="#FF4833" d="M22.857,48.79c-9.027-5.465-11.918-17.211-6.453-26.239c5.461-9.026,17.211-11.915,26.24-6.454
		c9.027,5.465,11.914,17.213,6.451,26.24C43.633,51.361,31.885,54.253,22.857,48.79z"/>
	<polygon fill="#FF4833" points="59.748,48.613 54.168,48.523 48.588,48.433 51.299,43.738 54.01,39.042 56.877,43.829 	"/>
	<path fill="#FF4833" d="M32.357,51.546c-10.551-0.22-18.928-8.945-18.709-19.496c0.215-10.549,8.947-18.925,19.498-18.711
		c10.549,0.22,18.924,8.949,18.707,19.499C51.633,43.385,42.904,51.765,32.357,51.546z"/>
	<polygon fill="#FF4833" points="64.217,32.948 59.233,35.66 54.25,38.372 54.25,32.95 54.25,27.529 59.233,30.239 	"/>
	<path fill="#FF4833" d="M41.961,49.184c-9.246,5.085-20.863,1.716-25.951-7.53c-5.086-9.242-1.713-20.862,7.531-25.953
		c9.246-5.085,20.865-1.712,25.949,7.533C54.576,32.478,51.205,44.099,41.961,49.184z"/>
	<polygon fill="#FF4833" points="60.252,17.147 57.432,21.909 54.611,26.667 51.9,21.973 49.189,17.276 54.723,17.214 	"/>
	<path fill="#FF4833" d="M49.098,42.335c-5.465,9.026-17.211,11.918-26.24,6.455c-9.027-5.463-11.914-17.211-6.453-26.24
		c5.465-9.027,17.213-11.917,26.24-6.453C51.668,21.56,54.559,33.31,49.098,42.335z"/>
	<polygon fill="#FF4833" points="48.922,5.444 48.857,10.978 48.795,16.511 44.1,13.8 39.404,11.088 44.164,8.269 	"/>
</g>
</svg>
