<?xml version="1.0" encoding="utf-8"?>
<!-- Generator: Adobe Illustrator 16.0.0, SVG Export Plug-In . SVG Version: 6.00 Build 0)  -->
<!DOCTYPE svg PUBLIC "-//W3C//DTD SVG 1.1//EN" "http://www.w3.org/Graphics/SVG/1.1/DTD/svg11.dtd">
<svg version="1.1" id="Capa_1" xmlns="http://www.w3.org/2000/svg" xmlns:xlink="http://www.w3.org/1999/xlink" x="0px" y="0px"
	 width="36.167px" height="92.028px" viewBox="0 0 36.167 92.028" enable-background="new 0 0 36.167 92.028" xml:space="preserve">
<g>
	<g>
		<path fill="#FF4833" d="M29.435,62.134V12.119c0-6.317-5.123-11.435-11.416-11.435c-6.307,0-11.42,5.101-11.42,11.435v50.015
			C3.093,65.271,0.89,69.829,0.89,74.901c0,9.453,7.672,17.127,17.129,17.127c9.453,0,17.127-7.674,17.127-17.127
			C35.146,69.829,32.942,65.271,29.435,62.134z M18.019,86.319c-6.307,0-11.42-5.112-11.42-11.418c0-4.226,2.299-7.916,5.709-9.892
			V12.116c0-3.164,2.557-5.725,5.711-5.725c3.17,0,5.707,2.561,5.707,5.725V65.01c3.412,1.974,5.709,5.664,5.709,9.892
			C29.435,81.207,24.323,86.319,18.019,86.319z"/>
		<path fill="#FF4833" d="M20.827,66.812c0.029-0.157,0.045-0.317,0.045-0.482V37.802c0-1.58-1.264-2.863-2.854-2.863
			c-1.58,0-2.855,1.301-2.855,2.863v28.527c0,0.165,0.014,0.325,0.039,0.482c-3.346,1.162-5.75,4.346-5.75,8.09
			c0,4.729,3.836,8.564,8.566,8.564c4.729,0,8.564-3.835,8.564-8.564C26.583,71.157,24.177,67.974,20.827,66.812z"/>
	</g>
</g>
</svg>
