<?xml version="1.0" encoding="utf-8"?>
<!-- Generator: Adobe Illustrator 16.0.0, SVG Export Plug-In . SVG Version: 6.00 Build 0)  -->
<!DOCTYPE svg PUBLIC "-//W3C//DTD SVG 1.1//EN" "http://www.w3.org/Graphics/SVG/1.1/DTD/svg11.dtd">
<svg version="1.1" id="Capa_1" xmlns="http://www.w3.org/2000/svg" xmlns:xlink="http://www.w3.org/1999/xlink" x="0px" y="0px"
	 width="137.551px" height="137.547px" viewBox="0 0 137.551 137.547" enable-background="new 0 0 137.551 137.547"
	 xml:space="preserve">
<path fill-rule="evenodd" clip-rule="evenodd" fill="#FF4833" d="M137.551,68.778c0,37.979-30.791,68.769-68.775,68.769
	C30.789,137.547,0,106.758,0,68.778C0,30.791,30.789,0,68.775,0C106.76,0,137.551,30.791,137.551,68.778z M109.27,109.527
	c-0.309-3.897-0.623-7.794-0.934-11.689c-0.152-0.936-0.311-1.871-0.465-2.811c-1.029-5.73-4.732-8.727-10.162-10.027
	c-1.189-0.285-2.311-0.848-3.463-1.278c-3.287-1.342-6.703-2.443-9.799-4.127c-1.561-0.853-2.537-2.767-3.773-4.198
	c-0.057-0.048-0.109-0.091-0.16-0.134c0.063,0.035,0.125,0.067,0.188,0.104c1.943,0.424,3.869,1.074,5.828,1.197
	c1.18,0.074,2.41-0.662,4.262-1.234c-1.518-0.479-2.285-0.723-3.059-0.969c0.006-0.137,0.012-0.273,0.018-0.409
	c1.182-0.183,2.361-0.364,2.982-0.456c0.816-0.912,1.25-1.552,1.828-2.016c1.459-1.164,2.596-2.39,1.547-4.414
	c-0.561,0.553-1.262,1.646-1.648,1.545c-0.762-0.205-1.754-0.964-1.932-1.674c-0.459-1.816-0.84-3.755-0.674-5.594
	c0.258-2.83,0.998-5.617,1.535-8.427c0.439-4.502,0.883-9.005,1.32-13.51c-0.293-4.385-2.449-7.817-5.146-11.17
	c-1.488-1.851-2.084-4.415-3.078-6.654c-1.127-0.902-2.268-2.575-3.373-2.551c-2.537,0.051-3.908-1.558-5.629-2.761
	c-0.795-0.317-1.59-0.629-2.387-0.942c-2.764-0.232-5.535-0.46-8.299-0.693c-0.473,0.106-0.945,0.217-1.418,0.323
	c-0.719,0.219-1.438,0.438-2.156,0.66c-1.459,0.93-2.914,1.863-4.369,2.795c-0.648,0.754-1.295,1.507-1.941,2.259
	c-0.77,0.91-1.543,1.819-2.314,2.731c-1.189,1.912-2.379,3.825-3.574,5.737c-0.381,1.7-0.762,3.394-1.139,5.093
	c0.104,1.716,0.207,3.43,0.309,5.145c0.057,1.092,0.109,2.183,0.164,3.276c0.002,0.776,0.002,1.559,0.002,2.337
	c-0.025,0.479-0.055,0.963-0.078,1.443c-0.098,0.614-0.197,1.227-0.299,1.845c-0.051,0.349-0.105,0.699-0.156,1.05
	c-0.229,1.517-0.457,3.034-0.686,4.558c-0.037,0.308-0.07,0.622-0.107,0.935c0.32,2.815,0.658,5.633,0.955,8.448
	c0.121,1.15,0.371,2.345,0.182,3.456c-0.502,3-2.283,4.095-6.352,4.178c0.584,2.273,2.355,3.062,5.412,2.395l0.064,0.023
	c-0.02-0.123,0.025-0.215,0.127-0.281c0.203-0.164,0.396-0.329,0.598-0.492c0.02,0.178,0.039,0.359,0.055,0.54
	c0.039,0.152,0.035,0.306-0.01,0.459c0.049,0.132,0.049,0.267,0,0.402l-0.109-0.045c1.879,0.119,2.07-1.555,2.742-2.65
	c0.473-0.77,0.727-1.67,1.092-2.543c1.547,1.641,1.404,3.427-0.262,4.735c-0.236,0.188-0.24,0.666-0.355,1.011
	c0.166,0.29,0.303,0.825,0.5,0.846c2.496,0.293,5.008,0.511,7.781,0.78c-1.311,2.253-3.289,3.316-5.367,4.005
	c-4.645,1.539-9.355,2.863-14.047,4.276c-2.582,1.463-5.275,2.812-6.219,5.984c-0.482,3.304-0.969,6.602-1.457,9.904
	c-0.162,2.781-0.32,5.563-0.48,8.342c-0.063,0.799-0.125,1.603-0.188,2.398c-0.033,0.443-0.064,0.891-0.096,1.333
	c-0.01,0.158-0.021,0.315-0.031,0.473c0.023,0.286,0.055,0.572,0.076,0.858c12.523,0.027,25.043,0.075,37.566,0.075
	c13.459-0.007,26.916-0.048,40.371-0.075C109.48,112.285,109.373,110.903,109.27,109.527z"/>
</svg>
