<?xml version="1.0" encoding="utf-8"?>
<!-- Generator: Adobe Illustrator 16.0.0, SVG Export Plug-In . SVG Version: 6.00 Build 0)  -->
<!DOCTYPE svg PUBLIC "-//W3C//DTD SVG 1.1//EN" "http://www.w3.org/Graphics/SVG/1.1/DTD/svg11.dtd">
<svg version="1.1" id="Capa_1" xmlns="http://www.w3.org/2000/svg" xmlns:xlink="http://www.w3.org/1999/xlink" x="0px" y="0px"
	 width="161.667px" height="39.132px" viewBox="0 0 161.667 39.132" enable-background="new 0 0 161.667 39.132"
	 xml:space="preserve">
<g>
	<g>
		<polygon fill="#FFFFFF" points="16.711,30.839 12.061,23.943 7.364,30.839 1.401,30.839 8.631,20.349 1.823,10.41 7.83,10.41 
			12.061,16.711 16.244,10.41 22.252,10.41 15.399,20.349 22.717,30.839 		"/>
		<path fill="#FFFFFF" d="M22.286,4.996c0-1.774,1.48-3.172,3.211-3.172c1.777,0,3.217,1.396,3.217,3.172
			c0,1.777-1.439,3.216-3.217,3.216C23.766,8.211,22.286,6.773,22.286,4.996 M22.836,10.41h5.369v20.431h-5.369V10.41z"/>
		<polygon fill="#FFFFFF" points="36.705,30.839 28.502,10.41 34.252,10.41 39.582,24.621 44.912,10.41 50.705,10.41 42.502,30.839 
					"/>
		<path fill="#FFFFFF" d="M48.844,20.603c0-5.922,4.353-10.703,10.572-10.703c6.09,0,10.234,4.568,10.234,11.25v1.188h-15.18
			c0.336,2.578,2.405,4.736,5.877,4.736c1.731,0,4.144-0.762,5.453-2.027l2.371,3.465c-2.029,1.859-5.244,2.836-8.421,2.836
			C53.537,31.345,48.844,27.156,48.844,20.603 M59.416,14.175c-3.342,0-4.779,2.494-5.031,4.524h10.063
			C64.325,16.753,62.967,14.175,59.416,14.175"/>
		<rect x="70.578" y="2.63" fill="#FFFFFF" width="5.373" height="28.209"/>
		<path fill="#FFFFFF" d="M79.248,34.166c0.414,0.158,1.188,0.184,1.689,0.184c1.396,0,2.328-0.379,2.834-1.482l0.764-1.73
			l-8.289-20.724h5.751l5.33,14.21l5.326-14.21h5.797l-9.602,23.769c-1.521,3.854-4.229,4.863-7.74,4.951
			c-0.639,0-1.188-0.023-1.863-0.191L79.248,34.166z"/>
		<path fill="#FFFFFF" d="M159.91,19.589c-0.012,0.007-0.021,0.008-0.031,0.012c-0.006,0.005-0.016,0.007-0.027,0.009
			c-0.01,0.008-0.02,0.012-0.023,0.02c-0.012,0.006-0.016,0.013-0.016,0.021c0,0.006,0,0.008,0,0.008
			c0.004,0.01,0.004,0.015,0.004,0.017c0.008,0.013,0.012,0.021,0.018,0.026c0.008,0.011,0.01,0.019,0.02,0.025l0.121,0.188
			c0.012,0.015,0.018,0.021,0.021,0.031s0.012,0.021,0.012,0.031c0.008,0.012,0.004,0.023,0,0.037c-0.008,0-0.016,0.002-0.016,0.002
			s-0.016,0-0.023,0.003c-0.008,0.001-0.018,0.001-0.033,0c-0.006-0.003-0.016-0.005-0.016-0.005c-0.01,0-0.014,0-0.021-0.004
			c-0.014-0.01-0.021-0.021-0.029-0.033c-0.006-0.012-0.018-0.023-0.025-0.033l-0.125-0.207c-0.014-0.016-0.021-0.031-0.029-0.049
			c-0.012-0.016-0.023-0.029-0.041-0.043c-0.008-0.006-0.018-0.007-0.027-0.008c-0.016,0-0.027-0.003-0.039-0.003h-0.021
			c-0.008,0.004-0.02,0.005-0.023,0.008c-0.008,0.003-0.016,0.005-0.021,0.013c-0.006,0.012-0.008,0.022-0.008,0.039v0.053v0.166
			v0.043c0,0.015,0,0.029-0.006,0.039c-0.006,0.009-0.01,0.014-0.021,0.021c-0.01,0.002-0.02,0.006-0.031,0.006s-0.021,0-0.033,0
			c-0.012-0.004-0.021-0.006-0.029-0.01c-0.008-0.009-0.008-0.009-0.012-0.021v-0.018v-0.016c-0.008-0.004-0.008-0.014-0.008-0.024
			c0,0,0.008-0.019,0.008-0.026v-0.688v-0.04c0-0.012,0-0.021,0.004-0.029c0.008-0.009,0.014-0.011,0.025-0.017
			c0.004,0,0.004-0.002,0.004-0.002h0.014h0.215c0.063,0,0.119,0.002,0.168,0.008c0.053,0,0.092,0.015,0.135,0.045
			c0.014,0.009,0.025,0.021,0.035,0.031c0.021,0.028,0.039,0.063,0.047,0.101l0.004,0.039v0.016c0.006,0.016,0.006,0.031,0,0.047
			c-0.002,0.023-0.008,0.037-0.008,0.048c-0.014,0.028-0.021,0.055-0.043,0.073C159.951,19.553,159.931,19.574,159.91,19.589
			 M159.617,19.525c0.027,0,0.055,0,0.07,0c0.027,0,0.055-0.006,0.068-0.006c0.025-0.008,0.037-0.012,0.059-0.02
			c0.016-0.008,0.025-0.018,0.037-0.033c0.016-0.016,0.021-0.034,0.021-0.053c0.006-0.021,0.01-0.035,0.004-0.057
			c-0.004-0.019-0.004-0.031-0.012-0.041c-0.006-0.022-0.025-0.041-0.045-0.054c-0.025-0.009-0.043-0.017-0.076-0.021
			c-0.029-0.004-0.059-0.01-0.092-0.01h-0.1c0,0-0.004,0-0.008,0.002c-0.002,0.004-0.008,0.004-0.01,0.004
			c-0.014,0.004-0.021,0.01-0.029,0.021c-0.004,0.004-0.004,0.01-0.006,0.015c0,0,0,0.012-0.002,0.016v0.021
			c0,0.01-0.004,0.018,0,0.027v0.025v0.074c-0.004,0.028,0,0.051,0.008,0.063c0.012,0.014,0.023,0.021,0.047,0.021
			C159.578,19.525,159.597,19.525,159.617,19.525"/>
		<path fill="#FFFFFF" d="M159.648,20.464c-0.488,0-0.893-0.396-0.893-0.892c0-0.486,0.402-0.887,0.893-0.887
			c0.492,0,0.889,0.398,0.889,0.887C160.537,20.068,160.138,20.464,159.648,20.464 M159.648,18.828c-0.412,0-0.75,0.332-0.75,0.746
			c0,0.412,0.338,0.748,0.75,0.748c0.41,0,0.746-0.335,0.746-0.748C160.394,19.16,160.058,18.828,159.648,18.828"/>
		<path fill="#FFFFFF" d="M110.779,30.357v-0.623v-0.256c0-0.082-0.025-0.148-0.07-0.207c-0.029-0.033-0.084-0.059-0.172-0.076
			c-0.086-0.02-0.176-0.031-0.277-0.035c-0.1-0.004-0.201-0.004-0.305,0c-0.113,0.004-0.203,0.01-0.273,0.01h-1.826H107.3
			c-0.189,0-0.314-0.061-0.379-0.178c-0.016-0.047-0.027-0.098-0.031-0.154c-0.008-0.059-0.008-0.119-0.008-0.186v-0.135
			c0-0.082-0.012-0.104-0.008-0.176c0.004-0.066-0.01-0.16-0.01-0.229V27.31v-4.096v-1.232v-0.326c0-0.105-0.02-0.188-0.066-0.254
			c-0.045-0.063-0.117-0.1-0.211-0.104c-0.094-0.002-0.189-0.008-0.289-0.008h-1.145c-0.025,0.01-0.041,0.012-0.059,0.008
			c-0.018-0.002-0.037,0-0.057,0.006c-0.105,0.027-0.178,0.074-0.217,0.139c-0.025,0.045-0.041,0.107-0.047,0.191
			c-0.006,0.076-0.006,0.16-0.006,0.242v0.848v3.059v3.586v0.949v0.248c0,0.084,0.016,0.154,0.053,0.209
			c0.049,0.072,0.113,0.113,0.211,0.127c0.094,0.016,0.205,0.023,0.332,0.023h0.973h2.865h0.963h0.256
			c0.088,0,0.156-0.021,0.201-0.059c0.055-0.023,0.1-0.072,0.137-0.146c0.02-0.045,0.027-0.102,0.023-0.162
			C110.779,30.5,110.779,30.429,110.779,30.357"/>
		<path fill="#FFFFFF" d="M118.103,27.394V27.32c-0.012-0.346-0.059-0.662-0.127-0.885c-0.006-0.012-0.006-0.021-0.006-0.027
			c-0.02-0.08-0.041-0.16-0.066-0.229c-0.051-0.125-0.09-0.244-0.121-0.357c-0.037-0.109-0.088-0.219-0.15-0.316
			c-0.063-0.102-0.123-0.195-0.182-0.281c-0.063-0.092-0.125-0.186-0.199-0.273c-0.07-0.1-0.156-0.191-0.264-0.275
			c-0.104-0.084-0.205-0.164-0.305-0.236c-0.17-0.121-0.354-0.225-0.561-0.314c-0.293-0.199-0.918-0.338-1.641-0.338
			c-0.018,0-0.035,0.002-0.051,0.002H114.3c-0.006,0-0.014,0.004-0.014,0.004c-0.08,0.002-0.152,0.008-0.223,0.016
			c-0.049,0-0.104,0.004-0.154,0.01c-0.002,0.004-0.012,0.004-0.012,0.004c-0.455,0.047-0.834,0.158-1.051,0.297
			c-0.098,0.033-0.191,0.072-0.275,0.117c-0.322,0.209-0.605,0.439-0.828,0.686c-0.227,0.248-0.42,0.559-0.582,0.926
			c-0.047,0.107-0.08,0.225-0.105,0.332c-0.023,0.113-0.063,0.229-0.092,0.346c-0.02,0.043-0.033,0.088-0.033,0.131
			c0,0.016,0,0.033,0,0.051c-0.006,0.029-0.014,0.063-0.018,0.096c-0.01,0.029-0.018,0.063-0.018,0.098
			c-0.021,0.15-0.031,0.314-0.039,0.49c-0.002,0.027-0.002,0.055-0.002,0.076v0.045c0,0.473,0.068,0.891,0.176,1.143
			c0.014,0.063,0.027,0.127,0.043,0.186c0.021,0.094,0.061,0.178,0.104,0.258c0.15,0.354,0.342,0.656,0.564,0.908
			c0.227,0.25,0.498,0.475,0.813,0.66c0.102,0.057,0.195,0.102,0.293,0.137c0.094,0.033,0.193,0.072,0.305,0.107
			c0.072,0.033,0.152,0.061,0.232,0.074c0.258,0.092,0.648,0.148,1.096,0.148c0.441,0,0.842-0.059,1.094-0.148h0.002
			c0.113-0.02,0.225-0.055,0.34-0.104c0.428-0.182,0.799-0.402,1.104-0.676c0.307-0.27,0.557-0.623,0.744-1.059
			c0.045-0.088,0.078-0.184,0.107-0.289c0.025-0.104,0.059-0.203,0.096-0.305c0-0.023,0.006-0.045,0.01-0.068
			c0.078-0.254,0.123-0.613,0.123-1.016v-0.043L118.103,27.394L118.103,27.394z M116.078,28.396c-0.02,0.088-0.045,0.18-0.084,0.27
			c-0.102,0.229-0.223,0.414-0.363,0.57c-0.145,0.152-0.336,0.273-0.568,0.361c-0.061,0.025-0.135,0.035-0.201,0.059
			c-0.084,0.023-0.113,0.023-0.182,0.035h-0.08c-0.102,0.014-0.139,0.016-0.176,0.012c-0.045-0.008-0.084,0.01-0.119,0
			c-0.035-0.014-0.043-0.012-0.086-0.014c-0.021-0.002-0.064-0.01-0.102-0.021c-0.08-0.02-0.162-0.043-0.238-0.068
			s-0.146-0.063-0.209-0.105c-0.223-0.137-0.389-0.287-0.492-0.455c-0.086-0.141-0.172-0.314-0.248-0.529
			c-0.105-0.221-0.174-0.605-0.174-1.043c0-0.373,0.047-0.709,0.127-0.936c0.01-0.037,0.02-0.072,0.033-0.107
			c0.078-0.242,0.188-0.457,0.326-0.643c0.141-0.186,0.322-0.33,0.551-0.428c0.041-0.025,0.096-0.047,0.154-0.064
			c0.059-0.014,0.115-0.023,0.182-0.043c0.025-0.012,0.064-0.016,0.098-0.021c0.035-0.004,0.029,0,0.094-0.004
			c0.078-0.014,0.164-0.004,0.24-0.008c0.086-0.01,0.162,0,0.23,0.018c0.063,0.018,0.125,0.033,0.178,0.045
			c0.051,0.014,0.109,0.031,0.16,0.051c0.229,0.102,0.406,0.232,0.543,0.4c0.133,0.162,0.252,0.367,0.354,0.602
			c0.023,0.07,0.049,0.146,0.061,0.223c0.004,0.01,0.004,0.021,0.006,0.031c0.072,0.229,0.115,0.537,0.115,0.883
			c0,0.355-0.049,0.678-0.121,0.898C116.082,28.373,116.08,28.386,116.078,28.396"/>
		<path fill="#FFFFFF" d="M136.537,21.349c-0.041-0.037-0.111-0.055-0.197-0.055h-0.246h-0.934h-0.883h-0.264
			c-0.09,0-0.156,0.02-0.209,0.064c-0.072,0.045-0.121,0.107-0.148,0.176c-0.025,0.074-0.053,0.146-0.078,0.219
			c-0.049,0.145-0.092,0.287-0.139,0.426c-0.051,0.139-0.088,0.281-0.139,0.428c-0.178,0.559-0.357,1.115-0.541,1.67
			c-0.178,0.555-0.357,1.107-0.539,1.656c-0.074,0.209-0.135,0.412-0.197,0.615c-0.059,0.205-0.125,0.406-0.191,0.615
			c-0.031,0.074-0.059,0.152-0.082,0.242c-0.012,0.041-0.027,0.068-0.047,0.1c-0.047,0.09-0.1,0.137-0.152,0.137
			c-0.098,0-0.188-0.174-0.252-0.451c-0.055-0.143-0.104-0.285-0.145-0.432c-0.057-0.189-0.115-0.377-0.188-0.559
			c-0.217-0.574-0.424-1.154-0.604-1.74c-0.188-0.59-0.383-1.162-0.59-1.734c-0.055-0.148-0.104-0.303-0.15-0.451
			c-0.055-0.146-0.104-0.295-0.158-0.438c-0.029-0.082-0.057-0.166-0.082-0.25c-0.027-0.088-0.074-0.15-0.137-0.197
			c-0.08-0.063-0.195-0.094-0.344-0.094h-0.439h-1.771c-0.016,0.008-0.037,0.01-0.055,0.006c-0.021-0.004-0.035,0-0.055,0.006
			c-0.107,0.029-0.182,0.074-0.221,0.139c-0.014,0.037-0.027,0.088-0.037,0.156c-0.01,0.063-0.012,0.137-0.012,0.205v0.225v0.199
			v1.889v5.037v1.188c0,0.102,0.002,0.195,0.012,0.293c0.01,0.092,0.037,0.164,0.1,0.209c0.051,0.043,0.121,0.066,0.197,0.072
			c0.078,0.004,0.17,0.01,0.271,0.01h0.705c0.068,0,0.145,0,0.217,0.004c0.072,0.008,0.141,0,0.205-0.021
			c0.1-0.014,0.164-0.055,0.199-0.121c0.037-0.043,0.059-0.1,0.059-0.176v-0.217v-0.664v-3.598c0.01-0.102,0.014-0.199,0.014-0.299
			v-0.299c0-0.07,0.006-0.182,0-0.248c-0.004-0.064,0-0.092,0-0.156c-0.004-0.088,0-0.129,0-0.193c0-0.063,0.023-0.17,0.111-0.16
			c0.027,0.004,0.043,0.01,0.063,0.025c0.021,0.012,0.035,0.029,0.055,0.045c0.055,0.08,0.102,0.186,0.146,0.311
			c0.01,0.021,0.014,0.035,0.029,0.061l1.771,5.088l0.004-0.002c0.021,0.063,0.043,0.135,0.074,0.201
			c0.037,0.08,0.064,0.15,0.098,0.209c0.021,0.057,0.076,0.105,0.146,0.152c0.033,0.027,0.086,0.049,0.158,0.059
			c0.076,0.008,0.154,0.012,0.238,0.012c0.086,0,0.17,0,0.256-0.008c0.088-0.004,0.162-0.004,0.225-0.004h0.313
			c0.082,0,0.131,0,0.17-0.006c0.047-0.002,0.105-0.018,0.148-0.053c0.047-0.039,0.063-0.068,0.084-0.125
			c0.018-0.049,0.033-0.072,0.057-0.129l0.061-0.146l1.863-5.404v-0.01c0.018-0.045,0.031-0.094,0.063-0.145
			c0.027-0.049,0.045-0.076,0.082-0.135c0.004-0.01,0.01-0.025,0.023-0.047c0.016-0.018,0.084-0.055,0.109-0.047
			c0.055,0.018,0.063,0.027,0.076,0.096c0.012,0.074,0.012,0.217,0.008,0.285c-0.004,0.08,0.018,0.15,0.014,0.223
			c-0.01,0.08-0.01,0.154-0.01,0.227v0.346c0,0.111,0,0.236,0.014,0.359v3.477v0.689v0.229c0,0.074,0.02,0.133,0.057,0.176
			c0.033,0.057,0.076,0.086,0.129,0.096c0.049,0.014,0.107,0.021,0.18,0.043h0.367h0.65c0.094,0,0.186-0.004,0.27-0.01
			c0.078-0.004,0.146-0.027,0.201-0.072c0.057-0.045,0.086-0.117,0.086-0.207c0.006-0.1,0.01-0.193,0.01-0.293v-1.176v-5.031v-2.031
			v-0.449C136.687,21.507,136.634,21.402,136.537,21.349"/>
		<path fill="#FFFFFF" d="M125.542,24.261c-0.004-0.104-0.037-0.176-0.1-0.223c-0.053-0.043-0.123-0.066-0.197-0.074
			c-0.076-0.004-0.162-0.004-0.266-0.004h-0.688c-0.082,0-0.16,0-0.236,0.004c-0.078,0.008-0.146,0.027-0.197,0.063
			c-0.033,0.037-0.063,0.08-0.076,0.127c-0.004,0.029-0.004,0.049-0.008,0.088c-0.025,0.162-0.086,0.293-0.201,0.307
			c-0.066,0.008-0.131-0.021-0.176-0.078c-0.035-0.023-0.063-0.049-0.092-0.076c-0.043-0.043-0.098-0.092-0.148-0.133
			c-0.037-0.031-0.066-0.055-0.096-0.076c-0.029-0.025-0.061-0.043-0.082-0.064c-0.113-0.072-0.246-0.141-0.389-0.189
			c-0.104-0.063-0.291-0.111-0.531-0.135c-0.123-0.021-0.248-0.025-0.393-0.025h-0.031c-0.094,0-0.184,0.004-0.271,0.01
			c-0.006,0-0.018,0-0.018,0c-0.299,0.023-0.541,0.074-0.666,0.148c-0.08,0.025-0.16,0.059-0.229,0.086
			c-0.129,0.055-0.25,0.121-0.367,0.189c-0.043,0.025-0.092,0.059-0.135,0.09c-0.051,0.031-0.098,0.063-0.139,0.102l-0.08,0.08
			c-0.043,0.037-0.094,0.078-0.143,0.125c-0.051,0.043-0.088,0.088-0.117,0.133c-0.063,0.084-0.125,0.16-0.18,0.234
			c-0.061,0.08-0.113,0.164-0.158,0.252c-0.088,0.143-0.16,0.297-0.219,0.461c-0.021,0.055-0.039,0.109-0.059,0.166
			c-0.1,0.219-0.17,0.535-0.209,0.906c-0.008,0.025-0.008,0.051-0.008,0.074v0.004c-0.012,0.109-0.016,0.221-0.02,0.34v0.07v0.023
			v0.055c0,0.629,0.096,1.186,0.246,1.506c0.008,0.02,0.016,0.039,0.025,0.061c0.162,0.387,0.361,0.719,0.604,0.994
			c0.232,0.273,0.545,0.488,0.936,0.643c0.104,0.047,0.207,0.08,0.328,0.102c0.113,0.023,0.238,0.049,0.367,0.074
			c0.031,0.012,0.064,0.016,0.098,0.016s0.064,0.008,0.09,0.012h0.107c0.047,0.014,0.119,0.016,0.215,0.016
			c0.102,0,0.172-0.002,0.217-0.016c0.045-0.004,0.096-0.016,0.145-0.021c0.047-0.004,0.104-0.012,0.156-0.018
			c0.104-0.029,0.213-0.057,0.309-0.082c0.1-0.029,0.203-0.061,0.299-0.109c0.104-0.043,0.189-0.094,0.27-0.145
			c0.084-0.057,0.164-0.113,0.244-0.176c0.029-0.021,0.055-0.041,0.078-0.066c0.021-0.018,0.043-0.041,0.068-0.059
			c0.023-0.021,0.051-0.039,0.088-0.043c0.063-0.023,0.113-0.021,0.164,0.004c0.094,0.057,0.105,0.166,0.094,0.334
			c0,0.016-0.004,0.053-0.004,0.074c-0.004,0.033-0.008,0.068-0.008,0.104c0,0.1-0.023,0.182-0.027,0.279
			c-0.008,0.092-0.018,0.18-0.033,0.264c-0.018,0.064-0.031,0.121-0.037,0.174c-0.014,0.055-0.025,0.107-0.039,0.162
			c-0.086,0.184-0.189,0.34-0.314,0.473c-0.08,0.088-0.17,0.16-0.273,0.225c-0.041,0.027-0.096,0.059-0.152,0.082
			c-0.021,0.01-0.031,0.016-0.045,0.021c-0.029,0.018-0.061,0.021-0.082,0.025c-0.111,0.035-0.24,0.063-0.381,0.078
			c-0.258,0.029-0.389,0.014-0.656-0.029c-0.104-0.012-0.209-0.061-0.318-0.117c-0.049-0.02-0.09-0.043-0.125-0.066
			c-0.055-0.039-0.104-0.078-0.15-0.119c-0.008-0.006-0.018-0.012-0.02-0.018c-0.002,0-0.01-0.002-0.01-0.002
			c-0.051-0.063-0.104-0.113-0.139-0.178c-0.014-0.014-0.021-0.021-0.031-0.035c-0.068-0.098-0.123-0.176-0.158-0.236
			c-0.035-0.057-0.125-0.105-0.27-0.141c-0.047,0-0.082-0.008-0.113-0.01c-0.035-0.004-0.072-0.006-0.117-0.006h-0.459
			c-0.104,0-0.211-0.002-0.316-0.006c-0.115-0.006-0.219,0-0.305,0.021c-0.094,0.018-0.162,0.055-0.211,0.113
			c-0.053,0.057-0.059,0.145-0.033,0.264c0.008,0.018,0.012,0.041,0.012,0.066c0,0.029,0.012,0.053,0.027,0.08
			c0.127,0.373,0.326,0.666,0.598,0.887s0.572,0.402,0.918,0.545c0.08,0.039,0.162,0.07,0.25,0.096
			c0.086,0.016,0.17,0.037,0.266,0.059c0.014,0.006,0.023,0.012,0.043,0.016c0.217,0.051,0.525,0.086,0.877,0.09
			c0.021,0.006,0.031,0.006,0.053,0.006H122h0.035c0.357,0,0.684-0.031,0.92-0.082c0.094-0.014,0.193-0.027,0.287-0.053
			c0.105-0.031,0.215-0.059,0.311-0.086c0.1-0.023,0.199-0.061,0.301-0.107c0.34-0.145,0.631-0.326,0.871-0.555
			c0.238-0.227,0.432-0.508,0.588-0.854c0.045-0.102,0.08-0.205,0.104-0.314c0.021-0.113,0.049-0.232,0.086-0.357
			c0.012-0.072,0.021-0.139,0.021-0.195c0.004-0.063,0.016-0.125,0.021-0.197c0-0.068,0-0.139,0.004-0.209
			c0.004-0.066,0.004-0.137,0.004-0.211v-5.773C125.544,24.472,125.544,24.367,125.542,24.261 M123.738,27.509
			c-0.012,0.141-0.023,0.273-0.059,0.398c-0.02,0.125-0.055,0.23-0.092,0.309c-0.088,0.229-0.201,0.422-0.344,0.588
			c-0.141,0.16-0.324,0.287-0.547,0.377c-0.076,0.035-0.145,0.061-0.217,0.064c0,0-0.008,0-0.01,0.002
			c-0.063,0.02-0.133,0.029-0.203,0.035c-0.01,0.002-0.012,0.002-0.02,0.006h-0.02c-0.043,0-0.084,0.006-0.131,0.006
			c-0.021,0.006-0.041,0.006-0.064,0c-0.01,0-0.018,0-0.023-0.006c-0.061,0-0.121-0.008-0.178-0.018h-0.025
			c-0.021-0.004-0.037-0.006-0.053-0.012c-0.09-0.02-0.166-0.047-0.236-0.076c-0.029-0.016-0.063-0.029-0.092-0.043
			c-0.209-0.107-0.371-0.252-0.488-0.43c-0.117-0.176-0.213-0.379-0.295-0.615c-0.014-0.043-0.021-0.084-0.029-0.123
			c-0.018-0.088-0.037-0.184-0.049-0.279c-0.004-0.004-0.004-0.01-0.008-0.018v-0.014c-0.006-0.076-0.014-0.166-0.018-0.256
			c-0.014-0.092-0.014-0.201-0.008-0.326c0.008-0.131,0.02-0.238,0.031-0.332c0.01-0.07,0.021-0.139,0.033-0.197v-0.008
			c0-0.027,0.014-0.064,0.029-0.107v-0.004c0.031-0.123,0.068-0.227,0.113-0.305c0.061-0.129,0.123-0.24,0.195-0.355
			c0.125-0.199,0.309-0.346,0.541-0.445c0.012-0.006,0.027-0.012,0.039-0.016c0.137-0.072,0.344-0.115,0.566-0.115
			c0.16,0,0.305,0.021,0.422,0.059c0.199,0.041,0.373,0.107,0.498,0.209c0.24,0.17,0.42,0.412,0.543,0.729
			c0.029,0.057,0.049,0.113,0.072,0.174c0.014,0.066,0.031,0.127,0.053,0.191c0.004,0.021,0.008,0.045,0.008,0.061
			c0.01,0.049,0.016,0.098,0.025,0.145c0.02,0.104,0.037,0.215,0.037,0.338C123.748,27.232,123.746,27.371,123.738,27.509"/>
		<path fill="#FFFFFF" d="M144.13,26.88c-0.025-0.193-0.066-0.369-0.104-0.508c-0.051-0.199-0.133-0.43-0.234-0.666
			c-0.029-0.07-0.066-0.148-0.105-0.219c-0.008-0.016-0.02-0.025-0.023-0.041c-0.115-0.209-0.242-0.4-0.361-0.557
			c-0.008-0.008-0.016-0.02-0.02-0.025c-0.004,0-0.006-0.004-0.006-0.004c-0.098-0.119-0.193-0.215-0.281-0.285
			c-0.014-0.01-0.027-0.02-0.037-0.027c-0.078-0.07-0.162-0.129-0.244-0.184c-0.264-0.18-0.559-0.326-0.887-0.438
			c0,0-0.002,0-0.008-0.004c-0.229-0.094-0.615-0.154-1.057-0.154c0,0-0.018,0.002-0.023,0.002h-0.1h-0.004
			c-0.084,0.002-0.164,0.008-0.242,0.012c-0.051,0.004-0.104,0.006-0.156,0.02c-0.014,0-0.023,0.002-0.029,0.004
			c-0.148,0.021-0.285,0.047-0.389,0.082c-0.131,0.02-0.258,0.063-0.383,0.111c-0.928,0.393-1.586,1.053-1.975,1.99
			c-0.033,0.08-0.063,0.168-0.092,0.256c-0.078,0.248-0.137,0.553-0.16,0.896l-0.006,0.023v0.023
			c-0.004,0.066-0.008,0.135-0.008,0.205c0,0.014,0,0.027,0,0.045v0.051c0,0.574,0.1,1.088,0.252,1.424
			c0.021,0.092,0.063,0.182,0.096,0.27c0.145,0.313,0.332,0.592,0.555,0.832c0.229,0.234,0.48,0.449,0.771,0.629
			c0.072,0.047,0.148,0.082,0.234,0.113c0.078,0.027,0.381,0.15,0.514,0.191c0.105,0.037,0.229,0.066,0.369,0.092
			c0.01,0.006,0.02,0.006,0.027,0.006c0.158,0.033,0.318,0.047,0.432,0.051c0.082,0.004,0.16,0.008,0.244,0.008h0.07h0.025
			c0.91-0.053,1.055-0.143,1.512-0.301c0.297-0.109,0.354-0.16,0.564-0.313c0.25-0.18,0.475-0.42,0.674-0.715
			c0.068-0.098,0.137-0.199,0.189-0.299s0.104-0.211,0.146-0.342c0.016-0.039,0.023-0.098,0.02-0.156
			c0-0.025-0.004-0.049-0.01-0.066c-0.018-0.084-0.074-0.143-0.145-0.143h-0.297c-0.023-0.006-0.059-0.006-0.088-0.004
			c-0.012,0.002-0.021,0.002-0.031,0.004h-0.451c-0.021-0.002-0.047-0.002-0.068-0.004c-0.043,0-0.08,0-0.117,0.004h-0.084
			c-0.057,0-0.205,0.047-0.291,0.158c-0.031,0.039-0.068,0.086-0.1,0.119c-0.051,0.063-0.078,0.096-0.135,0.152
			c-0.07,0.076-0.082,0.08-0.191,0.152c-0.117,0.07-0.221,0.133-0.309,0.174c-0.004,0.004-0.004,0.004-0.004,0.004
			c-0.102,0.055-0.238,0.094-0.402,0.121c-0.021,0.004-0.043,0.014-0.068,0.014h-0.035c-0.063,0.01-0.123,0.014-0.184,0.014
			c-0.068,0.008-0.145,0.008-0.229,0h-0.006c-0.275-0.014-0.514-0.064-0.666-0.145c-0.027-0.012-0.055-0.025-0.084-0.043
			c-0.186-0.109-0.32-0.23-0.428-0.375c-0.104-0.139-0.203-0.311-0.273-0.525c-0.006-0.008-0.021-0.047-0.021-0.061
			c-0.016-0.051-0.018-0.092-0.031-0.172c0-0.037-0.008-0.068-0.008-0.1c-0.002-0.031,0-0.066,0.008-0.102
			c0.008-0.049,0.023-0.086,0.047-0.104c0.002-0.012,0.01-0.021,0.021-0.025c0.016-0.037,0.059-0.074,0.135-0.109
			c0.043-0.016,0.094-0.027,0.152-0.027h0.188h3.301c0.076,0,0.172,0.002,0.273,0.008c0.104,0.006,0.209,0.006,0.313,0
			s0.195-0.014,0.277-0.027c0.088-0.014,0.158-0.035,0.199-0.07c0.047-0.027,0.08-0.088,0.096-0.176
			c0.014-0.066,0.027-0.285,0.018-0.344C144.177,27.13,144.162,27.089,144.13,26.88 M142.117,26.582
			c-0.047,0.074-0.139,0.113-0.271,0.115c-0.146,0.008-0.275,0.008-0.4,0.008h-1.508h-0.359c-0.127,0-0.229-0.021-0.297-0.064
			c-0.049-0.037-0.076-0.082-0.086-0.141c-0.018-0.053-0.018-0.107-0.012-0.162c0.012-0.063,0.029-0.123,0.049-0.182
			c0.021-0.061,0.039-0.104,0.061-0.143c0.189-0.365,0.479-0.615,0.883-0.742c0.041-0.02,0.094-0.033,0.152-0.047
			c0.061-0.02,0.191-0.035,0.23-0.041c0.037-0.004,0.602-0.072,0.971,0.217c0.188,0.152,0.375,0.318,0.5,0.563
			c0.021,0.061,0.063,0.158,0.111,0.293C142.187,26.384,142.179,26.492,142.117,26.582"/>
		<path fill="#FFFFFF" d="M152.644,18.205c-4.432,0-8.029,3.597-8.029,8.027c0,4.434,3.6,8.029,8.029,8.029
			c4.434,0,8.023-3.598,8.023-8.029S157.078,18.205,152.644,18.205 M149.89,30.876c-0.033,0.063-0.119,0.109-0.242,0.146
			c-0.063,0.021-0.133,0.025-0.203,0.012c-0.072-0.006-0.146-0.012-0.217-0.012h-0.799c-0.098,0-0.189-0.004-0.275-0.014
			c-0.088-0.008-0.158-0.035-0.213-0.078c-0.039-0.049-0.072-0.113-0.078-0.205c-0.01-0.088-0.018-0.188-0.018-0.283v-1.178v-4.938
			v-1.975c0-0.125,0-0.275-0.006-0.443c0-0.174,0.018-0.293,0.064-0.363c0.035-0.061,0.092-0.104,0.176-0.143
			c0.025,0,0.053,0,0.074-0.006c0.02-0.004,0.037-0.008,0.063-0.008h1.16c0.1,0,0.195,0.004,0.283,0.008
			c0.09,0.006,0.154,0.043,0.201,0.104c0.047,0.063,0.07,0.146,0.074,0.24c0.004,0.104,0.01,0.211,0.01,0.328v1.176v4.693v2.215
			c0,0.121,0,0.248,0.004,0.396C149.953,30.695,149.933,30.804,149.89,30.876 M157.82,26.804v1.203v2.189
			c0,0.17-0.006,0.342-0.01,0.494c-0.01,0.158-0.07,0.26-0.189,0.303c-0.063,0.02-0.121,0.027-0.193,0.027h-0.219h-0.729
			c-0.107,0-0.205-0.004-0.289-0.016c-0.088-0.02-0.156-0.057-0.199-0.119c-0.035-0.055-0.057-0.121-0.063-0.209
			c-0.004-0.084-0.006-0.176-0.006-0.277v-0.945v-2.016c0-0.334-0.016-0.645-0.041-0.928c-0.027-0.281-0.111-0.525-0.242-0.725
			c-0.105-0.148-0.254-0.264-0.443-0.344c-0.127-0.063-0.328-0.104-0.559-0.104c-0.262,0-0.494,0.059-0.607,0.141
			c-0.094,0.035-0.172,0.08-0.244,0.133c-0.287,0.205-0.459,0.506-0.516,0.904c-0.053,0.398-0.08,0.844-0.08,1.336v1.695v0.82v0.246
			c0,0.078-0.012,0.146-0.037,0.201c-0.045,0.1-0.119,0.158-0.223,0.174c-0.096,0.02-0.217,0.027-0.363,0.027h-0.676
			c-0.098,0-0.195-0.002-0.295-0.014c-0.102-0.008-0.174-0.037-0.219-0.098c-0.063-0.078-0.092-0.191-0.088-0.348
			s0.01-0.301,0.01-0.434v-1.844v-2.973v-0.68c0-0.102,0-0.189,0.002-0.271c0.004-0.082,0.031-0.145,0.076-0.203
			c0.021-0.023,0.045-0.047,0.09-0.059c0.039-0.016,0.084-0.029,0.129-0.035h0.066c0.045-0.01,0.092-0.012,0.141-0.012h0.146h0.564
			c0.07,0,0.143,0,0.207,0.006c0.068,0.004,0.129,0.012,0.186,0.033c0.063,0.023,0.104,0.064,0.129,0.125
			c0.018,0.045,0.018,0.096,0.035,0.154c0.035,0.156,0.08,0.326,0.193,0.34c0.051,0.01,0.105-0.016,0.15-0.059
			c0.02-0.016,0.076-0.074,0.096-0.094c0.063-0.08,0.184-0.189,0.26-0.234c0.053-0.037,0.094-0.063,0.133-0.092
			c0.133-0.088,0.322-0.176,0.561-0.242c0,0,0.014-0.004,0.025-0.008c0.07-0.027,0.146-0.043,0.229-0.051
			c0.037-0.008,0.068-0.016,0.105-0.021c0.297-0.051,0.58-0.061,0.795-0.035c0.379,0.021,0.705,0.102,0.975,0.23
			c0.365,0.168,0.652,0.422,0.855,0.756c0.064,0.098,0.115,0.207,0.15,0.316c0.035,0.107,0.072,0.227,0.105,0.342
			c0.018,0.076,0.029,0.141,0.033,0.207c0.006,0.063,0.021,0.127,0.033,0.188c0,0.059,0.008,0.09,0.018,0.107
			c0.02,0.127,0.025,0.258,0.025,0.395v0.391h0.006V26.804z"/>
		<path fill="#FFFFFF" d="M111.759,16.189c0.018,0.053,0.027,0.147,0.027,0.274c0,0.132-0.006,0.224-0.018,0.276
			c0,0.043,0,0.082-0.002,0.113c-0.01,0.033-0.01,0.071-0.01,0.114c-0.018,0.069-0.027,0.142-0.027,0.209s-0.012,0.14-0.027,0.211
			c0,0.036-0.006,0.101-0.025,0.188c-0.023,0.104-0.051,0.22-0.072,0.33c-0.021,0.109-0.059,0.217-0.104,0.315
			c-0.162,0.405-0.365,0.757-0.607,1.056c-0.24,0.295-0.561,0.527-0.955,0.696c-0.078,0.038-0.168,0.063-0.254,0.091
			c-0.082,0.021-0.174,0.044-0.27,0.076c-0.055,0.018-0.111,0.023-0.17,0.023c-0.061,0-0.117,0.006-0.172,0.014h-0.117
			c-0.055,0.021-0.129,0.025-0.219,0.021c-0.094-0.004-0.158-0.016-0.217-0.031h-0.084c-0.045-0.01-0.096-0.02-0.146-0.021
			s-0.105-0.01-0.158-0.02c-0.17-0.045-0.332-0.093-0.473-0.136c-0.145-0.043-0.281-0.108-0.404-0.188
			c-0.055-0.038-0.105-0.069-0.158-0.106c-0.047-0.039-0.096-0.078-0.143-0.123c-0.021-0.018-0.049-0.035-0.076-0.056
			c-0.029-0.017-0.055-0.03-0.088-0.038c-0.074-0.027-0.129-0.01-0.145,0.057c-0.045,0.063-0.072,0.136-0.088,0.22
			c-0.016,0.087-0.049,0.149-0.104,0.194c-0.053,0.037-0.117,0.06-0.191,0.063c-0.068,0.004-0.148,0.005-0.236,0.005h-0.648
			c-0.064,0-0.133,0.002-0.195,0.008c-0.068,0.002-0.127-0.004-0.182-0.021c-0.125-0.043-0.195-0.129-0.209-0.25
			c-0.016-0.119-0.021-0.258-0.021-0.411v-8.229v-0.313c0-0.107,0.021-0.191,0.064-0.256c0.041-0.063,0.104-0.104,0.191-0.122
			c0.02-0.009,0.035-0.013,0.063-0.007c0.021,0.007,0.037,0.003,0.057-0.008H106c0.162,0,0.301,0.008,0.414,0.021
			c0.117,0.016,0.197,0.082,0.232,0.21c0.025,0.089,0.033,0.207,0.025,0.356c-0.012,0.146-0.012,0.275-0.012,0.383v1.473v0.299
			c0,0.098,0.004,0.185,0.02,0.254c0.008,0.047,0.023,0.086,0.033,0.117c0.008,0.03,0.031,0.051,0.064,0.061
			c0.018,0.02,0.043,0.023,0.07,0.023c0.037,0,0.063-0.002,0.08-0.011c0.063-0.038,0.117-0.073,0.174-0.114
			c0.055-0.041,0.111-0.082,0.178-0.13c0.113-0.079,0.234-0.147,0.359-0.209c0.127-0.06,0.266-0.108,0.422-0.155
			c0.07-0.023,0.141-0.043,0.213-0.049c0.072,0,0.146-0.014,0.221-0.033c0.057-0.018,0.131-0.023,0.201-0.023h0.213h0.139
			c0.023,0.008,0.059,0.008,0.092,0.006c0.037-0.004,0.07,0,0.107,0.01c0.098,0.025,0.193,0.043,0.277,0.059
			c0.088,0.018,0.17,0.039,0.248,0.074c0.412,0.172,0.75,0.394,1.014,0.662c0.264,0.271,0.479,0.607,0.662,1.008
			c0.045,0.113,0.086,0.227,0.117,0.344c0.029,0.115,0.061,0.234,0.102,0.363c0.014,0.063,0.027,0.123,0.031,0.181
			c0.004,0.06,0.014,0.125,0.031,0.196c0.018,0.047,0.023,0.095,0.021,0.146c-0.008,0.055-0.006,0.107,0.008,0.163L111.759,16.189
			L111.759,16.189z M109.763,17.455c0.027-0.088,0.049-0.198,0.072-0.336c0.023-0.135,0.033-0.271,0.041-0.41
			c0.006-0.141,0.006-0.277,0-0.418c-0.008-0.139-0.018-0.26-0.047-0.358c-0.027-0.09-0.047-0.176-0.055-0.258
			c-0.008-0.078-0.029-0.153-0.066-0.228c-0.129-0.315-0.301-0.582-0.535-0.803c-0.227-0.222-0.563-0.33-1.006-0.33
			c-0.033,0-0.066,0-0.092,0.006c-0.029,0.004-0.061,0.006-0.096,0.006c-0.064,0.019-0.125,0.033-0.174,0.047
			c-0.055,0.018-0.107,0.029-0.166,0.052c-0.262,0.114-0.459,0.274-0.594,0.487s-0.244,0.453-0.334,0.728
			c-0.033,0.067-0.047,0.146-0.051,0.22c-0.004,0.076-0.018,0.149-0.033,0.226c-0.008,0.024-0.012,0.069-0.012,0.134
			c-0.012,0.036-0.014,0.074-0.008,0.107c0.002,0.037,0.002,0.072-0.006,0.105c-0.02,0.075-0.023,0.171-0.018,0.301
			c0.012,0.123,0.023,0.215,0.041,0.268c0.018,0.082,0.029,0.156,0.033,0.229c0.004,0.074,0.018,0.146,0.051,0.217
			c0.074,0.256,0.178,0.471,0.289,0.657c0.115,0.183,0.27,0.339,0.477,0.466c0.15,0.09,0.291,0.152,0.447,0.188
			c0.02,0,0.041,0.002,0.063,0.008c0.018,0.002,0.047,0.007,0.074,0.007c0.025,0.006,0.07,0.016,0.135,0.02
			c0.063,0.002,0.115,0.002,0.16-0.01c0.092-0.017,0.176-0.033,0.248-0.045c0.08-0.013,0.15-0.033,0.227-0.062
			c0.25-0.117,0.445-0.278,0.586-0.485C109.558,17.979,109.671,17.734,109.763,17.455"/>
		<path fill="#FFFFFF" d="M112.039,13.031h1.023h0.268c0.096,0,0.172,0.021,0.232,0.053c0.111,0.072,0.184,0.188,0.223,0.34
			c0.043,0.152,0.082,0.293,0.127,0.418c0.047,0.105,0.088,0.223,0.115,0.34c0.033,0.113,0.066,0.229,0.111,0.334
			c0.072,0.207,0.146,0.411,0.207,0.616c0.061,0.2,0.129,0.399,0.201,0.603l0.283,0.846c0.027,0.082,0.051,0.168,0.074,0.252
			c0.02,0.086,0.051,0.168,0.088,0.25c0.021,0.07,0.055,0.154,0.09,0.242c0.029,0.09,0.096,0.129,0.195,0.119
			c0.014-0.017,0.031-0.027,0.045-0.035c0.016,0,0.029-0.014,0.045-0.026c0.027-0.048,0.055-0.097,0.068-0.14
			c0.02-0.045,0.037-0.09,0.061-0.133c0.043-0.1,0.078-0.205,0.104-0.318c0.025-0.112,0.059-0.223,0.094-0.329
			c0.129-0.377,0.25-0.752,0.367-1.121c0.115-0.37,0.234-0.74,0.361-1.121c0.045-0.124,0.088-0.25,0.111-0.369
			c0.029-0.12,0.072-0.241,0.113-0.356c0.029-0.071,0.055-0.141,0.076-0.211c0.023-0.066,0.068-0.123,0.131-0.168
			c0.053-0.043,0.121-0.066,0.199-0.074c0.084-0.002,0.174-0.006,0.271-0.006h0.82c0.094,0,0.176,0.004,0.262,0.014
			c0.078,0.007,0.139,0.037,0.188,0.083c0.053,0.062,0.061,0.144,0.023,0.239c-0.018,0.072-0.039,0.146-0.066,0.219
			c-0.029,0.068-0.057,0.146-0.08,0.215c-0.125,0.313-0.25,0.637-0.365,0.967c-0.117,0.327-0.234,0.65-0.361,0.967
			c-0.057,0.131-0.105,0.271-0.148,0.406c-0.047,0.143-0.098,0.28-0.146,0.413c-0.045,0.125-0.094,0.248-0.137,0.366
			c-0.047,0.113-0.092,0.234-0.137,0.363c-0.18,0.449-0.344,0.9-0.508,1.354c-0.156,0.452-0.322,0.901-0.504,1.341
			c-0.027,0.064-0.049,0.125-0.059,0.177c-0.018,0.057-0.033,0.109-0.063,0.16c-0.072,0.172-0.143,0.336-0.201,0.5
			c-0.064,0.162-0.131,0.32-0.201,0.467c-0.074,0.146-0.162,0.285-0.258,0.41c-0.098,0.127-0.223,0.236-0.369,0.338
			c-0.111,0.082-0.242,0.146-0.381,0.195c-0.141,0.051-0.289,0.1-0.453,0.143c-0.068,0.02-0.143,0.029-0.217,0.029
			c-0.07,0-0.143,0.008-0.215,0.025h-0.352h-0.258c-0.102,0-0.191-0.006-0.289-0.016c-0.096-0.01-0.186-0.02-0.256-0.031
			c-0.074-0.018-0.129-0.033-0.17-0.063c-0.045-0.035-0.07-0.08-0.082-0.129c-0.018-0.047-0.037-0.109-0.057-0.18v-0.324v-0.488
			c0-0.172,0.059-0.277,0.164-0.322c0.045-0.021,0.105-0.029,0.184-0.035c0.076,0,0.143,0,0.193,0.021h0.334h0.162
			c0.039-0.012,0.076-0.016,0.111-0.016c0.037,0,0.072-0.008,0.111-0.027c0.275-0.08,0.455-0.266,0.535-0.551
			c0.02-0.037,0.039-0.092,0.053-0.162c0.021-0.074,0.021-0.135,0-0.189c-0.014-0.045-0.023-0.092-0.023-0.135
			s-0.01-0.092-0.029-0.137c-0.053-0.178-0.107-0.357-0.176-0.533c-0.055-0.174-0.131-0.349-0.199-0.519
			c-0.068-0.174-0.139-0.345-0.193-0.517c-0.061-0.168-0.121-0.34-0.197-0.512c-0.045-0.109-0.08-0.218-0.113-0.324
			c-0.029-0.108-0.072-0.215-0.113-0.32c-0.145-0.346-0.273-0.694-0.396-1.057c-0.121-0.355-0.258-0.709-0.402-1.051
			c-0.016-0.035-0.021-0.066-0.021-0.088c0-0.025-0.01-0.05-0.025-0.076c-0.072-0.16-0.137-0.324-0.186-0.492
			c-0.051-0.166-0.109-0.326-0.18-0.479c-0.021-0.056-0.049-0.13-0.088-0.233c-0.045-0.104-0.047-0.191-0.021-0.263
			c0.025-0.073,0.084-0.12,0.178-0.138c0.02-0.01,0.029-0.01,0.047-0.008C112.003,13.044,112.023,13.041,112.039,13.031"/>
	</g>
</g>
</svg>
