<?xml version="1.0" encoding="utf-8"?>
<!-- Generator: Adobe Illustrator 16.0.0, SVG Export Plug-In . SVG Version: 6.00 Build 0)  -->
<!DOCTYPE svg PUBLIC "-//W3C//DTD SVG 1.1//EN" "http://www.w3.org/Graphics/SVG/1.1/DTD/svg11.dtd">
<svg version="1.1" id="Capa_1" xmlns="http://www.w3.org/2000/svg" xmlns:xlink="http://www.w3.org/1999/xlink" x="0px" y="0px"
	 width="161.667px" height="39.132px" viewBox="33.333 26.799 161.667 39.132"
	 enable-background="new 33.333 26.799 161.667 39.132" xml:space="preserve">
<g>
	<g>
		<polygon fill="#FF4833" points="50.363,57.641 45.713,50.746 41.016,57.641 35.053,57.641 42.283,47.151 35.475,37.213 
			41.482,37.213 45.713,43.513 49.896,37.213 55.904,37.213 49.051,47.151 56.369,57.641 		"/>
		<path fill="#FF4833" d="M55.938,31.798c0-1.774,1.48-3.171,3.211-3.171c1.777,0,3.217,1.396,3.217,3.171
			c0,1.777-1.439,3.216-3.217,3.216C57.418,35.013,55.938,33.575,55.938,31.798 M56.488,37.213h5.369v20.43h-5.369V37.213z"/>
		<polygon fill="#FF4833" points="70.357,57.641 62.154,37.213 67.904,37.213 73.234,51.424 78.564,37.213 84.357,37.213 
			76.154,57.641 		"/>
		<path fill="#FF4833" d="M82.496,47.405c0-5.922,4.352-10.703,10.572-10.703c6.09,0,10.234,4.569,10.234,11.251v1.187h-15.18
			c0.336,2.579,2.406,4.736,5.877,4.736c1.732,0,4.144-0.762,5.453-2.028l2.371,3.466c-2.029,1.86-5.244,2.835-8.42,2.835
			C87.189,58.147,82.496,53.959,82.496,47.405 M93.068,40.977c-3.342,0-4.779,2.494-5.031,4.524H98.1
			C97.977,43.555,96.619,40.977,93.068,40.977"/>
		<rect x="104.23" y="29.432" fill="#FF4833" width="5.373" height="28.21"/>
		<path fill="#FF4833" d="M112.9,60.968c0.414,0.159,1.188,0.183,1.69,0.183c1.396,0,2.328-0.379,2.834-1.481l0.763-1.731
			l-8.289-20.724h5.752l5.33,14.211l5.326-14.211h5.797l-9.601,23.769c-1.522,3.853-4.229,4.862-7.741,4.95
			c-0.638,0-1.188-0.023-1.863-0.191L112.9,60.968z"/>
		<path fill="#FF4833" d="M193.561,46.391c-0.01,0.007-0.02,0.008-0.031,0.012c-0.006,0.004-0.016,0.007-0.026,0.009
			c-0.01,0.008-0.021,0.012-0.024,0.019c-0.011,0.006-0.015,0.013-0.015,0.022c0,0.005,0,0.008,0,0.008
			c0.004,0.009,0.004,0.014,0.004,0.016c0.007,0.012,0.011,0.021,0.017,0.027c0.008,0.01,0.01,0.018,0.02,0.025l0.121,0.188
			c0.01,0.014,0.016,0.021,0.021,0.03c0.004,0.011,0.012,0.021,0.012,0.032c0.008,0.012,0.004,0.023,0,0.037
			c-0.008,0-0.016,0.002-0.016,0.002s-0.015,0-0.023,0.003c-0.008,0.001-0.018,0.001-0.033,0c-0.006-0.003-0.016-0.005-0.016-0.005
			c-0.01,0-0.014,0-0.021-0.004c-0.014-0.01-0.022-0.021-0.03-0.033c-0.006-0.012-0.017-0.024-0.025-0.034l-0.125-0.207
			c-0.014-0.015-0.023-0.03-0.029-0.048c-0.012-0.016-0.025-0.03-0.041-0.043c-0.008-0.006-0.018-0.007-0.029-0.008
			c-0.014,0-0.026-0.003-0.039-0.003h-0.021c-0.008,0.004-0.019,0.005-0.024,0.008c-0.008,0.003-0.015,0.005-0.021,0.013
			c-0.006,0.011-0.008,0.022-0.008,0.038v0.054v0.165v0.044c0,0.014,0,0.028-0.006,0.039c-0.006,0.008-0.01,0.013-0.021,0.021
			c-0.01,0.002-0.02,0.005-0.031,0.005c-0.011,0-0.021,0-0.033,0c-0.012-0.003-0.022-0.005-0.03-0.009
			c-0.007-0.009-0.007-0.009-0.011-0.021v-0.018V46.76c-0.008-0.005-0.008-0.015-0.008-0.025c0,0,0.008-0.018,0.008-0.026v-0.689
			V45.98c0-0.012,0-0.021,0.004-0.03c0.007-0.008,0.013-0.01,0.025-0.016c0.004,0,0.004-0.002,0.004-0.002h0.014h0.214
			c0.063,0,0.12,0.002,0.168,0.008c0.053,0,0.092,0.015,0.135,0.045c0.013,0.008,0.026,0.021,0.035,0.031
			c0.022,0.028,0.039,0.063,0.047,0.1l0.004,0.039v0.017c0.006,0.015,0.006,0.03,0,0.047c-0.002,0.023-0.008,0.037-0.008,0.047
			c-0.013,0.028-0.021,0.055-0.043,0.074C193.602,46.355,193.584,46.376,193.561,46.391 M193.268,46.327c0.029,0,0.056,0,0.072,0
			c0.027,0,0.053-0.005,0.068-0.005c0.025-0.008,0.037-0.012,0.059-0.02c0.014-0.007,0.025-0.018,0.037-0.033
			c0.014-0.015,0.021-0.034,0.021-0.053c0.006-0.02,0.01-0.035,0.004-0.057c-0.004-0.018-0.004-0.03-0.012-0.041
			c-0.006-0.022-0.025-0.04-0.045-0.053c-0.025-0.009-0.043-0.017-0.076-0.021c-0.029-0.004-0.058-0.009-0.092-0.009h-0.099
			c0,0-0.004,0-0.008,0.002c-0.003,0.003-0.009,0.003-0.011,0.003c-0.012,0.004-0.021,0.01-0.028,0.021
			c-0.004,0.004-0.004,0.01-0.007,0.015c0,0,0,0.011-0.002,0.016v0.021c0,0.009-0.004,0.017,0,0.027v0.025v0.075
			c-0.004,0.028,0,0.051,0.009,0.063c0.012,0.013,0.022,0.021,0.047,0.021C193.229,46.327,193.25,46.327,193.268,46.327"/>
		<path fill="#FF4833" d="M193.301,47.267c-0.49,0-0.893-0.396-0.893-0.892c0-0.487,0.402-0.887,0.893-0.887
			c0.491,0,0.887,0.398,0.887,0.887C194.188,46.87,193.791,47.267,193.301,47.267 M193.301,45.63c-0.414,0-0.75,0.333-0.75,0.746
			c0,0.412,0.336,0.748,0.75,0.748c0.41,0,0.746-0.336,0.746-0.748C194.047,45.963,193.711,45.63,193.301,45.63"/>
		<path fill="#FF4833" d="M144.43,57.159v-0.622V56.28c0-0.082-0.025-0.147-0.07-0.206c-0.028-0.033-0.084-0.059-0.172-0.077
			c-0.086-0.02-0.176-0.03-0.276-0.035c-0.101-0.004-0.201-0.004-0.306,0c-0.112,0.005-0.203,0.01-0.272,0.01h-1.826h-0.555
			c-0.19,0-0.315-0.061-0.379-0.177c-0.017-0.047-0.027-0.098-0.031-0.156c-0.008-0.058-0.008-0.119-0.008-0.184V55.32
			c0-0.082-0.013-0.104-0.009-0.176c0.004-0.066-0.01-0.161-0.01-0.229v-0.803v-4.096v-1.232v-0.326
			c0-0.106-0.018-0.188-0.065-0.254c-0.045-0.062-0.117-0.099-0.211-0.103c-0.095-0.003-0.189-0.007-0.289-0.007h-1.146
			c-0.024,0.009-0.041,0.011-0.057,0.007c-0.018-0.003-0.037,0-0.057,0.006c-0.105,0.028-0.178,0.074-0.217,0.139
			c-0.025,0.044-0.041,0.107-0.047,0.19c-0.005,0.077-0.005,0.161-0.005,0.243v0.848v3.059v3.586v0.948v0.248
			c0,0.085,0.015,0.154,0.052,0.21c0.049,0.071,0.114,0.113,0.211,0.127c0.094,0.015,0.205,0.023,0.332,0.023h0.973h2.865h0.963
			h0.256c0.088,0,0.156-0.021,0.201-0.058c0.055-0.024,0.1-0.073,0.137-0.148c0.018-0.044,0.027-0.101,0.023-0.161
			C144.43,57.302,144.43,57.232,144.43,57.159"/>
		<path fill="#FF4833" d="M151.756,54.197v-0.075c-0.012-0.346-0.059-0.661-0.127-0.884c-0.006-0.012-0.006-0.021-0.006-0.027
			c-0.021-0.081-0.041-0.16-0.068-0.229c-0.049-0.126-0.088-0.245-0.121-0.357c-0.037-0.111-0.088-0.219-0.149-0.317
			c-0.063-0.101-0.123-0.196-0.183-0.282c-0.061-0.091-0.125-0.185-0.199-0.273c-0.069-0.099-0.155-0.192-0.264-0.275
			c-0.102-0.085-0.205-0.164-0.303-0.237c-0.17-0.12-0.355-0.225-0.561-0.313c-0.293-0.2-0.918-0.338-1.64-0.338
			c-0.018,0-0.036,0.001-0.051,0.001h-0.131c-0.006,0-0.015,0.004-0.015,0.004c-0.08,0.002-0.151,0.008-0.221,0.015
			c-0.049,0-0.105,0.005-0.156,0.011c-0.002,0.003-0.01,0.003-0.01,0.003c-0.457,0.048-0.834,0.158-1.051,0.298
			c-0.098,0.033-0.193,0.072-0.277,0.117c-0.322,0.209-0.604,0.438-0.828,0.685c-0.225,0.248-0.42,0.558-0.582,0.926
			c-0.047,0.108-0.08,0.225-0.104,0.331c-0.024,0.114-0.063,0.229-0.092,0.347c-0.021,0.043-0.033,0.087-0.033,0.13
			c0,0.016,0,0.033,0,0.052c-0.006,0.029-0.015,0.062-0.019,0.094c-0.01,0.03-0.016,0.063-0.016,0.099
			c-0.023,0.15-0.033,0.313-0.039,0.49c-0.002,0.027-0.002,0.054-0.002,0.076v0.044c0,0.474,0.068,0.891,0.174,1.143
			c0.015,0.063,0.029,0.127,0.043,0.186c0.023,0.094,0.062,0.178,0.104,0.258c0.151,0.354,0.342,0.655,0.565,0.907
			c0.226,0.251,0.498,0.475,0.813,0.662c0.101,0.055,0.194,0.101,0.293,0.136c0.093,0.033,0.192,0.073,0.304,0.108
			c0.073,0.033,0.153,0.06,0.233,0.074c0.258,0.092,0.647,0.148,1.096,0.148c0.441,0,0.841-0.058,1.093-0.148h0.002
			c0.114-0.021,0.225-0.055,0.34-0.104c0.428-0.181,0.799-0.403,1.104-0.675c0.306-0.27,0.556-0.624,0.744-1.06
			c0.045-0.088,0.078-0.184,0.106-0.289c0.027-0.104,0.06-0.202,0.097-0.304c0-0.023,0.006-0.046,0.01-0.069
			c0.078-0.254,0.123-0.613,0.123-1.016v-0.043L151.756,54.197L151.756,54.197z M149.729,55.198
			c-0.018,0.089-0.045,0.181-0.084,0.27c-0.1,0.228-0.221,0.415-0.362,0.57c-0.146,0.153-0.337,0.274-0.568,0.361
			c-0.062,0.027-0.135,0.036-0.202,0.059c-0.085,0.023-0.113,0.023-0.181,0.036h-0.08c-0.103,0.013-0.14,0.016-0.176,0.011
			c-0.046-0.008-0.084,0.01-0.119,0c-0.035-0.014-0.043-0.011-0.086-0.014c-0.022-0.002-0.065-0.01-0.103-0.021
			c-0.08-0.019-0.162-0.042-0.238-0.069c-0.075-0.025-0.146-0.062-0.209-0.104c-0.223-0.137-0.389-0.288-0.491-0.455
			c-0.086-0.142-0.172-0.316-0.248-0.53c-0.106-0.22-0.174-0.605-0.174-1.044c0-0.373,0.047-0.708,0.127-0.934
			c0.01-0.038,0.018-0.073,0.032-0.108c0.078-0.243,0.188-0.458,0.326-0.642c0.142-0.187,0.324-0.33,0.551-0.429
			c0.041-0.025,0.097-0.046,0.154-0.063c0.06-0.014,0.117-0.025,0.182-0.044c0.025-0.011,0.064-0.016,0.099-0.021
			c0.035-0.005,0.029,0,0.093-0.005c0.079-0.012,0.163-0.004,0.241-0.008c0.086-0.008,0.162,0.001,0.229,0.018
			c0.064,0.019,0.125,0.033,0.179,0.046c0.051,0.014,0.108,0.03,0.159,0.051c0.229,0.101,0.406,0.231,0.544,0.399
			c0.133,0.163,0.252,0.367,0.352,0.602c0.025,0.071,0.05,0.146,0.062,0.223c0.004,0.01,0.004,0.021,0.006,0.032
			c0.072,0.228,0.115,0.537,0.115,0.882c0,0.355-0.049,0.677-0.121,0.899C149.734,55.176,149.732,55.188,149.729,55.198"/>
		<path fill="#FF4833" d="M170.189,48.152c-0.041-0.037-0.111-0.056-0.197-0.056h-0.246h-0.934h-0.883h-0.263
			c-0.09,0-0.156,0.021-0.209,0.065c-0.072,0.046-0.121,0.107-0.149,0.176c-0.025,0.074-0.052,0.146-0.078,0.219
			c-0.049,0.145-0.092,0.287-0.138,0.426c-0.051,0.139-0.088,0.281-0.139,0.427c-0.179,0.56-0.358,1.115-0.541,1.67
			c-0.179,0.556-0.358,1.107-0.539,1.656c-0.074,0.209-0.136,0.412-0.197,0.616c-0.059,0.204-0.125,0.406-0.192,0.615
			c-0.031,0.074-0.058,0.152-0.082,0.242c-0.012,0.042-0.027,0.069-0.047,0.099c-0.047,0.091-0.099,0.137-0.152,0.137
			c-0.098,0-0.188-0.174-0.252-0.451c-0.055-0.143-0.104-0.285-0.145-0.431c-0.056-0.19-0.115-0.377-0.187-0.558
			c-0.218-0.575-0.425-1.156-0.604-1.742c-0.188-0.589-0.383-1.162-0.59-1.734c-0.055-0.148-0.104-0.303-0.15-0.45
			c-0.055-0.147-0.104-0.295-0.159-0.439c-0.029-0.081-0.056-0.165-0.082-0.25c-0.027-0.087-0.074-0.15-0.136-0.196
			c-0.08-0.063-0.196-0.095-0.344-0.095h-0.44h-1.771c-0.016,0.008-0.038,0.01-0.055,0.006c-0.021-0.003-0.035,0-0.054,0.006
			c-0.108,0.029-0.182,0.074-0.221,0.139c-0.014,0.037-0.027,0.088-0.037,0.157c-0.01,0.063-0.012,0.136-0.012,0.205v0.224v0.199
			v1.89v5.036v1.188c0,0.101,0.002,0.195,0.012,0.293c0.01,0.091,0.037,0.163,0.099,0.208c0.051,0.044,0.121,0.068,0.198,0.073
			c0.078,0.004,0.17,0.009,0.271,0.009h0.705c0.069,0,0.144,0,0.217,0.005c0.072,0.008,0.14,0,0.205-0.021
			c0.099-0.014,0.164-0.056,0.199-0.121c0.037-0.043,0.058-0.101,0.058-0.176V57.2v-0.663v-3.599c0.01-0.1,0.014-0.198,0.014-0.298
			v-0.299c0-0.07,0.006-0.181,0-0.247c-0.004-0.065,0-0.093,0-0.157c-0.004-0.089,0-0.13,0-0.193c0-0.063,0.024-0.171,0.111-0.16
			c0.028,0.003,0.043,0.01,0.063,0.025c0.021,0.012,0.035,0.028,0.055,0.045c0.055,0.08,0.102,0.185,0.146,0.31
			c0.01,0.021,0.014,0.035,0.029,0.06l1.772,5.088l0.004-0.002c0.021,0.064,0.043,0.135,0.074,0.201
			c0.038,0.081,0.065,0.151,0.098,0.209c0.022,0.058,0.076,0.106,0.147,0.153c0.033,0.028,0.086,0.049,0.158,0.058
			c0.076,0.008,0.154,0.013,0.238,0.013c0.086,0,0.17,0,0.256-0.008c0.088-0.005,0.162-0.005,0.225-0.005h0.312
			c0.082,0.001,0.13,0,0.171-0.005c0.045-0.002,0.104-0.017,0.147-0.053c0.047-0.038,0.063-0.069,0.084-0.124
			c0.019-0.049,0.034-0.073,0.057-0.13l0.06-0.146l1.863-5.404v-0.011c0.018-0.045,0.032-0.094,0.063-0.144
			c0.027-0.048,0.045-0.077,0.082-0.135c0.004-0.01,0.01-0.025,0.023-0.046c0.016-0.018,0.084-0.056,0.11-0.048
			c0.054,0.018,0.062,0.027,0.076,0.097c0.012,0.073,0.012,0.216,0.008,0.285c-0.004,0.08,0.017,0.149,0.013,0.223
			c-0.009,0.08-0.009,0.154-0.009,0.226v0.346c0,0.111,0,0.236,0.013,0.358v3.477v0.689v0.229c0,0.075,0.02,0.133,0.057,0.176
			c0.033,0.057,0.076,0.087,0.129,0.096c0.049,0.013,0.107,0.021,0.18,0.043h0.367h0.65c0.094,0,0.186-0.005,0.27-0.01
			c0.078-0.004,0.146-0.028,0.201-0.072c0.057-0.045,0.086-0.117,0.086-0.208c0.006-0.098,0.01-0.192,0.01-0.293v-1.175v-5.032
			v-2.03v-0.45C170.34,48.309,170.287,48.205,170.189,48.152"/>
		<path fill="#FF4833" d="M159.195,51.064c-0.004-0.104-0.037-0.176-0.1-0.223c-0.052-0.043-0.123-0.067-0.197-0.074
			c-0.076-0.005-0.162-0.005-0.265-0.005h-0.688c-0.082,0-0.161,0-0.237,0.005c-0.078,0.007-0.146,0.027-0.197,0.063
			c-0.034,0.037-0.063,0.079-0.077,0.126c-0.004,0.03-0.004,0.05-0.007,0.089c-0.026,0.161-0.086,0.292-0.202,0.306
			c-0.066,0.008-0.13-0.022-0.175-0.079c-0.036-0.022-0.063-0.049-0.092-0.076c-0.043-0.043-0.097-0.092-0.149-0.133
			c-0.037-0.03-0.066-0.054-0.095-0.076c-0.03-0.024-0.06-0.042-0.082-0.063c-0.114-0.073-0.246-0.141-0.389-0.19
			c-0.103-0.063-0.291-0.112-0.531-0.135c-0.123-0.021-0.248-0.025-0.392-0.025h-0.032c-0.093,0-0.183,0.004-0.272,0.01
			c-0.005,0-0.017,0-0.017,0c-0.299,0.022-0.541,0.073-0.666,0.148c-0.08,0.025-0.16,0.059-0.229,0.086
			c-0.129,0.054-0.25,0.12-0.367,0.19c-0.043,0.025-0.092,0.057-0.135,0.088c-0.049,0.032-0.096,0.064-0.137,0.102l-0.08,0.08
			c-0.043,0.037-0.094,0.078-0.143,0.126c-0.051,0.043-0.088,0.087-0.117,0.133c-0.063,0.083-0.125,0.16-0.18,0.234
			c-0.06,0.079-0.113,0.164-0.158,0.252c-0.088,0.143-0.16,0.297-0.219,0.461c-0.021,0.054-0.039,0.109-0.058,0.165
			c-0.1,0.22-0.17,0.535-0.209,0.907c-0.008,0.025-0.008,0.051-0.008,0.075v0.003c-0.013,0.109-0.017,0.22-0.021,0.339v0.071v0.023
			v0.055c0,0.63,0.097,1.186,0.246,1.506c0.008,0.019,0.017,0.039,0.027,0.06c0.162,0.387,0.361,0.719,0.602,0.995
			c0.234,0.274,0.545,0.488,0.937,0.643c0.103,0.046,0.207,0.079,0.328,0.101c0.112,0.023,0.237,0.048,0.366,0.075
			c0.031,0.011,0.066,0.014,0.099,0.014s0.063,0.008,0.09,0.013h0.107c0.047,0.013,0.118,0.015,0.215,0.015
			c0.101,0,0.172-0.002,0.217-0.015c0.045-0.005,0.095-0.016,0.144-0.021c0.047-0.004,0.104-0.012,0.156-0.018
			c0.104-0.029,0.213-0.057,0.309-0.082c0.1-0.03,0.203-0.062,0.299-0.109c0.102-0.043,0.189-0.094,0.268-0.146
			c0.084-0.056,0.164-0.112,0.246-0.176c0.029-0.021,0.053-0.041,0.078-0.066c0.021-0.018,0.043-0.041,0.068-0.058
			c0.023-0.021,0.051-0.039,0.088-0.044c0.061-0.022,0.113-0.021,0.164,0.005c0.094,0.056,0.105,0.165,0.094,0.334
			c0,0.015-0.004,0.053-0.004,0.073c-0.004,0.035-0.008,0.07-0.008,0.104c0,0.1-0.023,0.183-0.027,0.279
			c-0.008,0.093-0.018,0.181-0.035,0.265c-0.016,0.063-0.031,0.12-0.037,0.174c-0.012,0.053-0.024,0.107-0.039,0.162
			c-0.086,0.182-0.188,0.339-0.313,0.473c-0.08,0.086-0.17,0.159-0.275,0.223c-0.041,0.028-0.094,0.059-0.152,0.083
			c-0.02,0.009-0.03,0.016-0.045,0.021c-0.028,0.018-0.059,0.021-0.082,0.026c-0.11,0.035-0.239,0.062-0.381,0.077
			c-0.258,0.029-0.387,0.015-0.655-0.029c-0.104-0.012-0.209-0.061-0.318-0.116c-0.049-0.021-0.09-0.043-0.125-0.068
			c-0.055-0.038-0.104-0.077-0.151-0.119c-0.008-0.005-0.017-0.011-0.019-0.017c-0.002,0-0.01-0.002-0.01-0.002
			c-0.052-0.062-0.104-0.114-0.14-0.178c-0.012-0.013-0.02-0.022-0.031-0.034c-0.067-0.099-0.122-0.177-0.157-0.238
			c-0.035-0.056-0.125-0.104-0.271-0.139c-0.047,0-0.082-0.008-0.113-0.01c-0.035-0.005-0.072-0.007-0.117-0.007h-0.459
			c-0.104,0-0.211-0.001-0.316-0.005c-0.115-0.007-0.219,0-0.305,0.021c-0.094,0.018-0.162,0.054-0.211,0.113
			c-0.053,0.058-0.059,0.146-0.033,0.264c0.008,0.017,0.012,0.041,0.012,0.066c0,0.029,0.012,0.054,0.027,0.081
			c0.127,0.372,0.326,0.665,0.598,0.887c0.271,0.221,0.572,0.402,0.918,0.545c0.08,0.038,0.162,0.069,0.25,0.095
			c0.086,0.016,0.17,0.038,0.265,0.058c0.014,0.007,0.024,0.013,0.043,0.016c0.217,0.051,0.526,0.087,0.877,0.091
			c0.021,0.004,0.032,0.004,0.053,0.004h0.017h0.035c0.358,0,0.684-0.031,0.92-0.081c0.094-0.013,0.194-0.028,0.287-0.053
			c0.106-0.031,0.215-0.059,0.311-0.086c0.1-0.024,0.199-0.06,0.301-0.107c0.34-0.144,0.631-0.326,0.871-0.554
			c0.238-0.227,0.432-0.509,0.588-0.854c0.045-0.101,0.08-0.205,0.104-0.315c0.021-0.114,0.049-0.232,0.086-0.357
			c0.011-0.073,0.021-0.139,0.021-0.196c0.004-0.063,0.015-0.125,0.022-0.196c0-0.069,0-0.14,0.004-0.21
			c0.003-0.066,0.003-0.137,0.003-0.21v-5.774C159.197,51.274,159.197,51.169,159.195,51.064 M157.389,54.312
			c-0.01,0.141-0.022,0.274-0.057,0.399c-0.021,0.124-0.055,0.229-0.092,0.308c-0.088,0.229-0.201,0.421-0.344,0.587
			c-0.14,0.16-0.324,0.288-0.547,0.377c-0.076,0.035-0.144,0.061-0.216,0.066c0,0-0.008,0-0.01,0.002
			c-0.063,0.019-0.133,0.029-0.203,0.035c-0.01,0.002-0.012,0.002-0.021,0.005h-0.019c-0.043,0-0.084,0.006-0.131,0.006
			c-0.021,0.005-0.041,0.005-0.065,0c-0.008,0-0.017,0-0.023-0.006c-0.061,0-0.121-0.008-0.178-0.018h-0.025
			c-0.021-0.003-0.037-0.005-0.053-0.012c-0.09-0.018-0.166-0.047-0.236-0.076c-0.029-0.015-0.063-0.028-0.092-0.042
			c-0.209-0.108-0.371-0.252-0.488-0.431c-0.117-0.174-0.213-0.378-0.295-0.614c-0.014-0.043-0.021-0.084-0.029-0.124
			c-0.018-0.088-0.037-0.182-0.049-0.278c-0.004-0.005-0.004-0.011-0.008-0.018v-0.014c-0.006-0.076-0.014-0.165-0.018-0.255
			c-0.014-0.092-0.014-0.201-0.008-0.326c0.008-0.132,0.02-0.24,0.032-0.333c0.009-0.07,0.021-0.138,0.033-0.198v-0.007
			c0-0.028,0.013-0.064,0.029-0.108v-0.003c0.032-0.123,0.069-0.227,0.114-0.305c0.06-0.128,0.123-0.241,0.195-0.356
			c0.125-0.199,0.309-0.346,0.541-0.445c0.012-0.005,0.027-0.012,0.039-0.016c0.137-0.071,0.344-0.114,0.566-0.114
			c0.16,0,0.305,0.021,0.422,0.057c0.199,0.041,0.373,0.109,0.498,0.209c0.24,0.171,0.42,0.413,0.543,0.729
			c0.029,0.057,0.049,0.113,0.072,0.175c0.014,0.065,0.033,0.127,0.053,0.191c0.004,0.021,0.008,0.044,0.008,0.061
			c0.01,0.048,0.016,0.096,0.025,0.144c0.021,0.104,0.037,0.214,0.037,0.338C157.4,54.034,157.398,54.174,157.389,54.312"/>
		<path fill="#FF4833" d="M177.783,53.683c-0.025-0.193-0.066-0.369-0.105-0.508c-0.049-0.2-0.131-0.43-0.234-0.665
			c-0.028-0.071-0.065-0.149-0.104-0.22c-0.008-0.015-0.021-0.026-0.025-0.041c-0.114-0.209-0.241-0.4-0.36-0.556
			c-0.008-0.009-0.017-0.02-0.021-0.026c-0.004,0-0.006-0.004-0.006-0.004c-0.096-0.118-0.193-0.214-0.281-0.284
			c-0.012-0.01-0.026-0.021-0.037-0.029c-0.077-0.069-0.161-0.128-0.243-0.182c-0.265-0.181-0.56-0.326-0.888-0.439
			c0,0-0.002,0-0.008-0.003c-0.227-0.093-0.615-0.155-1.055-0.155c0,0-0.018,0.003-0.025,0.003h-0.098h-0.004
			c-0.084,0.002-0.164,0.007-0.242,0.012c-0.051,0.003-0.104,0.006-0.158,0.019c-0.012,0-0.022,0.001-0.029,0.003
			c-0.147,0.022-0.284,0.048-0.389,0.082c-0.129,0.021-0.256,0.063-0.381,0.112c-0.928,0.392-1.586,1.052-1.975,1.99
			c-0.033,0.08-0.063,0.168-0.092,0.257c-0.078,0.247-0.137,0.552-0.16,0.896l-0.006,0.024v0.022
			c-0.004,0.066-0.008,0.136-0.008,0.205c0,0.015,0,0.027,0,0.045v0.051c0,0.574,0.1,1.088,0.252,1.424
			c0.021,0.092,0.063,0.182,0.096,0.269c0.145,0.314,0.332,0.593,0.555,0.833c0.227,0.235,0.48,0.448,0.771,0.629
			c0.072,0.047,0.149,0.081,0.235,0.112c0.078,0.029,0.38,0.152,0.513,0.192c0.106,0.037,0.229,0.066,0.369,0.092
			c0.01,0.005,0.02,0.006,0.028,0.006c0.158,0.034,0.317,0.046,0.431,0.05c0.082,0.005,0.161,0.009,0.245,0.009h0.07h0.024
			c0.91-0.054,1.056-0.143,1.513-0.301c0.297-0.109,0.353-0.16,0.563-0.312c0.25-0.181,0.475-0.42,0.674-0.716
			c0.069-0.097,0.137-0.198,0.19-0.298s0.104-0.211,0.146-0.342c0.017-0.04,0.025-0.098,0.021-0.157c0-0.025-0.004-0.049-0.01-0.066
			c-0.019-0.084-0.074-0.143-0.146-0.143h-0.296c-0.024-0.005-0.059-0.005-0.088-0.003c-0.012,0.002-0.022,0.002-0.032,0.003h-0.451
			c-0.021-0.001-0.047-0.001-0.068-0.003c-0.043,0-0.08,0-0.117,0.003h-0.084c-0.057,0-0.205,0.048-0.291,0.159
			c-0.031,0.038-0.068,0.085-0.1,0.119c-0.051,0.063-0.078,0.096-0.135,0.153c-0.07,0.076-0.082,0.079-0.191,0.152
			c-0.117,0.07-0.221,0.133-0.309,0.174c-0.004,0.004-0.004,0.004-0.004,0.004c-0.101,0.054-0.238,0.093-0.402,0.121
			c-0.021,0.004-0.043,0.013-0.068,0.014h-0.035c-0.063,0.008-0.123,0.013-0.184,0.013c-0.068,0.008-0.145,0.008-0.229,0h-0.005
			c-0.276-0.013-0.514-0.064-0.666-0.144c-0.028-0.013-0.055-0.027-0.084-0.043c-0.186-0.11-0.321-0.232-0.428-0.376
			c-0.103-0.139-0.203-0.31-0.274-0.525c-0.004-0.007-0.021-0.048-0.021-0.06c-0.016-0.051-0.018-0.093-0.031-0.172
			c0-0.037-0.008-0.069-0.008-0.101c-0.002-0.03,0-0.065,0.008-0.1c0.008-0.049,0.023-0.087,0.047-0.104
			c0.002-0.012,0.01-0.021,0.021-0.026c0.016-0.037,0.059-0.073,0.135-0.109c0.043-0.016,0.094-0.027,0.153-0.027h0.187h3.3
			c0.077,0,0.172,0.002,0.274,0.008c0.104,0.005,0.209,0.005,0.313,0c0.103-0.006,0.195-0.015,0.277-0.027
			c0.088-0.014,0.158-0.036,0.199-0.071c0.047-0.028,0.08-0.089,0.096-0.176c0.014-0.066,0.027-0.285,0.018-0.343
			C177.83,53.932,177.813,53.892,177.783,53.683 M175.768,53.385c-0.047,0.073-0.137,0.112-0.271,0.115
			c-0.146,0.007-0.276,0.007-0.401,0.007h-1.507h-0.36c-0.127,0-0.228-0.022-0.297-0.065c-0.048-0.037-0.076-0.081-0.086-0.139
			c-0.017-0.054-0.017-0.108-0.011-0.164c0.011-0.062,0.029-0.123,0.049-0.18c0.021-0.061,0.039-0.105,0.06-0.144
			c0.19-0.365,0.479-0.615,0.883-0.742c0.041-0.019,0.094-0.032,0.152-0.046c0.061-0.02,0.192-0.036,0.231-0.041
			c0.037-0.004,0.601-0.072,0.97,0.217c0.188,0.152,0.375,0.318,0.5,0.561c0.022,0.062,0.063,0.16,0.112,0.293
			C175.84,53.186,175.832,53.295,175.768,53.385"/>
		<path fill="#FF4833" d="M186.297,45.008c-4.432,0-8.031,3.596-8.031,8.027c0,4.434,3.601,8.028,8.031,8.028
			c4.432,0,8.023-3.596,8.023-8.028C194.32,48.603,190.729,45.008,186.297,45.008 M183.543,57.679
			c-0.033,0.063-0.119,0.11-0.242,0.146c-0.063,0.021-0.133,0.025-0.205,0.013c-0.072-0.006-0.146-0.013-0.215-0.013h-0.799
			c-0.098,0-0.191-0.003-0.277-0.014c-0.086-0.007-0.158-0.034-0.211-0.078c-0.041-0.048-0.074-0.112-0.08-0.204
			c-0.008-0.089-0.016-0.187-0.016-0.283v-1.178v-4.938v-1.975c0-0.125,0-0.274-0.006-0.443c0-0.174,0.018-0.293,0.063-0.363
			c0.037-0.06,0.092-0.104,0.176-0.142c0.027,0,0.054,0,0.074-0.006c0.021-0.004,0.039-0.008,0.064-0.008h1.16
			c0.1,0,0.195,0.004,0.283,0.008c0.09,0.006,0.155,0.042,0.201,0.103c0.047,0.063,0.071,0.146,0.075,0.241
			c0.004,0.102,0.009,0.21,0.009,0.327v1.177v4.693v2.214c0,0.122,0,0.249,0.004,0.396
			C183.605,57.498,183.586,57.607,183.543,57.679 M191.471,53.606v1.204v2.19c0,0.17-0.004,0.341-0.008,0.493
			c-0.01,0.159-0.072,0.261-0.191,0.303c-0.061,0.02-0.121,0.028-0.192,0.028h-0.22h-0.727c-0.109,0-0.205-0.005-0.289-0.017
			c-0.088-0.018-0.158-0.055-0.201-0.119c-0.035-0.054-0.055-0.121-0.061-0.208c-0.004-0.084-0.006-0.176-0.006-0.277v-0.946v-2.015
			c0-0.335-0.016-0.646-0.041-0.929c-0.027-0.281-0.111-0.524-0.242-0.724c-0.107-0.149-0.254-0.264-0.445-0.343
			c-0.127-0.063-0.328-0.104-0.557-0.104c-0.262,0-0.494,0.058-0.609,0.141c-0.092,0.035-0.17,0.079-0.244,0.132
			c-0.287,0.205-0.459,0.507-0.514,0.904c-0.053,0.4-0.08,0.845-0.08,1.337v1.694v0.822v0.245c0,0.078-0.012,0.146-0.039,0.201
			c-0.043,0.1-0.119,0.159-0.221,0.174c-0.096,0.02-0.217,0.028-0.363,0.028h-0.676c-0.098,0-0.197-0.003-0.295-0.014
			c-0.102-0.008-0.174-0.037-0.219-0.097c-0.062-0.079-0.092-0.192-0.088-0.348s0.01-0.301,0.01-0.433v-1.844v-2.973V51.43
			c0-0.101,0-0.189,0.002-0.271c0.004-0.081,0.031-0.145,0.076-0.203c0.021-0.024,0.045-0.046,0.09-0.059
			c0.039-0.014,0.084-0.028,0.129-0.034h0.066c0.045-0.01,0.092-0.012,0.141-0.012h0.146h0.565c0.069,0,0.142,0,0.207,0.005
			c0.067,0.005,0.129,0.013,0.185,0.033c0.063,0.024,0.104,0.065,0.129,0.125c0.018,0.046,0.018,0.097,0.035,0.156
			c0.036,0.156,0.08,0.326,0.194,0.339c0.051,0.009,0.104-0.015,0.149-0.059c0.021-0.015,0.076-0.073,0.097-0.094
			c0.062-0.079,0.183-0.188,0.26-0.234c0.052-0.037,0.093-0.063,0.132-0.092c0.133-0.088,0.323-0.176,0.561-0.242
			c0,0,0.014-0.004,0.025-0.008c0.071-0.026,0.147-0.043,0.229-0.051c0.037-0.008,0.067-0.015,0.104-0.021
			c0.297-0.051,0.58-0.06,0.795-0.035c0.379,0.022,0.705,0.101,0.976,0.231c0.364,0.168,0.651,0.421,0.854,0.755
			c0.065,0.099,0.116,0.208,0.151,0.317c0.035,0.108,0.072,0.227,0.106,0.342c0.017,0.076,0.029,0.14,0.033,0.207
			c0.006,0.063,0.021,0.126,0.033,0.188c0,0.057,0.008,0.089,0.018,0.106c0.019,0.128,0.025,0.259,0.025,0.396v0.39H191.471z"/>
		<path fill="#FF4833" d="M145.412,42.991c0.016,0.053,0.027,0.148,0.027,0.275c0,0.132-0.006,0.224-0.017,0.276
			c0,0.044,0,0.082-0.002,0.114c-0.01,0.033-0.01,0.071-0.01,0.114c-0.019,0.07-0.027,0.142-0.027,0.209s-0.012,0.139-0.028,0.211
			c0,0.036-0.006,0.1-0.025,0.188c-0.025,0.104-0.051,0.22-0.072,0.331c-0.023,0.109-0.059,0.216-0.104,0.315
			c-0.162,0.405-0.365,0.756-0.607,1.055c-0.242,0.295-0.561,0.528-0.955,0.697c-0.08,0.038-0.168,0.064-0.254,0.09
			c-0.082,0.022-0.174,0.045-0.271,0.076c-0.055,0.018-0.11,0.025-0.17,0.025c-0.059,0-0.117,0.005-0.172,0.013h-0.117
			c-0.055,0.021-0.129,0.025-0.219,0.021c-0.092-0.004-0.158-0.016-0.215-0.031h-0.084c-0.045-0.01-0.096-0.02-0.148-0.021
			c-0.051-0.003-0.104-0.011-0.157-0.02c-0.17-0.045-0.332-0.094-0.474-0.137c-0.143-0.043-0.281-0.108-0.403-0.188
			c-0.056-0.038-0.107-0.069-0.158-0.107c-0.047-0.038-0.097-0.077-0.144-0.122c-0.021-0.018-0.049-0.035-0.076-0.056
			c-0.028-0.016-0.055-0.03-0.088-0.038c-0.073-0.028-0.129-0.01-0.143,0.056c-0.045,0.063-0.074,0.136-0.088,0.22
			c-0.016,0.087-0.049,0.15-0.104,0.195c-0.053,0.036-0.117,0.059-0.191,0.063c-0.07,0.004-0.15,0.005-0.238,0.005h-0.648
			c-0.063,0-0.133,0.002-0.194,0.007c-0.069,0.002-0.127-0.003-0.183-0.021c-0.125-0.043-0.194-0.128-0.209-0.25
			c-0.016-0.119-0.02-0.258-0.02-0.411v-8.23v-0.312c0-0.108,0.02-0.192,0.063-0.256c0.041-0.063,0.104-0.103,0.191-0.122
			c0.02-0.009,0.037-0.012,0.063-0.006c0.021,0.006,0.038,0.002,0.057-0.008h0.854c0.162,0,0.301,0.008,0.414,0.021
			c0.117,0.015,0.197,0.082,0.233,0.21c0.025,0.089,0.033,0.207,0.025,0.356c-0.013,0.147-0.013,0.275-0.013,0.383v1.473v0.298
			c0,0.098,0.004,0.185,0.021,0.255c0.008,0.046,0.023,0.086,0.033,0.117c0.008,0.03,0.031,0.051,0.064,0.061
			c0.018,0.019,0.043,0.023,0.071,0.023c0.037,0,0.062-0.003,0.08-0.011c0.062-0.038,0.117-0.073,0.174-0.114
			c0.054-0.041,0.111-0.083,0.177-0.13c0.114-0.079,0.235-0.147,0.36-0.209c0.127-0.059,0.265-0.108,0.422-0.155
			c0.07-0.024,0.14-0.043,0.213-0.049c0.072-0.001,0.146-0.014,0.22-0.034c0.057-0.017,0.131-0.023,0.201-0.023h0.213h0.139
			c0.023,0.008,0.059,0.008,0.092,0.006c0.037-0.004,0.07,0,0.107,0.009c0.098,0.026,0.194,0.044,0.278,0.06
			c0.087,0.017,0.169,0.038,0.248,0.074c0.412,0.172,0.75,0.393,1.013,0.662c0.264,0.271,0.479,0.607,0.662,1.008
			c0.045,0.112,0.086,0.226,0.118,0.343c0.029,0.116,0.06,0.235,0.101,0.363c0.014,0.063,0.027,0.123,0.031,0.181
			c0.004,0.06,0.014,0.125,0.032,0.196c0.017,0.047,0.022,0.095,0.021,0.147c-0.008,0.055-0.006,0.108,0.007,0.163L145.412,42.991
			L145.412,42.991z M143.416,44.258c0.027-0.089,0.049-0.199,0.072-0.337c0.023-0.134,0.033-0.271,0.041-0.41
			c0.006-0.141,0.006-0.277,0-0.418c-0.008-0.139-0.018-0.26-0.047-0.358c-0.027-0.09-0.047-0.176-0.055-0.258
			c-0.007-0.078-0.029-0.154-0.066-0.227c-0.129-0.316-0.301-0.582-0.535-0.803c-0.227-0.222-0.563-0.331-1.006-0.331
			c-0.033,0-0.066,0.001-0.092,0.007c-0.029,0.003-0.06,0.006-0.095,0.006c-0.065,0.018-0.125,0.032-0.174,0.046
			c-0.055,0.018-0.108,0.03-0.166,0.052c-0.262,0.114-0.459,0.275-0.594,0.488c-0.136,0.212-0.244,0.453-0.334,0.727
			c-0.033,0.068-0.048,0.145-0.052,0.219c-0.004,0.077-0.016,0.15-0.032,0.226c-0.009,0.024-0.013,0.07-0.013,0.134
			c-0.01,0.036-0.012,0.074-0.008,0.107c0.002,0.037,0.002,0.073-0.004,0.106c-0.021,0.075-0.025,0.171-0.018,0.3
			c0.012,0.123,0.023,0.215,0.041,0.269c0.018,0.081,0.029,0.155,0.033,0.228c0.004,0.074,0.018,0.146,0.051,0.217
			c0.074,0.255,0.178,0.471,0.289,0.657c0.115,0.183,0.27,0.338,0.477,0.466c0.15,0.089,0.291,0.152,0.447,0.188
			c0.018,0,0.041,0.002,0.061,0.008c0.019,0.002,0.047,0.006,0.076,0.006c0.025,0.007,0.07,0.017,0.133,0.021
			c0.063,0.001,0.117,0.001,0.162-0.01c0.09-0.017,0.174-0.033,0.248-0.046c0.08-0.012,0.15-0.032,0.225-0.061
			c0.25-0.117,0.445-0.279,0.586-0.486C143.211,44.781,143.324,44.537,143.416,44.258"/>
		<path fill="#FF4833" d="M145.691,39.833h1.024h0.267c0.096,0,0.172,0.021,0.233,0.053c0.111,0.072,0.183,0.188,0.222,0.34
			c0.043,0.152,0.082,0.293,0.127,0.418c0.047,0.106,0.088,0.222,0.115,0.34c0.034,0.113,0.067,0.229,0.112,0.334
			c0.071,0.207,0.146,0.411,0.207,0.616c0.06,0.2,0.129,0.4,0.201,0.602l0.282,0.847c0.029,0.082,0.052,0.168,0.074,0.252
			c0.021,0.085,0.051,0.168,0.088,0.249c0.023,0.071,0.056,0.154,0.09,0.243c0.029,0.09,0.097,0.128,0.195,0.119
			c0.014-0.017,0.033-0.028,0.045-0.036c0.017,0,0.031-0.013,0.045-0.026c0.029-0.048,0.056-0.096,0.07-0.139
			c0.018-0.046,0.037-0.09,0.059-0.134c0.043-0.099,0.078-0.205,0.104-0.317c0.026-0.113,0.058-0.224,0.093-0.33
			c0.129-0.377,0.25-0.752,0.368-1.121c0.115-0.37,0.234-0.74,0.361-1.121c0.045-0.124,0.088-0.25,0.112-0.369
			c0.029-0.12,0.072-0.241,0.113-0.357c0.029-0.071,0.055-0.141,0.076-0.21c0.023-0.067,0.068-0.124,0.131-0.168
			c0.053-0.043,0.121-0.067,0.199-0.075c0.084-0.001,0.174-0.006,0.271-0.006h0.821c0.093,0,0.175,0.005,0.261,0.014
			c0.078,0.007,0.139,0.037,0.188,0.083c0.054,0.062,0.06,0.144,0.024,0.24c-0.018,0.071-0.039,0.146-0.067,0.218
			c-0.028,0.069-0.056,0.146-0.08,0.215c-0.125,0.313-0.25,0.637-0.364,0.966c-0.119,0.328-0.236,0.651-0.363,0.967
			c-0.056,0.132-0.105,0.271-0.148,0.407c-0.047,0.142-0.098,0.28-0.146,0.413c-0.045,0.125-0.094,0.248-0.137,0.366
			c-0.047,0.114-0.092,0.234-0.137,0.364c-0.18,0.448-0.344,0.899-0.508,1.354c-0.156,0.452-0.322,0.901-0.504,1.34
			c-0.027,0.065-0.049,0.125-0.057,0.179c-0.019,0.055-0.035,0.109-0.064,0.16c-0.072,0.171-0.143,0.336-0.201,0.499
			c-0.064,0.163-0.131,0.32-0.201,0.467c-0.074,0.147-0.162,0.285-0.258,0.411c-0.098,0.126-0.223,0.235-0.369,0.337
			c-0.111,0.082-0.242,0.146-0.381,0.196c-0.141,0.051-0.289,0.099-0.453,0.143c-0.068,0.019-0.143,0.028-0.217,0.028
			c-0.07,0-0.143,0.008-0.215,0.025h-0.35h-0.259c-0.101,0-0.192-0.005-0.289-0.015c-0.096-0.01-0.185-0.019-0.256-0.031
			c-0.074-0.017-0.129-0.033-0.17-0.063c-0.045-0.035-0.07-0.079-0.082-0.128c-0.017-0.048-0.037-0.11-0.056-0.181v-0.324V48
			c0-0.172,0.058-0.279,0.164-0.323c0.045-0.021,0.105-0.03,0.183-0.035c0.076,0,0.142,0,0.194,0.022h0.334h0.162
			c0.039-0.013,0.076-0.016,0.111-0.016c0.037,0,0.072-0.008,0.111-0.028c0.275-0.079,0.455-0.265,0.535-0.55
			c0.02-0.037,0.039-0.092,0.053-0.163c0.021-0.074,0.021-0.135,0-0.188c-0.014-0.046-0.023-0.092-0.023-0.135
			c0-0.044-0.01-0.092-0.029-0.137c-0.053-0.178-0.108-0.357-0.176-0.533c-0.055-0.175-0.131-0.349-0.199-0.519
			c-0.069-0.174-0.139-0.344-0.194-0.516c-0.06-0.169-0.121-0.34-0.196-0.513c-0.046-0.109-0.082-0.217-0.115-0.323
			c-0.029-0.109-0.072-0.216-0.113-0.321c-0.145-0.345-0.273-0.694-0.396-1.056c-0.121-0.356-0.258-0.709-0.402-1.051
			c-0.016-0.035-0.022-0.067-0.022-0.088c0-0.025-0.01-0.05-0.026-0.077c-0.072-0.159-0.135-0.324-0.185-0.492
			c-0.051-0.165-0.11-0.325-0.18-0.479c-0.021-0.055-0.048-0.13-0.087-0.234c-0.045-0.104-0.047-0.191-0.022-0.262
			c0.025-0.074,0.084-0.12,0.177-0.138c0.02-0.009,0.03-0.009,0.047-0.008C145.656,39.846,145.676,39.843,145.691,39.833"/>
	</g>
</g>
</svg>
