<?xml version="1.0" encoding="utf-8"?>
<!-- Generator: Adobe Illustrator 16.0.0, SVG Export Plug-In . SVG Version: 6.00 Build 0)  -->
<!DOCTYPE svg PUBLIC "-//W3C//DTD SVG 1.1//EN" "http://www.w3.org/Graphics/SVG/1.1/DTD/svg11.dtd">
<svg version="1.1" id="Capa_1" xmlns="http://www.w3.org/2000/svg" xmlns:xlink="http://www.w3.org/1999/xlink" x="0px" y="0px"
	 width="24.875px" height="55.25px" viewBox="0 0 24.875 55.25" enable-background="new 0 0 24.875 55.25" xml:space="preserve">
<g>
	<g>
		<path fill="#FFFFFF" d="M12.349,55.25c0,0,0,0-0.002,0c-4.494,0-7.088-0.879-7.195-0.916l-0.343-0.095l-0.029-0.342
			c-0.023-0.271-2.271-26.17-2.957-31.004c-0.477-0.002-1.216-0.019-1.355-0.603c-0.105-0.438,0.23-0.713,0.485-0.869
			c0.058-0.129,0.116-0.271,0.165-0.388c-0.102-0.15-0.209-0.382-0.15-0.679c0.072-0.364,0.365-0.631,0.676-0.832
			c0.22-2.461,0.558-2.607,0.807-2.715c0.353-0.156,6.201-0.925,11.979-0.925c3.489,0,6.324,0.278,8.422,0.83l0.355,0.092
			l0.453,2.492c0.272,0.132,0.614,0.372,0.752,0.774c0.071,0.21,0.104,0.521-0.08,0.886c0.051,0.151,0.099,0.285,0.129,0.354
			c0,0,0.004,0.004,0.006,0.006c0.1,0.095,0.401,0.381,0.266,0.781c-0.141,0.424-0.611,0.479-0.766,0.497
			c-0.148,0.019-0.281,0.031-0.401,0.044L20.883,54.33l-0.407,0.022C17.706,54.994,14.971,55.25,12.349,55.25z M5.89,53.44
			c0.814,0.241,3.086,0.81,6.457,0.81h0.002c2.408,0,4.916-0.286,7.464-0.848l2.691-31.828l0.49-0.035
			c0.071-0.004,0.179-0.013,0.316-0.025c-0.043-0.12-0.096-0.271-0.152-0.465l-0.086-0.278l0.175-0.235
			c0.04-0.049,0.059-0.085,0.067-0.105c-0.057-0.058-0.215-0.138-0.313-0.165l-0.348-0.094l-0.446-2.438
			c-1.969-0.468-4.582-0.704-7.78-0.704c-5.203,0-10.258,0.627-11.379,0.813c-0.107,0.387-0.23,1.307-0.289,2.068l-0.025,0.306
			l-0.269,0.149C2.331,20.44,2.24,20.5,2.179,20.545c0.089,0.135,0.19,0.345,0.112,0.607c-0.042,0.141-0.146,0.396-0.234,0.604
			c0.086-0.002,0.164-0.006,0.228-0.009l0.503-0.022l0.088,0.494C3.427,25.275,5.582,49.922,5.89,53.44z"/>
		<path fill="#FFFFFF" d="M23.981,21.639c-0.084-0.13-0.276-0.757-0.276-0.757c0.64-0.845-0.553-1.169-0.553-1.169l-0.448-2.444
			c-6.852-1.797-19.729-0.065-20.027,0.063c-0.297,0.129-0.487,2.531-0.487,2.531c-1.214,0.672-0.384,0.909-0.449,1.125
			c-0.063,0.218-0.338,0.846-0.338,0.846c-1.062,0.539,0.389,0.511,0.909,0.485c0.585,3.232,3.04,31.547,3.04,31.547
			s5.743,2.142,14.995,0l2.687-31.757c0.136-0.008,0.452-0.033,0.864-0.08C24.45,21.964,24.068,21.769,23.981,21.639z"/>
		<path d="M7.96,5.254c0.319,0.257,0.65,0.445,0.956,0.645c0.592,0.392,1.248,0.773,1.691,1.244
			c0.232,0.233,0.422,0.495,0.591,0.736c0.167,0.244,0.308,0.478,0.396,0.721c0.176,0.476,0.146,0.931,0.053,1.449
			c-0.182,1.063-0.831,2.246-1.471,3.549l0.107,0.127c0.722-0.257,1.33-0.69,1.876-1.223c0.537-0.54,0.997-1.207,1.229-2.047
			c0.241-0.821,0.089-1.846-0.39-2.591c-0.463-0.772-1.187-1.229-1.89-1.492c-0.354-0.146-0.718-0.249-1.02-0.376
			c-0.313-0.133-0.602-0.308-0.851-0.53C8.732,5.029,8.505,4.322,8.562,3.913C8.583,3.706,8.619,3.536,8.69,3.308
			C8.767,3.093,8.896,2.846,9.063,2.6c0.324-0.504,0.762-1.02,1.205-1.616l-0.076-0.149C9.801,0.856,9.434,0.961,9.085,1.109
			C8.732,1.254,8.401,1.456,8.098,1.716C7.793,1.981,7.509,2.313,7.314,2.733C7.116,3.148,7.04,3.689,7.189,4.166
			C7.34,4.642,7.644,5,7.96,5.254z"/>
		<path d="M14.512,8.311c0.245,0.165,0.481,0.27,0.687,0.395c0.401,0.239,0.834,0.52,1.07,0.865
			c0.251,0.354,0.401,0.689,0.479,0.936c0.06,0.266,0.011,0.459-0.022,0.746c-0.032,0.277-0.129,0.632-0.249,1.026
			c-0.125,0.397-0.283,0.817-0.418,1.321l0.107,0.125c0.54-0.098,0.985-0.352,1.387-0.684c0.395-0.335,0.739-0.79,0.914-1.386
			c0.18-0.591,0.057-1.352-0.313-1.884c-0.344-0.555-0.885-0.841-1.387-0.977c-0.249-0.073-0.505-0.123-0.701-0.192
			c-0.202-0.071-0.388-0.181-0.538-0.333c-0.32-0.29-0.361-0.813-0.253-0.973c0.042-0.088,0.059-0.137,0.078-0.248
			c0.033-0.109,0.089-0.251,0.164-0.41c0.165-0.328,0.401-0.693,0.627-1.176L16.07,5.313c-0.285-0.039-0.543,0.002-0.796,0.076
			c-0.26,0.071-0.496,0.193-0.718,0.367c-0.222,0.175-0.431,0.4-0.578,0.71c-0.152,0.299-0.207,0.716-0.08,1.074
			C14.026,7.906,14.273,8.151,14.512,8.311z"/>
	</g>
	<path d="M2.77,22.867l3.376,30.498c0,0,8.975,1.486,13.429-0.403l3.101-30.228L2.77,22.867z"/>
</g>
</svg>
