<?xml version="1.0" encoding="utf-8"?>
<!-- Generator: Adobe Illustrator 16.0.0, SVG Export Plug-In . SVG Version: 6.00 Build 0)  -->
<!DOCTYPE svg PUBLIC "-//W3C//DTD SVG 1.1//EN" "http://www.w3.org/Graphics/SVG/1.1/DTD/svg11.dtd">
<svg version="1.1" id="Capa_1" xmlns="http://www.w3.org/2000/svg" xmlns:xlink="http://www.w3.org/1999/xlink" x="0px" y="0px"
	 width="38.833px" height="44.167px" viewBox="0 0 38.833 44.167" enable-background="new 0 0 38.833 44.167" xml:space="preserve">
<g>
	<path fill="#42210B" d="M7.743,4.572C8.01,4.791,8.293,4.951,8.555,5.12c0.5,0.332,1.06,0.657,1.435,1.058
		c0.196,0.197,0.359,0.419,0.503,0.625c0.139,0.208,0.262,0.405,0.336,0.612c0.149,0.404,0.126,0.789,0.044,1.231
		c-0.152,0.902-0.703,1.909-1.247,3.013l0.09,0.109c0.614-0.218,1.132-0.587,1.594-1.039c0.456-0.459,0.847-1.025,1.045-1.739
		c0.203-0.696,0.076-1.568-0.333-2.202c-0.393-0.654-1.007-1.042-1.604-1.266c-0.3-0.125-0.607-0.211-0.865-0.319
		C9.288,5.09,9.039,4.939,8.83,4.751C8.397,4.381,8.205,3.78,8.252,3.432c0.02-0.174,0.049-0.32,0.11-0.513
		c0.065-0.185,0.173-0.392,0.314-0.604c0.276-0.427,0.647-0.864,1.023-1.371L9.637,0.817C9.304,0.835,8.992,0.923,8.699,1.05
		C8.397,1.172,8.118,1.345,7.858,1.566C7.598,1.792,7.36,2.073,7.194,2.43C7.024,2.783,6.96,3.242,7.088,3.649
		C7.214,4.051,7.472,4.356,7.743,4.572z"/>
	<path fill="#42210B" d="M13.308,7.168c0.207,0.141,0.407,0.229,0.583,0.334c0.342,0.204,0.707,0.442,0.907,0.736
		c0.216,0.299,0.345,0.586,0.41,0.795c0.048,0.225,0.006,0.39-0.02,0.634c-0.029,0.236-0.114,0.537-0.213,0.872
		c-0.105,0.338-0.241,0.694-0.356,1.121l0.093,0.107c0.458-0.084,0.836-0.298,1.178-0.58c0.335-0.287,0.629-0.672,0.776-1.177
		c0.154-0.501,0.049-1.149-0.266-1.601c-0.291-0.473-0.752-0.716-1.178-0.831c-0.214-0.063-0.429-0.104-0.596-0.163
		c-0.173-0.062-0.329-0.153-0.456-0.283c-0.274-0.245-0.308-0.691-0.217-0.826c0.035-0.075,0.05-0.116,0.067-0.21
		c0.027-0.093,0.076-0.214,0.142-0.348C14.3,5.47,14.5,5.159,14.695,4.749l-0.063-0.127c-0.242-0.034-0.462,0.003-0.677,0.066
		C13.735,4.747,13.532,4.852,13.346,5c-0.189,0.146-0.367,0.341-0.492,0.604c-0.128,0.251-0.177,0.605-0.067,0.911
		C12.895,6.825,13.106,7.033,13.308,7.168z"/>
	<path fill="#FFFFFF" d="M32.599,26.677c-0.188,0-0.363,0.041-0.55,0.058c0.188-1.151,0.313-1.286,0.337-2.503
		c0,0.01-0.005,0.018-0.005,0.027c0.013-0.108,0.035-0.215,0.037-0.325c-0.289-6.06-7.572-9.532-15.779-9.604
		C8.432,14.402,1.15,17.875,0.857,23.934c0.006,0.11,0.033,0.217,0.038,0.325v-0.002c0.242,10.855,7.191,19.564,15.742,19.564
		c4.684,0,8.88-2.626,11.764-6.77c1.027,1.169,2.516,1.914,4.198,1.914c3.104,0,5.623-3.559,5.623-6.666
		C38.222,29.201,35.704,26.677,32.599,26.677z M26.834,28.125c-2.521,1.434-6.189,2.388-10.264,2.383
		c-4.08,0.008-7.751-0.949-10.273-2.383c-2.559-1.457-3.762-3.237-3.74-4.814c-0.023-1.591,1.188-3.371,3.74-4.822
		c2.522-1.438,6.193-2.39,10.273-2.384c4.073-0.006,7.742,0.946,10.264,2.384c2.557,1.453,3.768,3.231,3.746,4.822
		C30.602,24.886,29.391,26.667,26.834,28.125z M32.599,35.919c-1.19-0.002-2.151-0.826-2.44-1.924
		c0.405-0.883,0.766-2.854,1.07-3.813c0.402-0.261,0.855-0.449,1.37-0.456c1.419,0.007,2.571,1.158,2.573,2.574
		C35.168,33.723,34.018,35.917,32.599,35.919z"/>
	<ellipse fill="#42210B" cx="16.232" cy="23.01" rx="14.421" ry="7.497"/>
	<ellipse fill="#8C6239" cx="16.231" cy="23.01" rx="12.529" ry="6.514"/>
	<ellipse fill="#C69C6D" cx="16.231" cy="23.01" rx="10.143" ry="5.272"/>
	<path fill="#C7B299" d="M31.898,23.755c0.583-0.473,0.948-1.098,0.948-1.792c0-0.936-0.654-1.756-1.635-2.228
		c0.084-0.308,0.143-0.629,0.143-0.964c0-2.051-1.664-3.714-3.713-3.714c-0.916,0-1.746,0.346-2.395,0.896
		c-0.004-2.057-1.668-3.718-3.726-3.718c-1.812,0-3.316,1.293-3.652,3.009c-0.389-0.109-0.789-0.187-1.209-0.187
		c-3.996,0-4.663,3.982-4.49,4.671c-0.006,0-0.011-0.002-0.019-0.002c-1.568,0-2.839,1.086-2.839,2.424
		c0,0.701,0.354,1.33,0.916,1.771c0,0-4.365,1.695-0.438,3.945c0,0-1.518,2.065,2.875,2.444
		C12.667,30.313,27.763,33.185,31.898,23.755z"/>
</g>
<g display="none">
	<path display="inline" fill="#FFFFFF" d="M10.098,4.542c0.273,0.217,0.563,0.375,0.83,0.542c0.512,0.329,1.082,0.652,1.466,1.049
		c0.199,0.196,0.366,0.415,0.513,0.62c0.143,0.206,0.268,0.401,0.343,0.609c0.153,0.399,0.128,0.779,0.045,1.22
		c-0.156,0.894-0.718,1.892-1.272,2.987l0.091,0.108c0.628-0.216,1.155-0.583,1.627-1.031c0.467-0.455,0.865-1.015,1.067-1.725
		c0.207-0.69,0.079-1.554-0.339-2.184c-0.401-0.648-1.029-1.033-1.639-1.254c-0.306-0.124-0.621-0.209-0.884-0.317
		c-0.27-0.109-0.522-0.261-0.737-0.446c-0.441-0.368-0.639-0.963-0.588-1.309c0.02-0.173,0.048-0.319,0.111-0.508
		c0.067-0.184,0.177-0.389,0.321-0.601c0.281-0.423,0.661-0.857,1.044-1.36l-0.063-0.126c-0.341,0.021-0.66,0.108-0.959,0.231
		c-0.308,0.122-0.593,0.293-0.857,0.513c-0.266,0.224-0.51,0.502-0.679,0.855c-0.173,0.351-0.24,0.806-0.109,1.21
		C9.56,4.025,9.822,4.327,10.098,4.542z"/>
	<path display="inline" fill="#FFFFFF" d="M15.781,7.117c0.211,0.139,0.415,0.225,0.595,0.331c0.349,0.201,0.722,0.439,0.927,0.73
		c0.222,0.297,0.352,0.581,0.419,0.788c0.049,0.223,0.005,0.387-0.02,0.63c-0.03,0.234-0.118,0.531-0.219,0.864
		c-0.107,0.335-0.246,0.688-0.363,1.111l0.096,0.108c0.468-0.084,0.854-0.295,1.201-0.574c0.343-0.286,0.643-0.668,0.793-1.169
		c0.158-0.497,0.05-1.139-0.271-1.585c-0.297-0.469-0.769-0.71-1.202-0.824c-0.219-0.064-0.438-0.105-0.609-0.163
		c-0.177-0.06-0.336-0.152-0.464-0.281c-0.281-0.242-0.315-0.685-0.221-0.82c0.034-0.074,0.051-0.114,0.068-0.208
		c0.028-0.091,0.077-0.211,0.144-0.344c0.14-0.276,0.344-0.585,0.542-0.992L17.131,4.59c-0.246-0.034-0.47,0.004-0.688,0.066
		c-0.226,0.058-0.433,0.163-0.623,0.309c-0.192,0.146-0.375,0.339-0.502,0.6c-0.13,0.25-0.18,0.601-0.068,0.903
		C15.359,6.776,15.575,6.981,15.781,7.117z"/>
	<path display="inline" fill="#FFFFFF" d="M32.431,26.818c-0.192,0-0.372,0.042-0.563,0.058c0.192-1.142,0.319-1.276,0.345-2.482
		c0,0.01-0.006,0.017-0.006,0.028c0.014-0.108,0.037-0.214,0.038-0.323c-0.294-6.009-7.73-9.453-16.111-9.523
		c-8.38,0.07-14.978,3.835-15.277,9.844c0.008,0.109,0-0.106,0,0.002v-0.002c0,10.767,6.943,19.402,15.675,19.402
		c4.781,0,8.868-2.603,11.812-6.713c1.049,1.159,2.468,1.898,4.186,1.898c3.17,0,5.692-3.53,5.692-6.611
		C38.222,29.32,35.6,26.818,32.431,26.818z M26.544,28.251c-2.573,1.422-6.32,2.368-10.479,2.365
		c-4.166,0.007-7.913-0.943-10.488-2.365c-2.613-1.443-3.841-3.21-3.82-4.773c-0.022-1.577,1.214-3.342,3.82-4.783
		c2.575-1.426,6.322-2.369,10.488-2.363c4.159-0.006,7.906,0.937,10.479,2.363c2.61,1.442,3.847,3.206,3.824,4.783
		C30.391,25.042,29.155,26.808,26.544,28.251z M32.431,35.984c-1.217,0-2.197-0.817-2.492-1.906c0.413-0.875,0.781-2.83,1.092-3.784
		c0.412-0.257,0.874-0.444,1.4-0.452c1.448,0.008,2.625,1.151,2.627,2.555C35.053,33.806,33.879,35.984,32.431,35.984z"/>
</g>
</svg>
