<?xml version="1.0" encoding="utf-8"?>
<!-- Generator: Adobe Illustrator 16.0.0, SVG Export Plug-In . SVG Version: 6.00 Build 0)  -->
<!DOCTYPE svg PUBLIC "-//W3C//DTD SVG 1.1//EN" "http://www.w3.org/Graphics/SVG/1.1/DTD/svg11.dtd">
<svg version="1.1" id="Capa_1" xmlns="http://www.w3.org/2000/svg" xmlns:xlink="http://www.w3.org/1999/xlink" x="0px" y="0px"
	 width="24.875px" height="55.25px" viewBox="0 0 24.875 55.25" enable-background="new 0 0 24.875 55.25" xml:space="preserve">
<g display="none">
	<g display="inline">
		<path fill="#FFFFFF" d="M12.349,55.25c0,0,0,0-0.002,0c-4.494,0-7.088-0.879-7.195-0.916l-0.343-0.095L4.78,53.896
			c-0.023-0.271-2.271-26.169-2.957-31.003c-0.477-0.002-1.216-0.019-1.355-0.603c-0.105-0.438,0.23-0.713,0.485-0.869
			c0.058-0.129,0.116-0.271,0.165-0.388c-0.102-0.15-0.209-0.382-0.15-0.679c0.072-0.364,0.365-0.631,0.676-0.832
			c0.22-2.461,0.558-2.607,0.807-2.715c0.353-0.156,6.201-0.925,11.979-0.925c3.489,0,6.324,0.278,8.422,0.83l0.355,0.092
			l0.453,2.492c0.271,0.132,0.613,0.372,0.752,0.774c0.07,0.21,0.104,0.521-0.08,0.886c0.051,0.151,0.1,0.285,0.129,0.354
			c0,0,0.004,0.004,0.006,0.006c0.1,0.095,0.401,0.381,0.266,0.781c-0.141,0.424-0.61,0.479-0.766,0.497
			c-0.148,0.019-0.281,0.031-0.4,0.044L20.883,54.33l-0.406,0.021C17.706,54.994,14.971,55.25,12.349,55.25z M5.89,53.439
			c0.814,0.242,3.086,0.811,6.457,0.811h0.002c2.408,0,4.917-0.286,7.463-0.848l2.691-31.828l0.49-0.035
			c0.07-0.004,0.179-0.013,0.316-0.025c-0.043-0.12-0.097-0.271-0.152-0.465l-0.086-0.278l0.175-0.235
			c0.04-0.049,0.06-0.085,0.067-0.105c-0.058-0.058-0.215-0.138-0.313-0.165l-0.349-0.094l-0.445-2.438
			c-1.969-0.468-4.582-0.704-7.78-0.704c-5.203,0-10.258,0.627-11.379,0.813c-0.107,0.387-0.23,1.307-0.289,2.068l-0.025,0.306
			l-0.269,0.149C2.331,20.44,2.24,20.5,2.179,20.545c0.089,0.135,0.19,0.345,0.112,0.607c-0.042,0.141-0.146,0.396-0.234,0.604
			c0.086-0.002,0.164-0.006,0.228-0.009l0.503-0.022l0.088,0.494C3.427,25.275,5.582,49.922,5.89,53.439z"/>
		<path fill="#FFFFFF" d="M23.98,21.639c-0.084-0.13-0.275-0.757-0.275-0.757c0.641-0.845-0.553-1.169-0.553-1.169l-0.448-2.444
			c-6.853-1.797-19.729-0.065-20.027,0.063C2.38,17.461,2.19,19.863,2.19,19.863c-1.214,0.672-0.384,0.909-0.449,1.125
			c-0.063,0.218-0.338,0.846-0.338,0.846c-1.062,0.539,0.389,0.511,0.909,0.485c0.585,3.232,3.04,31.547,3.04,31.547
			s5.743,2.142,14.996,0l2.687-31.757c0.136-0.008,0.452-0.033,0.864-0.08C24.45,21.964,24.068,21.769,23.98,21.639z"/>
		<path fill="#603813" d="M7.96,5.254c0.319,0.257,0.65,0.445,0.956,0.645c0.592,0.392,1.248,0.773,1.691,1.244
			c0.232,0.233,0.422,0.495,0.591,0.736c0.167,0.244,0.308,0.478,0.396,0.721c0.176,0.476,0.146,0.931,0.053,1.449
			c-0.182,1.063-0.831,2.246-1.471,3.549l0.107,0.127c0.722-0.257,1.33-0.69,1.876-1.223c0.537-0.54,0.997-1.207,1.229-2.047
			c0.24-0.821,0.088-1.846-0.391-2.591c-0.463-0.772-1.187-1.229-1.89-1.492c-0.354-0.146-0.718-0.249-1.02-0.376
			c-0.313-0.133-0.602-0.308-0.851-0.53C8.732,5.029,8.505,4.322,8.562,3.913C8.583,3.706,8.619,3.536,8.69,3.308
			C8.767,3.093,8.896,2.846,9.063,2.6c0.324-0.504,0.762-1.02,1.205-1.616l-0.076-0.149C9.801,0.856,9.434,0.961,9.085,1.109
			C8.732,1.254,8.401,1.456,8.098,1.716C7.793,1.981,7.509,2.313,7.314,2.733C7.116,3.148,7.04,3.689,7.189,4.166
			C7.34,4.642,7.644,5,7.96,5.254z"/>
		<path fill="#603813" d="M14.512,8.311c0.245,0.165,0.481,0.27,0.688,0.395c0.4,0.239,0.834,0.52,1.07,0.865
			c0.25,0.354,0.4,0.689,0.479,0.936c0.061,0.266,0.011,0.459-0.021,0.746c-0.033,0.277-0.129,0.632-0.25,1.026
			c-0.125,0.397-0.283,0.817-0.418,1.321l0.107,0.125c0.54-0.098,0.984-0.352,1.387-0.684c0.396-0.335,0.739-0.79,0.914-1.386
			c0.18-0.591,0.057-1.353-0.313-1.884c-0.344-0.555-0.885-0.841-1.387-0.977c-0.25-0.073-0.506-0.123-0.701-0.192
			c-0.203-0.071-0.389-0.181-0.539-0.333c-0.319-0.29-0.36-0.813-0.252-0.973c0.041-0.088,0.059-0.137,0.078-0.248
			c0.033-0.109,0.088-0.251,0.164-0.41c0.164-0.328,0.4-0.693,0.627-1.176L16.07,5.313c-0.285-0.039-0.543,0.002-0.797,0.076
			c-0.26,0.071-0.496,0.193-0.717,0.367c-0.223,0.175-0.432,0.4-0.578,0.71c-0.152,0.299-0.207,0.716-0.08,1.074
			C14.025,7.906,14.273,8.151,14.512,8.311z"/>
	</g>
	<path display="inline" fill="#603813" d="M2.77,22.867l3.376,30.498c0,0,8.975,1.486,13.429-0.403l3.101-30.228L2.77,22.867z"/>
</g>
<g display="none">
	<path display="inline" fill="#FFFFFF" d="M24.548,21.806c-0.09-0.13-0.291-0.763-0.291-0.763c0.672-0.852-0.58-1.178-0.58-1.178
		L23.206,17.4c-7.192-1.812-20.711-0.066-21.023,0.063c-0.311,0.131-0.512,2.552-0.512,2.552C0.397,20.693,1.27,20.932,1.2,21.15
		c-0.066,0.219-0.354,0.853-0.354,0.853c-1.115,0.543,0.408,0.515,0.954,0.489c0.612,3.258,3.191,31.797,3.191,31.797
		s6.028,2.16,15.741,0l2.818-32.009c0.144-0.007,0.476-0.033,0.907-0.081C25.038,22.133,24.639,21.937,24.548,21.806z"/>
	<path display="inline" fill="#FFFFFF" d="M7.728,5.29c0.336,0.259,0.685,0.449,1.006,0.65c0.62,0.395,1.308,0.779,1.775,1.254
		c0.243,0.235,0.442,0.499,0.619,0.742c0.177,0.246,0.323,0.481,0.415,0.726c0.186,0.479,0.153,0.938,0.057,1.461
		c-0.19,1.071-0.872,2.264-1.545,3.577l0.113,0.128c0.758-0.259,1.397-0.696,1.97-1.232c0.564-0.544,1.047-1.217,1.291-2.063
		c0.252-0.829,0.092-1.861-0.41-2.612c-0.486-0.778-1.244-1.239-1.984-1.504c-0.371-0.146-0.753-0.25-1.069-0.379
		c-0.328-0.134-0.631-0.31-0.893-0.534C8.539,5.063,8.302,4.35,8.36,3.938c0.022-0.208,0.062-0.379,0.136-0.61
		c0.08-0.217,0.215-0.465,0.39-0.713c0.341-0.508,0.8-1.028,1.266-1.629l-0.08-0.151c-0.409,0.023-0.795,0.128-1.16,0.277
		c-0.372,0.146-0.718,0.35-1.038,0.611C7.554,1.991,7.256,2.326,7.051,2.749c-0.208,0.418-0.286,0.964-0.13,1.444
		C7.077,4.672,7.396,5.035,7.728,5.29z"/>
	<path display="inline" fill="#FFFFFF" d="M14.606,8.371c0.258,0.167,0.504,0.272,0.722,0.397c0.421,0.242,0.875,0.523,1.122,0.873
		c0.264,0.355,0.422,0.695,0.502,0.943c0.063,0.268,0.013,0.462-0.023,0.751c-0.032,0.279-0.134,0.637-0.261,1.035
		c-0.131,0.401-0.298,0.824-0.439,1.332l0.113,0.126c0.567-0.099,1.036-0.354,1.455-0.689c0.415-0.337,0.776-0.797,0.96-1.396
		c0.19-0.596,0.059-1.363-0.328-1.899c-0.36-0.559-0.929-0.848-1.456-0.984c-0.261-0.074-0.529-0.125-0.736-0.194
		c-0.211-0.071-0.405-0.183-0.564-0.336c-0.335-0.292-0.378-0.819-0.264-0.98c0.043-0.089,0.061-0.138,0.082-0.25
		c0.033-0.109,0.092-0.252,0.172-0.414c0.174-0.33,0.42-0.698,0.657-1.185L16.242,5.35c-0.299-0.04-0.57,0.002-0.834,0.077
		c-0.274,0.072-0.521,0.195-0.756,0.37c-0.23,0.176-0.451,0.405-0.604,0.715c-0.161,0.301-0.22,0.722-0.085,1.083
		C14.097,7.963,14.356,8.21,14.606,8.371z"/>
</g>
<g display="none">
	<g display="inline">
		<path fill="#FFFFFF" d="M23.981,21.147c-0.084-0.132-0.274-0.766-0.274-0.766c0.639-0.852-0.555-1.18-0.555-1.18l-0.445-2.471
			c-6.855-1.815-19.731-0.066-20.031,0.065c-0.295,0.133-0.488,2.558-0.488,2.558c-1.212,0.679-0.383,0.918-0.446,1.137
			C1.677,20.71,1.4,21.342,1.4,21.342c-1.063,0.545,0.39,0.518,0.911,0.491C2.896,25.1,5.35,53.7,5.35,53.7s5.747,2.163,14.998,0
			l2.688-32.078c0.133-0.008,0.452-0.032,0.861-0.082C24.452,21.474,24.068,21.278,23.981,21.147z"/>
		<path fill="#FFFFFF" d="M12.348,55.249L12.348,55.249c-4.494,0-7.088-0.961-7.198-1.003l-0.338-0.13L4.78,53.75
			c-0.023-0.273-2.273-26.443-2.958-31.327c-0.478-0.001-1.216-0.024-1.354-0.613c-0.107-0.443,0.229-0.724,0.486-0.88
			c0.055-0.132,0.115-0.277,0.161-0.394c-0.1-0.151-0.209-0.388-0.149-0.687c0.073-0.369,0.365-0.637,0.677-0.84
			c0.22-2.487,0.56-2.636,0.807-2.746c0.354-0.153,6.204-0.931,11.979-0.931c3.49,0,6.324,0.282,8.424,0.839l0.353,0.093
			l0.454,2.516c0.272,0.135,0.614,0.378,0.751,0.785c0.073,0.211,0.105,0.523-0.078,0.894c0.052,0.152,0.099,0.289,0.129,0.359
			c0,0,0.004,0.003,0.006,0.005c0.099,0.094,0.4,0.383,0.266,0.792c-0.14,0.426-0.611,0.482-0.767,0.5
			c-0.145,0.018-0.281,0.032-0.4,0.044l-2.681,32.01l-0.408,0.099C17.707,54.916,14.972,55.249,12.348,55.249z M5.888,53.321
			c0.818,0.244,3.089,0.87,6.46,0.87l0,0c2.409,0,4.918-0.342,7.466-0.907l2.691-32.178l0.491-0.047
			c0.069-0.006,0.176-0.02,0.314-0.031c-0.041-0.121-0.093-0.279-0.151-0.475l-0.086-0.284l0.176-0.237
			c0.038-0.051,0.058-0.086,0.065-0.106c-0.058-0.059-0.213-0.141-0.313-0.167l-0.347-0.097l-0.444-2.461
			c-1.97-0.472-4.585-0.71-7.782-0.71c-5.205,0-10.26,0.632-11.38,0.819c-0.108,0.391-0.229,1.32-0.291,2.09L2.733,19.71
			l-0.271,0.151c-0.132,0.075-0.224,0.135-0.283,0.183c0.089,0.132,0.188,0.346,0.111,0.611c-0.042,0.142-0.146,0.4-0.231,0.608
			c0.084-0.001,0.162-0.003,0.223-0.009l0.503-0.023l0.089,0.526C3.426,24.846,5.581,49.766,5.888,53.321z"/>
	</g>
	<polygon display="inline" fill="#C69C6D" points="21.963,28.08 22.678,21.654 2.77,21.494 3.526,28.08 	"/>
	<path display="inline" fill="#42210B" d="M4.713,39.362l1.433,13.461c0,0,8.974,1.313,13.428-0.597l1.289-12.864H4.713z"/>
	<polygon display="inline" fill="#8C6239" points="20.945,38.422 21.88,29.02 3.615,29.02 4.622,38.422 	"/>
	<path display="inline" fill="#8C6239" d="M8.116,5.305c0.318,0.259,0.651,0.45,0.957,0.651c0.591,0.395,1.249,0.781,1.695,1.258
		c0.229,0.236,0.421,0.501,0.592,0.744c0.165,0.25,0.307,0.485,0.396,0.729c0.177,0.483,0.146,0.941,0.053,1.468
		c-0.182,1.075-0.833,2.273-1.472,3.589l0.104,0.128c0.725-0.259,1.335-0.697,1.882-1.236c0.534-0.547,0.998-1.222,1.23-2.071
		c0.241-0.831,0.089-1.864-0.393-2.62c-0.462-0.782-1.188-1.242-1.892-1.51c-0.355-0.146-0.718-0.251-1.021-0.378
		c-0.311-0.136-0.602-0.315-0.853-0.54C8.89,5.078,8.66,4.361,8.72,3.947c0.019-0.208,0.057-0.379,0.128-0.61
		c0.076-0.219,0.205-0.466,0.371-0.719c0.327-0.509,0.765-1.031,1.208-1.633l-0.076-0.15c-0.392,0.021-0.76,0.127-1.106,0.279
		C8.89,1.256,8.561,1.462,8.253,1.725C7.949,1.994,7.664,2.327,7.47,2.753C7.271,3.174,7.191,3.721,7.344,4.204
		C7.495,4.684,7.799,5.048,8.116,5.305z"/>
	<path display="inline" fill="#C69C6D" d="M14.678,8.395c0.247,0.168,0.482,0.273,0.686,0.399c0.404,0.244,0.838,0.527,1.073,0.878
		c0.253,0.355,0.403,0.696,0.479,0.946c0.061,0.268,0.01,0.463-0.021,0.754c-0.035,0.282-0.132,0.64-0.252,1.039
		c-0.125,0.401-0.283,0.825-0.422,1.335l0.111,0.126c0.54-0.097,0.987-0.354,1.389-0.688c0.396-0.341,0.743-0.801,0.913-1.401
		c0.184-0.598,0.059-1.37-0.312-1.907c-0.345-0.56-0.885-0.851-1.386-0.988c-0.252-0.074-0.51-0.124-0.707-0.195
		c-0.201-0.073-0.387-0.183-0.535-0.336c-0.324-0.294-0.364-0.822-0.257-0.984c0.043-0.091,0.059-0.138,0.08-0.252
		c0.033-0.111,0.089-0.254,0.167-0.413c0.164-0.332,0.399-0.703,0.628-1.193l-0.074-0.15c-0.286-0.041-0.547,0.002-0.799,0.077
		c-0.259,0.072-0.499,0.196-0.719,0.373c-0.222,0.176-0.431,0.405-0.577,0.718c-0.153,0.301-0.208,0.725-0.083,1.087
		C14.191,7.987,14.438,8.235,14.678,8.395z"/>
</g>
<g>
	<g>
		<polygon fill="#FFFFFF" points="12.403,14.744 11.196,14.411 13.902,4.065 23.44,0.835 23.831,2.056 14.936,5.068 		"/>
	</g>
	<path fill="#FFFFFF" d="M24.546,19.461c-0.088-0.14-0.29-0.817-0.29-0.817c0.671-0.91-0.58-1.26-0.58-1.26l-0.471-2.638
		c-7.192-1.938-20.706-0.069-21.019,0.07c-0.313,0.141-0.514,2.732-0.514,2.732c-1.274,0.724-0.401,0.98-0.468,1.213
		c-0.068,0.234-0.359,0.911-0.359,0.911c-1.112,0.582,0.408,0.552,0.958,0.524c0.612,3.487,3.188,34.026,3.188,34.026
		s6.031,2.31,15.74,0l2.82-34.252c0.142-0.01,0.475-0.037,0.907-0.087C25.038,19.812,24.637,19.602,24.546,19.461z"/>
	<g display="none">
		<path display="inline" fill="#42210B" d="M3.012,22.834l3.331,30.824c0,0,8.863,1.501,13.258-0.409l3.064-30.551L3.012,22.834z"/>
	</g>
	<g>
		<g>
			<path fill="#FFFFFF" d="M9.192,49.067l0.741-0.396c0.163-0.086,0.226-0.292,0.141-0.458c-0.084-0.166-0.283-0.23-0.445-0.146
				l-0.741,0.397c-0.164,0.087-0.225,0.294-0.141,0.459c0.029,0.057,0.068,0.1,0.118,0.131C8.958,49.117,9.085,49.127,9.192,49.067z
				"/>
		</g>
	</g>
	<g>
		<g>
			<path fill="#FFFFFF" d="M10.286,53.038l-3.157-2.027c-0.179-0.114-0.233-0.357-0.121-0.54l1.974-3.244
				c0.112-0.183,0.348-0.239,0.526-0.125l3.155,2.028c0.179,0.114,0.233,0.358,0.122,0.541l-1.976,3.243
				C10.699,53.097,10.462,53.152,10.286,53.038z M9.319,47.41c-0.013-0.008-0.029-0.004-0.037,0.011l-1.974,3.241
				c-0.008,0.015-0.004,0.032,0.009,0.04l3.157,2.027c0.012,0.01,0.029,0.005,0.037-0.009l1.974-3.243
				c0.007-0.014,0.003-0.03-0.011-0.038L9.319,47.41z"/>
		</g>
	</g>
	<g>
		<g>
			<path fill="#FFFFFF" d="M11.136,43.644l0.741-0.397c0.164-0.086,0.226-0.291,0.144-0.457c-0.085-0.167-0.286-0.231-0.449-0.145
				l-0.741,0.397c-0.163,0.086-0.226,0.292-0.139,0.459c0.029,0.055,0.067,0.098,0.115,0.129
				C10.904,43.692,11.031,43.701,11.136,43.644z"/>
		</g>
	</g>
	<g>
		<g>
			<path fill="#FFFFFF" d="M12.23,47.615l-3.155-2.029c-0.181-0.113-0.235-0.355-0.121-0.54l1.973-3.243
				c0.109-0.183,0.347-0.239,0.523-0.124l3.157,2.027c0.179,0.116,0.234,0.357,0.121,0.541l-1.973,3.244
				C12.644,47.673,12.408,47.729,12.23,47.615z M11.264,41.987c-0.013-0.009-0.032-0.004-0.039,0.008l-1.973,3.244
				c-0.008,0.014-0.004,0.031,0.009,0.039l3.157,2.027c0.012,0.009,0.03,0.005,0.037-0.009l1.973-3.244
				c0.008-0.013,0.004-0.03-0.009-0.038L11.264,41.987z"/>
		</g>
	</g>
	<g>
		<g>
			<g>
				<path fill="#FFFFFF" d="M16.658,48.413c0.048-0.031,0.089-0.076,0.118-0.132c0.083-0.167,0.02-0.372-0.143-0.459l-0.742-0.396
					c-0.161-0.086-0.359-0.021-0.443,0.146c-0.087,0.165-0.023,0.37,0.14,0.456l0.741,0.398
					C16.436,48.484,16.562,48.474,16.658,48.413z"/>
			</g>
		</g>
		<g>
			<g>
				<path fill="#FFFFFF" d="M14.71,52.271l-1.973-3.243c-0.112-0.183-0.058-0.425,0.122-0.54l3.155-2.028
					c0.18-0.115,0.415-0.06,0.525,0.124l1.976,3.245c0.111,0.183,0.056,0.425-0.121,0.538l-3.158,2.029
					C15.057,52.511,14.823,52.454,14.71,52.271z M13.046,48.797c-0.015,0.009-0.016,0.024-0.009,0.039l1.972,3.242
					c0.011,0.015,0.027,0.017,0.039,0.01l3.157-2.028c0.012-0.008,0.016-0.024,0.009-0.038l-1.974-3.245
					c-0.008-0.013-0.025-0.017-0.037-0.009L13.046,48.797z"/>
			</g>
		</g>
	</g>
	<g>
		<g>
			<g>
				<path fill="#FFFFFF" d="M16.381,40.932l0.742-0.396c0.16-0.086,0.223-0.293,0.14-0.458c-0.084-0.166-0.284-0.23-0.445-0.145
					l-0.742,0.396c-0.162,0.087-0.226,0.295-0.142,0.46c0.028,0.055,0.07,0.1,0.117,0.131C16.146,40.981,16.271,40.99,16.381,40.932
					z"/>
			</g>
		</g>
		<g>
			<g>
				<path fill="#FFFFFF" d="M17.474,44.903l-3.157-2.028c-0.178-0.114-0.232-0.357-0.121-0.54l1.973-3.244
					c0.112-0.183,0.349-0.239,0.527-0.124l3.155,2.027c0.179,0.115,0.232,0.357,0.121,0.54l-1.974,3.244
					C17.886,44.963,17.651,45.019,17.474,44.903z M16.507,39.276c-0.013-0.009-0.029-0.005-0.038,0.008l-1.975,3.243
					c-0.007,0.013-0.003,0.031,0.01,0.039l3.157,2.027c0.014,0.008,0.029,0.004,0.037-0.009l1.974-3.243
					c0.008-0.014,0.005-0.031-0.009-0.039L16.507,39.276z"/>
			</g>
		</g>
	</g>
	<g>
		<g>
			<g>
				<path fill="#FFFFFF" d="M16.171,29.728l0.741-0.397c0.162-0.086,0.228-0.291,0.14-0.458c-0.082-0.166-0.282-0.231-0.443-0.145
					l-0.742,0.398c-0.162,0.085-0.226,0.292-0.14,0.457c0.026,0.057,0.068,0.102,0.116,0.131
					C15.939,29.775,16.063,29.786,16.171,29.728z"/>
			</g>
		</g>
		<g>
			<g>
				<path fill="#FFFFFF" d="M17.264,33.698l-3.156-2.028c-0.179-0.114-0.23-0.356-0.122-0.541l1.975-3.243
					c0.111-0.185,0.349-0.24,0.525-0.126l3.157,2.029c0.178,0.114,0.232,0.356,0.122,0.54l-1.975,3.244
					C17.679,33.757,17.441,33.813,17.264,33.698z M16.3,28.07c-0.014-0.008-0.033-0.003-0.039,0.01l-1.974,3.243
					c-0.009,0.014-0.005,0.03,0.009,0.039l3.157,2.027c0.012,0.008,0.03,0.005,0.037-0.008l1.975-3.244
					c0.006-0.014,0.003-0.03-0.009-0.039L16.3,28.07z"/>
			</g>
		</g>
	</g>
	<g>
		<g>
			<g>
				<path fill="#FFFFFF" d="M13.15,35.329l0.741-0.396c0.164-0.088,0.226-0.293,0.142-0.458c-0.083-0.167-0.284-0.232-0.446-0.145
					l-0.741,0.396c-0.164,0.086-0.226,0.292-0.141,0.459c0.027,0.056,0.068,0.1,0.116,0.131
					C12.918,35.378,13.044,35.389,13.15,35.329z"/>
			</g>
		</g>
		<g>
			<g>
				<path fill="#FFFFFF" d="M14.244,39.301l-3.158-2.027c-0.177-0.115-0.233-0.358-0.121-0.542l1.972-3.242
					c0.112-0.185,0.349-0.24,0.528-0.126l3.156,2.028c0.178,0.116,0.231,0.357,0.121,0.541l-1.974,3.244
					C14.657,39.358,14.422,39.416,14.244,39.301z M13.277,33.674c-0.013-0.011-0.03-0.006-0.038,0.008l-1.971,3.243
					c-0.01,0.014-0.007,0.031,0.008,0.038l3.157,2.028c0.011,0.011,0.029,0.005,0.037-0.009l1.974-3.242
					c0.008-0.014,0.003-0.032-0.009-0.039L13.277,33.674z"/>
			</g>
		</g>
	</g>
	<g>
		<g>
			<g>
				<path fill="#FFFFFF" d="M8.428,31.546l0.743-0.396c0.161-0.087,0.224-0.293,0.139-0.458c-0.082-0.167-0.282-0.23-0.445-0.145
					l-0.74,0.398c-0.164,0.086-0.227,0.29-0.141,0.457c0.025,0.056,0.067,0.1,0.116,0.131C8.194,31.597,8.321,31.605,8.428,31.546z"
					/>
			</g>
		</g>
		<g>
			<g>
				<path fill="#FFFFFF" d="M9.522,35.518L6.365,33.49c-0.178-0.115-0.232-0.357-0.123-0.54l1.976-3.244
					c0.111-0.182,0.347-0.238,0.525-0.123l3.157,2.025c0.179,0.116,0.232,0.358,0.121,0.542l-1.975,3.243
					C9.936,35.577,9.702,35.634,9.522,35.518z M8.556,29.89c-0.013-0.008-0.03-0.003-0.038,0.01l-1.975,3.244
					c-0.006,0.012-0.002,0.031,0.011,0.038l3.157,2.028c0.012,0.009,0.029,0.003,0.036-0.01l1.974-3.244
					c0.009-0.014,0.004-0.03-0.009-0.038L8.556,29.89z"/>
			</g>
		</g>
	</g>
	<g>
		<g>
			<g>
				<path fill="#FFFFFF" d="M9.506,38.493c0.046-0.03,0.087-0.076,0.118-0.132c0.082-0.165,0.02-0.371-0.144-0.458l-0.74-0.397
					c-0.162-0.087-0.361-0.021-0.446,0.146c-0.084,0.166-0.023,0.37,0.141,0.457l0.74,0.398C9.284,38.564,9.408,38.554,9.506,38.493
					z"/>
			</g>
		</g>
		<g>
			<g>
				<path fill="#FFFFFF" d="M7.558,42.352l-1.974-3.244c-0.112-0.182-0.06-0.425,0.121-0.54l3.158-2.026
					c0.178-0.116,0.413-0.059,0.523,0.124l1.975,3.244c0.109,0.183,0.058,0.426-0.122,0.54l-3.157,2.028
					C7.904,42.591,7.667,42.535,7.558,42.352z M5.893,38.877c-0.012,0.008-0.017,0.026-0.01,0.037l1.975,3.245
					c0.009,0.014,0.024,0.017,0.036,0.009l3.156-2.028c0.013-0.008,0.018-0.024,0.011-0.037l-1.975-3.244
					c-0.007-0.013-0.025-0.018-0.04-0.011L5.893,38.877z"/>
			</g>
		</g>
	</g>
</g>
</svg>
