<?xml version="1.0" encoding="utf-8"?>
<!-- Generator: Adobe Illustrator 16.0.0, SVG Export Plug-In . SVG Version: 6.00 Build 0)  -->
<!DOCTYPE svg PUBLIC "-//W3C//DTD SVG 1.1//EN" "http://www.w3.org/Graphics/SVG/1.1/DTD/svg11.dtd">
<svg version="1.1" id="Capa_1" xmlns="http://www.w3.org/2000/svg" xmlns:xlink="http://www.w3.org/1999/xlink" x="0px" y="0px"
	 width="24.875px" height="55.25px" viewBox="0 0 24.875 55.25" enable-background="new 0 0 24.875 55.25" xml:space="preserve">
<g>
	<g>
		<path fill="#FFFFFF" d="M12.349,55.25c0,0,0,0-0.002,0c-4.494,0-7.088-0.879-7.195-0.916l-0.343-0.095L4.78,53.896
			c-0.023-0.271-2.271-26.169-2.957-31.003c-0.477-0.002-1.216-0.019-1.355-0.603c-0.105-0.438,0.23-0.713,0.485-0.869
			c0.058-0.129,0.116-0.271,0.165-0.388c-0.102-0.15-0.209-0.382-0.15-0.679c0.072-0.364,0.365-0.631,0.676-0.832
			c0.22-2.461,0.558-2.607,0.807-2.715c0.353-0.156,6.201-0.925,11.979-0.925c3.489,0,6.324,0.278,8.422,0.83l0.355,0.092
			l0.453,2.492c0.271,0.132,0.613,0.372,0.752,0.774c0.07,0.21,0.104,0.521-0.08,0.886c0.051,0.151,0.1,0.285,0.129,0.354
			c0,0,0.004,0.004,0.006,0.006c0.1,0.095,0.401,0.381,0.266,0.781c-0.141,0.424-0.61,0.479-0.766,0.497
			c-0.148,0.019-0.281,0.031-0.4,0.044L20.883,54.33l-0.406,0.021C17.706,54.994,14.971,55.25,12.349,55.25z M5.89,53.439
			c0.814,0.242,3.086,0.811,6.457,0.811h0.002c2.408,0,4.917-0.286,7.463-0.848l2.691-31.828l0.49-0.035
			c0.07-0.004,0.179-0.013,0.316-0.025c-0.043-0.12-0.097-0.271-0.152-0.465l-0.086-0.278l0.175-0.235
			c0.04-0.049,0.06-0.085,0.067-0.105c-0.058-0.058-0.215-0.138-0.313-0.165l-0.349-0.094l-0.445-2.438
			c-1.969-0.468-4.582-0.704-7.78-0.704c-5.203,0-10.258,0.627-11.379,0.813c-0.107,0.387-0.23,1.307-0.289,2.068l-0.025,0.306
			l-0.269,0.149C2.331,20.44,2.24,20.5,2.179,20.545c0.089,0.135,0.19,0.345,0.112,0.607c-0.042,0.141-0.146,0.396-0.234,0.604
			c0.086-0.002,0.164-0.006,0.228-0.009l0.503-0.022l0.088,0.494C3.427,25.275,5.582,49.922,5.89,53.439z"/>
		<path fill="#FFFFFF" d="M23.98,21.639c-0.084-0.13-0.275-0.757-0.275-0.757c0.641-0.845-0.553-1.169-0.553-1.169l-0.448-2.444
			c-6.853-1.797-19.729-0.065-20.027,0.063C2.38,17.461,2.19,19.863,2.19,19.863c-1.214,0.672-0.384,0.909-0.449,1.125
			c-0.063,0.218-0.338,0.846-0.338,0.846c-1.062,0.539,0.389,0.511,0.909,0.485c0.585,3.232,3.04,31.547,3.04,31.547
			s5.743,2.142,14.996,0l2.687-31.757c0.136-0.008,0.452-0.033,0.864-0.08C24.45,21.964,24.068,21.769,23.98,21.639z"/>
		<path fill="#603813" d="M7.96,5.254c0.319,0.257,0.65,0.445,0.956,0.645c0.592,0.392,1.248,0.773,1.691,1.244
			c0.232,0.233,0.422,0.495,0.591,0.736c0.167,0.244,0.308,0.478,0.396,0.721c0.176,0.476,0.146,0.931,0.053,1.449
			c-0.182,1.063-0.831,2.246-1.471,3.549l0.107,0.127c0.722-0.257,1.33-0.69,1.876-1.223c0.537-0.54,0.997-1.207,1.229-2.047
			c0.24-0.821,0.088-1.846-0.391-2.591c-0.463-0.772-1.187-1.229-1.89-1.492c-0.354-0.146-0.718-0.249-1.02-0.376
			c-0.313-0.133-0.602-0.308-0.851-0.53C8.732,5.029,8.505,4.322,8.562,3.913C8.583,3.706,8.619,3.536,8.69,3.308
			C8.767,3.093,8.896,2.846,9.063,2.6c0.324-0.504,0.762-1.02,1.205-1.616l-0.076-0.149C9.801,0.856,9.434,0.961,9.085,1.109
			C8.732,1.254,8.401,1.456,8.098,1.716C7.793,1.981,7.509,2.313,7.314,2.733C7.116,3.148,7.04,3.689,7.189,4.166
			C7.34,4.642,7.644,5,7.96,5.254z"/>
		<path fill="#603813" d="M14.512,8.311c0.245,0.165,0.481,0.27,0.688,0.395c0.4,0.239,0.834,0.52,1.07,0.865
			c0.25,0.354,0.4,0.689,0.479,0.936c0.061,0.266,0.011,0.459-0.021,0.746c-0.033,0.277-0.129,0.632-0.25,1.026
			c-0.125,0.397-0.283,0.817-0.418,1.321l0.107,0.125c0.54-0.098,0.984-0.352,1.387-0.684c0.396-0.335,0.739-0.79,0.914-1.386
			c0.18-0.591,0.057-1.353-0.313-1.884c-0.344-0.555-0.885-0.841-1.387-0.977c-0.25-0.073-0.506-0.123-0.701-0.192
			c-0.203-0.071-0.389-0.181-0.539-0.333c-0.319-0.29-0.36-0.813-0.252-0.973c0.041-0.088,0.059-0.137,0.078-0.248
			c0.033-0.109,0.088-0.251,0.164-0.41c0.164-0.328,0.4-0.693,0.627-1.176L16.07,5.313c-0.285-0.039-0.543,0.002-0.797,0.076
			c-0.26,0.071-0.496,0.193-0.717,0.367c-0.223,0.175-0.432,0.4-0.578,0.71c-0.152,0.299-0.207,0.716-0.08,1.074
			C14.025,7.906,14.273,8.151,14.512,8.311z"/>
	</g>
	<path fill="#603813" d="M2.77,22.867l3.376,30.498c0,0,8.975,1.486,13.429-0.403l3.101-30.228L2.77,22.867z"/>
</g>
<g display="none">
	<path display="inline" fill="#FFFFFF" d="M24.548,21.806c-0.09-0.13-0.291-0.763-0.291-0.763c0.672-0.852-0.58-1.178-0.58-1.178
		L23.206,17.4c-7.192-1.812-20.711-0.066-21.023,0.063c-0.311,0.131-0.512,2.552-0.512,2.552C0.397,20.693,1.27,20.932,1.2,21.15
		c-0.066,0.219-0.354,0.853-0.354,0.853c-1.115,0.543,0.408,0.515,0.954,0.489c0.612,3.258,3.191,31.797,3.191,31.797
		s6.028,2.16,15.741,0l2.818-32.009c0.144-0.007,0.476-0.033,0.907-0.081C25.038,22.133,24.639,21.937,24.548,21.806z"/>
	<path display="inline" fill="#FFFFFF" d="M7.728,5.29c0.336,0.259,0.685,0.449,1.006,0.65c0.62,0.395,1.308,0.779,1.775,1.254
		c0.243,0.235,0.442,0.499,0.619,0.742c0.177,0.246,0.323,0.481,0.415,0.726c0.186,0.479,0.153,0.938,0.057,1.461
		c-0.19,1.071-0.872,2.264-1.545,3.577l0.113,0.128c0.758-0.259,1.397-0.696,1.97-1.232c0.564-0.544,1.047-1.217,1.291-2.063
		c0.252-0.829,0.092-1.861-0.41-2.612c-0.486-0.778-1.244-1.239-1.984-1.504c-0.371-0.146-0.753-0.25-1.069-0.379
		c-0.328-0.134-0.631-0.31-0.893-0.534C8.539,5.063,8.302,4.35,8.36,3.938c0.022-0.208,0.062-0.379,0.136-0.61
		c0.08-0.217,0.215-0.465,0.39-0.713c0.341-0.508,0.8-1.028,1.266-1.629l-0.08-0.151c-0.409,0.023-0.795,0.128-1.16,0.277
		c-0.372,0.146-0.718,0.35-1.038,0.611C7.554,1.991,7.256,2.326,7.051,2.749c-0.208,0.418-0.286,0.964-0.13,1.444
		C7.077,4.672,7.396,5.035,7.728,5.29z"/>
	<path display="inline" fill="#FFFFFF" d="M14.606,8.371c0.258,0.167,0.504,0.272,0.722,0.397c0.421,0.242,0.875,0.523,1.122,0.873
		c0.264,0.355,0.422,0.695,0.502,0.943c0.063,0.268,0.013,0.462-0.023,0.751c-0.032,0.279-0.134,0.637-0.261,1.035
		c-0.131,0.401-0.298,0.824-0.439,1.332l0.113,0.126c0.567-0.099,1.036-0.354,1.455-0.689c0.415-0.337,0.776-0.797,0.96-1.396
		c0.19-0.596,0.059-1.363-0.328-1.899c-0.36-0.559-0.929-0.848-1.456-0.984c-0.261-0.074-0.529-0.125-0.736-0.194
		c-0.211-0.071-0.405-0.183-0.564-0.336c-0.335-0.292-0.378-0.819-0.264-0.98c0.043-0.089,0.061-0.138,0.082-0.25
		c0.033-0.109,0.092-0.252,0.172-0.414c0.174-0.33,0.42-0.698,0.657-1.185L16.242,5.35c-0.299-0.04-0.57,0.002-0.834,0.077
		c-0.274,0.072-0.521,0.195-0.756,0.37c-0.23,0.176-0.451,0.405-0.604,0.715c-0.161,0.301-0.22,0.722-0.085,1.083
		C14.097,7.963,14.356,8.21,14.606,8.371z"/>
</g>
</svg>
