<?xml version="1.0" encoding="utf-8"?>
<!-- Generator: Adobe Illustrator 16.0.0, SVG Export Plug-In . SVG Version: 6.00 Build 0)  -->
<!DOCTYPE svg PUBLIC "-//W3C//DTD SVG 1.1//EN" "http://www.w3.org/Graphics/SVG/1.1/DTD/svg11.dtd">
<svg version="1.1" id="Capa_1" xmlns="http://www.w3.org/2000/svg" xmlns:xlink="http://www.w3.org/1999/xlink" x="0px" y="0px"
	 width="24.875px" height="55.25px" viewBox="0 0 24.875 55.25" enable-background="new 0 0 24.875 55.25" xml:space="preserve">
<g display="none">
	<g display="inline">
		<g>
			<path fill="#FFFFFF" d="M22.887,22.311c-0.08-0.128-0.259-0.751-0.259-0.751c0.593-0.837-0.513-1.161-0.513-1.161l-0.416-2.429
				c-6.368-1.781-18.334-0.063-18.611,0.063c-0.278,0.131-0.456,2.516-0.456,2.516c-1.126,0.665-0.354,0.901-0.414,1.118
				c-0.061,0.213-0.317,0.836-0.317,0.836c-0.988,0.535,0.36,0.508,0.845,0.483c0.544,3.209,2.825,31.317,2.825,31.317
				s5.337,2.127,13.935,0l2.499-31.524c0.125-0.01,0.419-0.033,0.802-0.082C23.32,22.635,22.966,22.44,22.887,22.311z"/>
		</g>
		<g>
			<path fill="#FFFFFF" d="M12.075,55.145c0,0,0,0-0.002,0c-4.175,0-6.586-0.789-6.688-0.789H5.07l-0.028-0.181
				c-0.021-0.271-2.111-25.897-2.748-30.698c-0.444-0.001-1.129,0.02-1.259-0.558c-0.098-0.436,0.214-0.688,0.452-0.843
				c0.052-0.128,0.107-0.259,0.151-0.376c-0.094-0.147-0.194-0.372-0.14-0.669c0.069-0.358,0.341-0.621,0.629-0.82
				c0.205-2.445,0.517-2.587,0.748-2.698c0.329-0.15,5.765-0.914,11.133-0.914c3.24,0,5.876,0.277,7.828,0.824l0.324,0.091
				l0.424,2.473c0.252,0.132,0.572,0.372,0.697,0.77c0.066,0.209,0.098,0.515-0.073,0.879c0.047,0.148,0.092,0.283,0.118,0.352
				c0.003,0.001,0.003,0.004,0.003,0.004c0.097,0.095,0.377,0.378,0.252,0.777c-0.132,0.42-0.569,0.476-0.715,0.494
				c-0.138,0.017-0.261,0.031-0.372,0.043l-2.49,31.459l-0.377-0.244C17.052,55.158,14.512,55.145,12.075,55.145z M6.071,53.718
				c0.761,0.241,2.871,0.64,6.002,0.64h0.002c2.237,0,4.567-0.118,6.933-0.676l2.504-31.518l0.454,0.008
				c0.063-0.003,0.165,0.008,0.293-0.004c-0.04-0.119-0.086-0.256-0.14-0.451l-0.079-0.273l0.165-0.229
				c0.033-0.049,0.051-0.082,0.059-0.102c-0.054-0.058-0.199-0.14-0.291-0.165l-0.322-0.093l-0.412-2.422
				c-1.827-0.463-4.26-0.697-7.229-0.697c-4.836,0-9.534,0.622-10.575,0.804c-0.099,0.384-0.214,1.297-0.269,2.055L3.141,20.9
				L2.89,21.048c-0.125,0.074-0.208,0.134-0.266,0.18c0.085,0.131,0.179,0.339,0.106,0.601c-0.04,0.142-0.136,0.393-0.216,0.6
				c0.08-0.002,0.151-0.005,0.21-0.008l0.466-0.023l0.083,0.41C3.785,25.839,5.788,50.225,6.071,53.718z"/>
		</g>
	</g>
	<g display="inline">
		<path fill="#FCB821" d="M3.177,23.532L6.31,53.809c0,0,8.34,1.475,12.478-0.4l2.885-30.009L3.177,23.532z"/>
	</g>
	<g display="inline">
		<path fill="#FFFFFF" d="M12.301,34.332c-0.01-0.044-0.724-4.592,0.045-9.402c1.023-6.387,4.188-10.334,9.151-11.41l0.036,0.197
			c-3.402,0.738-7.727,3.29-9,11.246c-0.765,4.777-0.056,9.293-0.047,9.337L12.301,34.332z"/>
	</g>
	<g display="inline">
		<rect x="19.721" y="12.655" fill="#FCB821" width="5.154" height="2.361"/>
	</g>
	<g display="inline">
		<path fill="#FFFFFF" d="M17.938,44.211c0,0.145-0.399-0.086-0.467-0.086h-9.5c-0.065,0-0.033,0.23-0.033,0.086V34.038
			c0-0.144-0.032-0.913,0.033-0.913h9.5c0.066,0,0.467,0.77,0.467,0.913V44.211z"/>
	</g>
	<g display="inline">
		<path fill="#E6E6E6" d="M8.447,38.277c0,0-0.186,4.787,0.275,5.271c0.462,0.484,7.057,0.58,7.887-0.146
			c0.832-0.727,0.555-3.676,0.555-4.836S9.369,37.939,8.447,38.277z"/>
	</g>
</g>
<g>
	<g>
		<path fill="#FFFFFF" d="M22.481,22.555c-0.076-0.127-0.25-0.738-0.25-0.738c0.583-0.814-0.504-1.13-0.504-1.13l-0.408-2.37
			c-6.252-1.74-17.996-0.063-18.269,0.063c-0.271,0.127-0.446,2.452-0.446,2.452c-1.105,0.651-0.349,0.88-0.406,1.091
			c-0.06,0.211-0.312,0.816-0.312,0.816c-0.969,0.522,0.354,0.497,0.831,0.471c0.532,3.132,2.771,30.553,2.771,30.553
			s5.241,2.073,13.68,0l2.452-30.755c0.12-0.008,0.411-0.03,0.785-0.079C22.911,22.866,22.562,22.679,22.481,22.555z"/>
		<path fill="#FFFFFF" d="M11.871,55.248L11.871,55.248c-4.1,0-6.465-0.921-6.565-0.961l-0.309-0.126l-0.029-0.35
			c-0.021-0.261-2.073-25.351-2.696-30.034c-0.435,0-1.11-0.024-1.236-0.588c-0.097-0.424,0.21-0.693,0.443-0.843
			c0.051-0.127,0.106-0.267,0.148-0.378c-0.092-0.145-0.19-0.371-0.138-0.659c0.067-0.354,0.335-0.61,0.617-0.805
			c0.201-2.383,0.511-2.528,0.736-2.632c0.322-0.147,5.659-0.893,10.926-0.893c3.184,0,5.768,0.269,7.683,0.803l0.321,0.089
			l0.415,2.412c0.248,0.128,0.56,0.361,0.687,0.752c0.064,0.201,0.094,0.5-0.072,0.857c0.046,0.145,0.089,0.277,0.116,0.343
			c0,0,0.004,0.003,0.005,0.005c0.091,0.091,0.364,0.367,0.243,0.759c-0.128,0.408-0.558,0.462-0.7,0.481
			c-0.132,0.014-0.256,0.029-0.364,0.041l-2.444,30.689l-0.372,0.096C16.76,54.929,14.265,55.248,11.871,55.248z M5.979,53.4
			c0.746,0.233,2.816,0.834,5.892,0.834l0,0c2.196,0,4.485-0.329,6.809-0.871l2.457-30.85l0.446-0.044
			c0.063-0.006,0.162-0.02,0.287-0.03c-0.038-0.116-0.085-0.267-0.139-0.454l-0.079-0.274l0.161-0.226
			c0.035-0.049,0.052-0.084,0.06-0.104c-0.051-0.056-0.193-0.134-0.285-0.16l-0.316-0.093l-0.405-2.359
			c-1.796-0.455-4.181-0.681-7.098-0.681c-4.746,0-9.357,0.606-10.379,0.785c-0.098,0.375-0.208,1.267-0.266,2.004l-0.021,0.297
			l-0.247,0.145c-0.122,0.072-0.205,0.13-0.26,0.176c0.083,0.126,0.172,0.33,0.104,0.586c-0.039,0.137-0.134,0.382-0.212,0.583
			c0.076-0.003,0.147-0.004,0.204-0.01l0.458-0.022L3.23,23.14C3.734,26.1,5.699,49.991,5.979,53.4z"/>
	</g>
	<g>
		<path fill="#FFFFFF" d="M11.954,33.675c-0.01-0.044-0.724-4.563,0.045-9.342c1.023-6.347,4.186-10.267,9.147-11.336l0.036,0.194
			c-3.401,0.734-7.725,3.27-8.998,11.174c-0.765,4.747-0.055,9.232-0.046,9.278L11.954,33.675z"/>
	</g>
	<g>
		<rect x="19.721" y="12.655" fill="#FFFFFF" width="5.154" height="2.361"/>
	</g>
</g>
</svg>
