<?xml version="1.0" encoding="utf-8"?>
<!-- Generator: Adobe Illustrator 16.0.0, SVG Export Plug-In . SVG Version: 6.00 Build 0)  -->
<!DOCTYPE svg PUBLIC "-//W3C//DTD SVG 1.1//EN" "http://www.w3.org/Graphics/SVG/1.1/DTD/svg11.dtd">
<svg version="1.1" id="Capa_1" xmlns="http://www.w3.org/2000/svg" xmlns:xlink="http://www.w3.org/1999/xlink" x="0px" y="0px"
	 width="24.875px" height="55.25px" viewBox="0 0 24.875 55.25" enable-background="new 0 0 24.875 55.25" xml:space="preserve">
<g>
	<g>
		<g>
			<path fill="#FFFFFF" d="M22.887,22.311c-0.08-0.128-0.259-0.751-0.259-0.751c0.593-0.837-0.513-1.161-0.513-1.161l-0.416-2.429
				c-6.368-1.781-18.334-0.063-18.611,0.063c-0.278,0.131-0.456,2.516-0.456,2.516c-1.126,0.665-0.354,0.901-0.414,1.118
				c-0.061,0.213-0.317,0.836-0.317,0.836c-0.988,0.535,0.36,0.508,0.845,0.483c0.544,3.209,2.825,31.317,2.825,31.317
				s5.337,2.127,13.935,0l2.499-31.524c0.125-0.01,0.419-0.033,0.802-0.082C23.32,22.635,22.966,22.44,22.887,22.311z"/>
		</g>
		<g>
			<path fill="#FFFFFF" d="M12.075,55.145c0,0,0,0-0.002,0c-4.175,0-6.586-0.789-6.688-0.789H5.07l-0.028-0.181
				c-0.021-0.271-2.111-25.897-2.748-30.698c-0.444-0.001-1.129,0.02-1.259-0.558c-0.098-0.436,0.214-0.688,0.452-0.843
				c0.052-0.128,0.107-0.259,0.151-0.376c-0.094-0.147-0.194-0.372-0.14-0.669c0.069-0.358,0.341-0.621,0.629-0.82
				c0.205-2.445,0.517-2.587,0.748-2.698c0.329-0.15,5.765-0.914,11.133-0.914c3.24,0,5.876,0.277,7.828,0.824l0.324,0.091
				l0.424,2.473c0.252,0.132,0.572,0.372,0.697,0.77c0.066,0.209,0.098,0.515-0.073,0.879c0.047,0.148,0.092,0.283,0.118,0.352
				c0.003,0.001,0.003,0.004,0.003,0.004c0.097,0.095,0.377,0.378,0.252,0.777c-0.132,0.42-0.569,0.476-0.715,0.494
				c-0.138,0.017-0.261,0.031-0.372,0.043l-2.49,31.459l-0.377-0.244C17.052,55.158,14.512,55.145,12.075,55.145z M6.071,53.718
				c0.761,0.241,2.871,0.64,6.002,0.64h0.002c2.237,0,4.567-0.119,6.933-0.676l2.504-31.518l0.454,0.008
				c0.063-0.003,0.165,0.008,0.293-0.004c-0.04-0.119-0.086-0.256-0.14-0.451l-0.079-0.273l0.165-0.229
				c0.033-0.049,0.051-0.082,0.059-0.102c-0.054-0.058-0.199-0.14-0.291-0.165l-0.322-0.093l-0.412-2.422
				c-1.828-0.463-4.26-0.697-7.229-0.697c-4.836,0-9.534,0.622-10.575,0.804c-0.099,0.384-0.214,1.297-0.269,2.055L3.141,20.9
				L2.89,21.048c-0.125,0.074-0.208,0.134-0.266,0.18c0.085,0.131,0.179,0.339,0.106,0.601c-0.04,0.142-0.136,0.393-0.216,0.6
				c0.08-0.002,0.151-0.005,0.21-0.008l0.466-0.023l0.083,0.41C3.785,25.839,5.788,50.225,6.071,53.718z"/>
		</g>
	</g>
	<g>
		<path fill="#FCB821" d="M3.177,23.532L6.31,53.809c0,0,8.34,1.474,12.478-0.401l2.885-30.009L3.177,23.532z"/>
	</g>
	<g>
		<path fill="#FFFFFF" d="M12.301,34.332c-0.01-0.044-0.724-4.592,0.045-9.402c1.023-6.387,4.188-10.334,9.151-11.41l0.036,0.197
			c-3.402,0.738-7.727,3.29-9,11.246c-0.765,4.777-0.056,9.293-0.047,9.337L12.301,34.332z"/>
	</g>
	<g>
		<rect x="19.721" y="12.655" fill="#FCB821" width="5.154" height="2.361"/>
	</g>
	<g>
		<path fill="#FFFFFF" d="M17.938,44.211c0,0.145-0.4-0.086-0.467-0.086h-9.5c-0.065,0-0.033,0.23-0.033,0.086V34.038
			c0-0.144-0.032-0.913,0.033-0.913h9.5c0.066,0,0.467,0.77,0.467,0.913V44.211z"/>
	</g>
	<g>
		<path fill="#E6E6E6" d="M8.447,38.278c0,0-0.186,4.787,0.275,5.271c0.462,0.484,7.058,0.58,7.888-0.146
			c0.831-0.727,0.554-3.676,0.554-4.836C17.164,37.406,9.369,37.939,8.447,38.278z"/>
	</g>
</g>
</svg>
