<?xml version="1.0" encoding="utf-8"?>
<!-- Generator: Adobe Illustrator 16.0.0, SVG Export Plug-In . SVG Version: 6.00 Build 0)  -->
<!DOCTYPE svg PUBLIC "-//W3C//DTD SVG 1.1//EN" "http://www.w3.org/Graphics/SVG/1.1/DTD/svg11.dtd">
<svg version="1.1" id="Capa_1" xmlns="http://www.w3.org/2000/svg" xmlns:xlink="http://www.w3.org/1999/xlink" x="0px" y="0px"
	 width="162.572px" height="89px" viewBox="0 0 162.572 89" enable-background="new 0 0 162.572 89" xml:space="preserve">
<g>
	<polygon fill="#FFFFFF" points="52.382,83.271 48.838,78.019 45.26,83.271 40.717,83.271 46.227,75.279 41.037,67.707 
		45.615,67.707 48.838,72.509 52.027,67.707 56.604,67.707 51.382,75.279 56.958,83.271 	"/>
	<path fill="#FFFFFF" d="M56.629,63.582c0-1.354,1.128-2.418,2.449-2.418c1.352,0,2.449,1.064,2.449,2.418s-1.098,2.449-2.449,2.449
		C57.757,66.031,56.629,64.936,56.629,63.582 M57.051,67.707h4.091v15.566h-4.091V67.707z"/>
	<polygon fill="#FFFFFF" points="67.619,83.271 61.366,67.707 65.75,67.707 69.809,78.534 73.869,67.707 78.284,67.707 
		72.033,83.271 	"/>
	<path fill="#FFFFFF" d="M76.866,75.474c0-4.513,3.318-8.154,8.057-8.154c4.64,0,7.798,3.481,7.798,8.572v0.902H81.154
		c0.256,1.968,1.832,3.609,4.478,3.609c1.321,0,3.157-0.579,4.155-1.546l1.807,2.641c-1.547,1.418-3.996,2.16-6.415,2.16
		C80.443,83.658,76.866,80.467,76.866,75.474 M84.923,70.575c-2.546,0-3.642,1.899-3.835,3.448h7.668
		C88.662,72.54,87.629,70.575,84.923,70.575"/>
	<rect x="93.428" y="61.777" fill="#FFFFFF" width="4.094" height="21.496"/>
	<path fill="#FFFFFF" d="M100.034,85.808c0.314,0.122,0.903,0.139,1.288,0.139c1.063,0,1.773-0.289,2.159-1.128l0.58-1.32
		l-6.317-15.791h4.385l4.061,10.827l4.059-10.827h4.416l-7.313,18.109c-1.161,2.936-3.224,3.707-5.899,3.771
		c-0.484,0-0.903-0.016-1.418-0.145L100.034,85.808z"/>
	<path fill="#FFFFFF" d="M161.492,74.701c-0.008,0.004-0.016,0.006-0.022,0.008s-0.013,0.004-0.022,0.008
		c-0.008,0.006-0.015,0.008-0.02,0.014c-0.008,0.003-0.011,0.009-0.011,0.017c0,0.005,0,0.006,0,0.009
		c0.003,0.004,0.003,0.006,0.003,0.008c0.005,0.01,0.008,0.018,0.013,0.021c0.005,0.008,0.009,0.014,0.015,0.02l0.093,0.145
		c0.007,0.009,0.012,0.016,0.016,0.023s0.009,0.016,0.01,0.023c0.006,0.01,0.003,0.02-0.001,0.027
		c-0.006,0.001-0.013,0.004-0.013,0.004s-0.009,0-0.017,0.002c-0.006,0-0.014,0-0.025,0c-0.005-0.002-0.01-0.005-0.01-0.005
		c-0.01,0-0.012-0.001-0.018-0.003c-0.008-0.006-0.018-0.014-0.023-0.025c-0.005-0.008-0.012-0.019-0.02-0.025l-0.096-0.158
		c-0.01-0.012-0.018-0.023-0.021-0.035c-0.01-0.014-0.021-0.024-0.03-0.033c-0.007-0.005-0.013-0.006-0.024-0.008
		c-0.008,0-0.02,0-0.029,0h-0.015c-0.007,0.002-0.015,0.003-0.021,0.004c-0.006,0.004-0.011,0.006-0.016,0.012
		c-0.004,0.007-0.006,0.018-0.006,0.029v0.039v0.127v0.033c0,0.01,0,0.021-0.006,0.029c-0.002,0.006-0.007,0.01-0.016,0.014
		c-0.008,0.004-0.014,0.006-0.025,0.006c-0.007,0-0.014,0-0.023,0c-0.01-0.002-0.018-0.005-0.023-0.008
		c-0.005-0.006-0.006-0.008-0.008-0.014c0-0.004,0-0.012,0-0.014v-0.012c-0.006-0.004-0.006-0.012-0.006-0.021
		c0-0.006,0.006-0.013,0.006-0.02v-0.525v-0.027c0-0.01,0-0.016,0.002-0.023c0.006-0.006,0.01-0.008,0.02-0.012l0.006-0.002h0.009
		h0.163c0.049,0,0.092,0.002,0.127,0.006c0.039,0,0.069,0.012,0.102,0.033c0.01,0.008,0.021,0.016,0.027,0.025
		c0.017,0.021,0.03,0.047,0.036,0.076l0.003,0.029v0.014c0.004,0.009,0.004,0.021,0,0.033c-0.002,0.018-0.006,0.029-0.006,0.036
		c-0.009,0.022-0.017,0.042-0.033,0.058C161.523,74.674,161.51,74.689,161.492,74.701 M161.27,74.652c0.022,0,0.041,0,0.056,0
		c0.021,0,0.038-0.004,0.052-0.004c0.018-0.006,0.027-0.009,0.043-0.014c0.012-0.006,0.021-0.014,0.03-0.025
		s0.015-0.027,0.017-0.041c0.004-0.014,0.008-0.027,0.003-0.041c-0.003-0.016-0.005-0.024-0.009-0.033
		c-0.007-0.018-0.021-0.031-0.036-0.041c-0.019-0.006-0.033-0.012-0.057-0.016c-0.022-0.003-0.043-0.006-0.07-0.006h-0.074
		c0,0-0.005,0-0.007,0.002c-0.002,0.001-0.006,0.001-0.006,0.001c-0.012,0.003-0.019,0.009-0.023,0.015
		c-0.003,0.004-0.003,0.008-0.004,0.012c0,0.006,0,0.01-0.002,0.012v0.018c0,0.006-0.004,0.013,0,0.02v0.021v0.058
		c-0.004,0.021,0,0.038,0.006,0.048c0.008,0.01,0.018,0.016,0.036,0.016C161.238,74.652,161.256,74.652,161.27,74.652"/>
	<path fill="#FFFFFF" d="M161.293,75.369c-0.373,0-0.679-0.305-0.679-0.68c0-0.373,0.306-0.676,0.679-0.676
		c0.375,0,0.677,0.303,0.677,0.676C161.97,75.064,161.668,75.369,161.293,75.369 M161.293,74.121c-0.314,0-0.57,0.254-0.57,0.568
		s0.256,0.57,0.57,0.57c0.313,0,0.568-0.256,0.568-0.57S161.606,74.121,161.293,74.121"/>
	<path fill="#FFFFFF" d="M124.055,82.905v-0.474v-0.196c0-0.062-0.017-0.112-0.051-0.155c-0.021-0.025-0.066-0.046-0.131-0.06
		c-0.066-0.015-0.135-0.022-0.212-0.027c-0.075-0.003-0.153-0.003-0.231,0c-0.086,0.005-0.155,0.007-0.211,0.007h-1.389h-0.423
		c-0.146,0-0.242-0.047-0.29-0.134c-0.012-0.036-0.021-0.074-0.023-0.12c-0.006-0.043-0.006-0.091-0.006-0.139v-0.104
		c0-0.063-0.009-0.08-0.008-0.133c0.005-0.051-0.005-0.123-0.005-0.174v-0.613v-3.119v-0.939v-0.25c0-0.08-0.016-0.143-0.051-0.192
		c-0.035-0.046-0.089-0.075-0.162-0.078c-0.069-0.002-0.142-0.004-0.22-0.004h-0.873c-0.018,0.006-0.031,0.007-0.041,0.004
		c-0.016-0.002-0.029-0.001-0.045,0.005c-0.081,0.021-0.135,0.057-0.163,0.104c-0.021,0.034-0.031,0.083-0.036,0.146
		c-0.002,0.06-0.004,0.123-0.004,0.186v0.646v2.331v2.731v0.722v0.189c0,0.065,0.012,0.117,0.04,0.159
		c0.036,0.055,0.087,0.088,0.159,0.098c0.072,0.011,0.156,0.019,0.256,0.019h0.738h2.184h0.732h0.195
		c0.067,0,0.121-0.016,0.154-0.044c0.043-0.019,0.076-0.057,0.104-0.114c0.014-0.032,0.021-0.075,0.02-0.122
		C124.055,83.014,124.055,82.962,124.055,82.905"/>
	<path fill="#FFFFFF" d="M129.639,80.647v-0.056c-0.01-0.264-0.044-0.504-0.097-0.674c-0.003-0.008-0.003-0.014-0.005-0.021
		c-0.016-0.063-0.031-0.121-0.053-0.176c-0.035-0.096-0.065-0.186-0.092-0.271c-0.027-0.086-0.065-0.167-0.113-0.242
		c-0.049-0.076-0.094-0.149-0.138-0.217c-0.048-0.067-0.097-0.139-0.151-0.207c-0.055-0.075-0.119-0.146-0.203-0.21
		c-0.076-0.065-0.155-0.126-0.229-0.183c-0.131-0.09-0.272-0.17-0.428-0.237c-0.224-0.153-0.699-0.258-1.252-0.258
		c-0.01,0-0.025,0.001-0.035,0.001h-0.1c-0.006,0-0.01,0.003-0.01,0.003c-0.063,0.001-0.117,0.005-0.17,0.011
		c-0.037,0-0.08,0.002-0.119,0.008c-0.002,0.002-0.006,0.002-0.006,0.002c-0.35,0.037-0.637,0.121-0.802,0.227
		c-0.075,0.025-0.147,0.056-0.212,0.09c-0.246,0.159-0.46,0.334-0.631,0.521c-0.172,0.189-0.319,0.426-0.442,0.705
		c-0.038,0.083-0.063,0.17-0.081,0.252c-0.021,0.088-0.047,0.176-0.071,0.264c-0.014,0.035-0.023,0.066-0.023,0.099
		c0,0.013,0,0.026-0.001,0.04c-0.004,0.022-0.01,0.047-0.012,0.071c-0.009,0.024-0.015,0.048-0.015,0.075
		c-0.015,0.113-0.024,0.24-0.026,0.373c-0.004,0.021-0.004,0.041-0.004,0.059v0.033c0,0.361,0.053,0.679,0.132,0.87
		c0.011,0.048,0.024,0.097,0.032,0.142c0.019,0.07,0.047,0.135,0.08,0.196c0.115,0.269,0.26,0.498,0.432,0.69
		c0.171,0.192,0.381,0.361,0.619,0.506c0.076,0.041,0.148,0.076,0.223,0.102c0.07,0.027,0.148,0.057,0.23,0.084
		c0.057,0.025,0.118,0.045,0.179,0.057c0.196,0.069,0.496,0.114,0.833,0.114c0.34,0,0.643-0.045,0.834-0.114h0.002
		c0.088-0.018,0.172-0.042,0.259-0.078c0.327-0.137,0.607-0.309,0.843-0.514c0.232-0.206,0.423-0.475,0.566-0.807
		c0.034-0.068,0.061-0.141,0.084-0.221c0.018-0.08,0.043-0.155,0.07-0.232c0.002-0.018,0.005-0.035,0.009-0.052
		c0.06-0.194,0.093-0.468,0.093-0.773v-0.034V80.647z M128.093,81.412c-0.012,0.067-0.032,0.137-0.063,0.205
		c-0.074,0.172-0.167,0.316-0.276,0.434c-0.11,0.116-0.255,0.209-0.433,0.275c-0.046,0.022-0.103,0.029-0.156,0.046
		c-0.063,0.017-0.087,0.017-0.136,0.028h-0.063c-0.076,0.008-0.104,0.01-0.135,0.006c-0.033-0.005-0.063,0.006-0.088,0
		c-0.029-0.01-0.034-0.006-0.066-0.01c-0.019-0.002-0.051-0.008-0.078-0.016c-0.061-0.015-0.123-0.032-0.18-0.055
		c-0.059-0.018-0.113-0.047-0.16-0.079c-0.17-0.104-0.296-0.218-0.376-0.347c-0.066-0.107-0.131-0.24-0.189-0.403
		c-0.08-0.168-0.132-0.462-0.132-0.796c0-0.284,0.036-0.541,0.098-0.711c0.006-0.029,0.014-0.056,0.023-0.083
		c0.061-0.187,0.145-0.35,0.25-0.488c0.107-0.143,0.246-0.253,0.419-0.327c0.032-0.019,0.073-0.034,0.119-0.047
		c0.045-0.01,0.09-0.02,0.138-0.035c0.02-0.006,0.049-0.01,0.074-0.015c0.029-0.004,0.021,0,0.068-0.005
		c0.063-0.008,0.126-0.002,0.187-0.006c0.063-0.004,0.122,0.002,0.175,0.016c0.049,0.014,0.095,0.025,0.137,0.035
		c0.039,0.01,0.082,0.022,0.122,0.038c0.173,0.075,0.31,0.175,0.413,0.305c0.102,0.124,0.19,0.278,0.266,0.456
		c0.021,0.057,0.039,0.112,0.048,0.171c0.003,0.009,0.003,0.017,0.005,0.025c0.056,0.171,0.086,0.409,0.086,0.671
		c0,0.272-0.035,0.515-0.091,0.686C128.099,81.395,128.098,81.402,128.093,81.412"/>
	<path fill="#FFFFFF" d="M143.686,76.043c-0.033-0.027-0.086-0.042-0.152-0.042h-0.187h-0.711h-0.673h-0.199
		c-0.067,0-0.119,0.017-0.159,0.05c-0.056,0.035-0.093,0.082-0.114,0.135c-0.02,0.057-0.039,0.111-0.061,0.165
		c-0.037,0.11-0.068,0.22-0.104,0.325c-0.036,0.104-0.065,0.215-0.104,0.324c-0.136,0.427-0.275,0.852-0.412,1.273
		c-0.137,0.423-0.274,0.842-0.41,1.262c-0.057,0.158-0.104,0.314-0.15,0.47c-0.045,0.155-0.096,0.311-0.148,0.468
		c-0.023,0.057-0.044,0.117-0.063,0.186c-0.01,0.031-0.021,0.055-0.035,0.074c-0.036,0.069-0.075,0.105-0.117,0.105
		c-0.073,0-0.144-0.133-0.191-0.344c-0.041-0.108-0.08-0.219-0.11-0.329c-0.042-0.144-0.088-0.286-0.142-0.425
		c-0.166-0.438-0.322-0.881-0.46-1.327c-0.144-0.448-0.291-0.887-0.449-1.321c-0.041-0.114-0.079-0.23-0.116-0.344
		c-0.039-0.113-0.078-0.225-0.119-0.334c-0.021-0.063-0.042-0.127-0.063-0.192c-0.021-0.065-0.059-0.114-0.104-0.149
		c-0.061-0.049-0.15-0.071-0.263-0.071h-0.336h-1.351c-0.012,0.005-0.028,0.007-0.042,0.004c-0.013-0.003-0.026-0.001-0.038,0.005
		c-0.084,0.021-0.14,0.057-0.168,0.104c-0.01,0.028-0.022,0.067-0.028,0.12c-0.009,0.049-0.011,0.104-0.011,0.157v0.169v0.152v1.44
		v3.837v0.906c0,0.076,0.002,0.148,0.011,0.223c0.006,0.07,0.028,0.123,0.074,0.16c0.038,0.032,0.091,0.051,0.15,0.054
		c0.061,0.004,0.131,0.008,0.207,0.008h0.537c0.054,0,0.107,0,0.165,0.003c0.054,0.006,0.104,0,0.154-0.016
		c0.074-0.012,0.127-0.043,0.154-0.094c0.027-0.031,0.04-0.076,0.04-0.133v-0.166v-0.504v-2.742
		c0.009-0.076,0.012-0.151,0.012-0.227v-0.227c0-0.055,0.005-0.138,0-0.188c-0.003-0.051,0.001-0.071,0-0.12
		c-0.003-0.068,0-0.1,0-0.148s0.02-0.13,0.085-0.123c0.021,0.004,0.033,0.009,0.048,0.02c0.017,0.01,0.028,0.021,0.042,0.035
		c0.041,0.062,0.079,0.141,0.111,0.236c0.008,0.015,0.012,0.027,0.021,0.043l1.353,3.878l0.004-0.002
		c0.018,0.05,0.033,0.103,0.055,0.153c0.031,0.063,0.053,0.116,0.076,0.158c0.018,0.047,0.057,0.084,0.112,0.119
		c0.025,0.021,0.067,0.036,0.122,0.044c0.058,0.005,0.117,0.009,0.182,0.009s0.13,0,0.195-0.006c0.064-0.003,0.122-0.003,0.17-0.003
		h0.236c0.063,0.001,0.098,0,0.129-0.004c0.035-0.002,0.079-0.013,0.113-0.04c0.036-0.029,0.05-0.053,0.063-0.094
		c0.016-0.039,0.029-0.057,0.045-0.101l0.043-0.11l1.42-4.118c0,0,0.002-0.006,0.002-0.007c0.014-0.035,0.023-0.072,0.047-0.109
		c0.021-0.037,0.035-0.059,0.063-0.103c0.002-0.008,0.006-0.021,0.018-0.035c0.013-0.015,0.064-0.042,0.085-0.036
		c0.041,0.014,0.046,0.021,0.059,0.072c0.009,0.057,0.009,0.166,0.006,0.217c-0.003,0.063,0.011,0.115,0.008,0.172
		c-0.005,0.061-0.005,0.117-0.005,0.17v0.265c0,0.085,0,0.179,0.008,0.272V82.4v0.526v0.175c0,0.057,0.015,0.102,0.043,0.133
		c0.025,0.045,0.06,0.066,0.099,0.073c0.039,0.009,0.082,0.017,0.137,0.033h0.281h0.496c0.071,0,0.141-0.004,0.203-0.008
		c0.059-0.003,0.113-0.021,0.152-0.054c0.044-0.037,0.066-0.09,0.066-0.16c0.006-0.074,0.008-0.146,0.008-0.223v-0.896v-3.835
		v-1.547v-0.344C143.799,76.162,143.758,76.083,143.686,76.043"/>
	<path fill="#FFFFFF" d="M135.309,78.262c-0.005-0.078-0.029-0.134-0.076-0.168c-0.041-0.035-0.094-0.053-0.15-0.059
		c-0.059-0.004-0.125-0.004-0.201-0.004h-0.526c-0.062,0-0.121,0-0.18,0.004c-0.06,0.006-0.11,0.021-0.151,0.048
		c-0.025,0.028-0.047,0.062-0.059,0.096c-0.002,0.023-0.002,0.038-0.006,0.069c-0.02,0.121-0.063,0.221-0.152,0.231
		c-0.051,0.006-0.099-0.019-0.133-0.061c-0.028-0.019-0.05-0.037-0.07-0.058c-0.033-0.033-0.072-0.07-0.115-0.102
		c-0.029-0.023-0.051-0.041-0.07-0.059c-0.023-0.018-0.044-0.032-0.063-0.048c-0.088-0.058-0.187-0.106-0.296-0.146
		c-0.076-0.048-0.221-0.085-0.404-0.104c-0.094-0.014-0.189-0.019-0.297-0.019h-0.027c-0.068,0-0.137,0.002-0.208,0.008
		c-0.003,0-0.012,0.001-0.015,0.001c-0.225,0.017-0.408,0.056-0.503,0.111c-0.062,0.021-0.122,0.046-0.175,0.065
		c-0.098,0.043-0.191,0.092-0.279,0.146c-0.034,0.02-0.07,0.043-0.104,0.066c-0.035,0.025-0.072,0.051-0.104,0.078l-0.061,0.061
		c-0.035,0.029-0.072,0.059-0.109,0.096c-0.039,0.033-0.068,0.066-0.09,0.101c-0.046,0.063-0.094,0.122-0.137,0.179
		c-0.045,0.061-0.085,0.126-0.119,0.192c-0.068,0.109-0.124,0.226-0.168,0.351c-0.016,0.04-0.029,0.085-0.043,0.127
		c-0.076,0.166-0.131,0.408-0.16,0.689c-0.006,0.021-0.006,0.041-0.006,0.059v0.002c-0.008,0.084-0.011,0.169-0.015,0.26v0.053v0.02
		v0.041c0,0.48,0.071,0.902,0.187,1.148c0.008,0.013,0.014,0.029,0.021,0.043c0.124,0.296,0.275,0.549,0.459,0.759
		c0.18,0.21,0.417,0.372,0.713,0.489c0.076,0.035,0.159,0.061,0.25,0.076c0.086,0.02,0.181,0.037,0.279,0.059
		c0.023,0.008,0.051,0.01,0.075,0.01c0.022,0,0.048,0.004,0.068,0.009h0.081c0.037,0.009,0.092,0.013,0.164,0.013
		c0.076,0,0.132-0.004,0.165-0.013c0.035-0.005,0.071-0.011,0.108-0.015c0.035-0.004,0.079-0.01,0.119-0.016
		c0.082-0.021,0.162-0.043,0.236-0.062c0.075-0.022,0.154-0.046,0.227-0.083c0.077-0.033,0.145-0.072,0.205-0.111
		c0.063-0.043,0.125-0.086,0.188-0.135c0.021-0.017,0.039-0.029,0.059-0.051c0.017-0.013,0.033-0.031,0.053-0.043
		c0.018-0.017,0.039-0.031,0.066-0.034c0.047-0.017,0.086-0.016,0.125,0.003c0.071,0.043,0.08,0.127,0.071,0.254
		c0,0.014-0.003,0.043-0.003,0.059c-0.003,0.025-0.006,0.052-0.006,0.08c0,0.074-0.018,0.139-0.021,0.211
		c-0.006,0.072-0.012,0.139-0.025,0.201c-0.014,0.049-0.025,0.092-0.029,0.134c-0.008,0.041-0.02,0.082-0.03,0.124
		c-0.063,0.137-0.144,0.258-0.237,0.359c-0.061,0.066-0.13,0.121-0.209,0.17c-0.033,0.021-0.072,0.044-0.117,0.063
		c-0.014,0.007-0.023,0.012-0.033,0.017c-0.025,0.012-0.045,0.017-0.063,0.021c-0.085,0.025-0.183,0.045-0.289,0.059
		c-0.198,0.022-0.294,0.01-0.501-0.023c-0.08-0.008-0.158-0.045-0.242-0.088c-0.038-0.016-0.068-0.032-0.096-0.053
		c-0.04-0.027-0.081-0.059-0.116-0.09c-0.005-0.005-0.013-0.008-0.014-0.012c-0.002-0.001-0.007-0.004-0.007-0.006
		c-0.039-0.043-0.078-0.085-0.106-0.133c-0.009-0.01-0.015-0.016-0.022-0.025c-0.054-0.074-0.094-0.136-0.121-0.182
		c-0.026-0.043-0.096-0.08-0.207-0.106c-0.035,0-0.062-0.005-0.087-0.007c-0.025-0.004-0.054-0.005-0.088-0.005h-0.351
		c-0.078,0-0.16-0.002-0.242-0.004c-0.088-0.005-0.166,0-0.232,0.016c-0.07,0.014-0.123,0.042-0.16,0.087
		c-0.039,0.045-0.045,0.111-0.025,0.201c0.008,0.013,0.01,0.031,0.01,0.05c0,0.023,0.01,0.042,0.022,0.063
		c0.095,0.284,0.247,0.507,0.454,0.676c0.204,0.168,0.437,0.308,0.699,0.416c0.061,0.028,0.125,0.052,0.191,0.07
		c0.064,0.013,0.13,0.03,0.199,0.044c0.011,0.006,0.021,0.01,0.035,0.013c0.165,0.038,0.4,0.065,0.668,0.068
		c0.013,0.003,0.023,0.003,0.039,0.003h0.012h0.027c0.273,0,0.521-0.024,0.7-0.062c0.071-0.009,0.149-0.022,0.218-0.041
		c0.084-0.022,0.164-0.044,0.238-0.065c0.076-0.02,0.15-0.045,0.229-0.08c0.258-0.109,0.482-0.25,0.664-0.423
		c0.182-0.172,0.328-0.389,0.448-0.65c0.034-0.076,0.06-0.155,0.079-0.239c0.015-0.088,0.035-0.18,0.064-0.275
		c0.008-0.055,0.016-0.104,0.016-0.148c0.002-0.046,0.01-0.096,0.017-0.148c0-0.055,0-0.107,0.005-0.161
		c0.001-0.052,0.001-0.104,0.001-0.16v-4.4C135.31,78.422,135.31,78.342,135.309,78.262 M133.931,80.736
		c-0.007,0.105-0.019,0.208-0.042,0.305c-0.018,0.096-0.043,0.174-0.07,0.233c-0.067,0.175-0.153,0.321-0.262,0.446
		c-0.106,0.124-0.248,0.221-0.417,0.288c-0.058,0.027-0.11,0.046-0.166,0.052c0,0-0.005,0-0.005,0.002
		c-0.049,0.012-0.102,0.021-0.156,0.027c-0.008,0-0.009,0-0.015,0.002h-0.015c-0.031,0.001-0.064,0.004-0.1,0.004
		c-0.014,0.004-0.031,0.004-0.051,0.001c-0.006-0.001-0.012-0.001-0.018-0.004c-0.047,0-0.092-0.006-0.137-0.013h-0.018
		c-0.018-0.003-0.029-0.006-0.039-0.01c-0.07-0.014-0.127-0.036-0.182-0.059c-0.021-0.011-0.047-0.021-0.07-0.033
		c-0.158-0.082-0.281-0.191-0.372-0.326c-0.089-0.133-0.163-0.287-0.223-0.469c-0.012-0.033-0.019-0.064-0.024-0.096
		c-0.013-0.066-0.029-0.137-0.037-0.211c-0.002-0.004-0.002-0.008-0.006-0.012v-0.01c-0.004-0.06-0.009-0.127-0.015-0.195
		c-0.009-0.07-0.009-0.152-0.005-0.248c0.005-0.102,0.016-0.186,0.025-0.255c0.006-0.054,0.016-0.104,0.027-0.151V80
		c0-0.021,0.006-0.049,0.021-0.082v-0.002c0.024-0.094,0.056-0.172,0.089-0.232c0.045-0.096,0.094-0.184,0.147-0.271
		c0.097-0.152,0.235-0.264,0.413-0.34c0.01-0.004,0.021-0.008,0.029-0.01c0.105-0.056,0.26-0.089,0.433-0.089
		c0.122,0,0.231,0.016,0.32,0.043c0.152,0.031,0.284,0.083,0.381,0.159c0.183,0.13,0.319,0.314,0.413,0.556
		c0.022,0.042,0.036,0.087,0.054,0.134c0.011,0.049,0.025,0.098,0.04,0.145c0.004,0.018,0.006,0.033,0.006,0.047
		c0.008,0.035,0.014,0.072,0.02,0.108c0.018,0.078,0.029,0.163,0.029,0.257C133.941,80.525,133.938,80.631,133.931,80.736"/>
	<path fill="#FFFFFF" d="M149.471,80.256c-0.021-0.147-0.049-0.281-0.081-0.385c-0.038-0.153-0.099-0.328-0.18-0.508
		c-0.021-0.055-0.048-0.115-0.077-0.168c-0.008-0.011-0.016-0.02-0.02-0.031c-0.088-0.158-0.184-0.305-0.275-0.423
		c-0.005-0.005-0.011-0.013-0.014-0.021c-0.004,0-0.006-0.002-0.006-0.002c-0.073-0.09-0.146-0.164-0.215-0.217
		c-0.008-0.008-0.02-0.017-0.029-0.022c-0.059-0.052-0.121-0.099-0.184-0.14c-0.201-0.136-0.425-0.248-0.676-0.335
		c0,0-0.003,0-0.006-0.001c-0.174-0.07-0.469-0.119-0.803-0.119c-0.004,0-0.014,0.002-0.021,0.002h-0.074h-0.002
		c-0.063,0.003-0.125,0.006-0.186,0.01c-0.038,0.002-0.08,0.004-0.119,0.014c-0.01,0-0.018,0-0.023,0.002
		c-0.113,0.017-0.218,0.037-0.297,0.063c-0.098,0.018-0.192,0.049-0.289,0.087c-0.707,0.296-1.209,0.8-1.504,1.516
		c-0.025,0.062-0.049,0.129-0.07,0.196c-0.059,0.188-0.104,0.419-0.123,0.681l-0.004,0.019v0.018
		c-0.002,0.052-0.004,0.104-0.004,0.157c0,0.011,0,0.021,0,0.034v0.039c0,0.438,0.074,0.828,0.19,1.085
		c0.017,0.068,0.047,0.137,0.072,0.203c0.11,0.241,0.253,0.452,0.423,0.636c0.173,0.181,0.367,0.341,0.588,0.479
		c0.055,0.035,0.115,0.063,0.18,0.086c0.061,0.021,0.287,0.116,0.389,0.146c0.084,0.027,0.178,0.051,0.282,0.07
		c0.009,0.002,0.017,0.004,0.022,0.004c0.123,0.027,0.242,0.035,0.328,0.037c0.063,0.004,0.123,0.007,0.188,0.007h0.053h0.02
		c0.694-0.04,0.805-0.108,1.152-0.229c0.227-0.085,0.267-0.122,0.43-0.237c0.189-0.137,0.359-0.319,0.514-0.545
		c0.053-0.074,0.102-0.152,0.144-0.228s0.081-0.159,0.112-0.259c0.013-0.032,0.02-0.074,0.016-0.121c0-0.02-0.003-0.037-0.009-0.05
		c-0.013-0.064-0.057-0.11-0.11-0.11h-0.226c-0.021-0.003-0.043-0.003-0.066-0.001c-0.009,0.001-0.019,0.001-0.025,0.001h-0.344
		c-0.017,0-0.034,0-0.052-0.001c-0.031,0-0.061,0-0.089,0.001h-0.065c-0.043,0-0.155,0.039-0.223,0.122
		c-0.021,0.028-0.051,0.065-0.074,0.091c-0.039,0.049-0.061,0.073-0.102,0.118c-0.054,0.058-0.063,0.06-0.148,0.115
		c-0.088,0.055-0.166,0.101-0.234,0.134c-0.002,0.002-0.002,0.002-0.002,0.004c-0.076,0.039-0.183,0.069-0.307,0.09
		c-0.018,0.004-0.034,0.01-0.052,0.012h-0.027c-0.047,0.004-0.093,0.008-0.14,0.008c-0.051,0.006-0.111,0.006-0.174,0h-0.004
		c-0.209-0.008-0.392-0.049-0.509-0.109c-0.021-0.009-0.041-0.021-0.063-0.032c-0.14-0.084-0.245-0.177-0.326-0.285
		c-0.077-0.106-0.153-0.235-0.209-0.401c-0.003-0.006-0.015-0.037-0.017-0.044c-0.012-0.04-0.015-0.071-0.023-0.132
		c0-0.027-0.006-0.053-0.006-0.076c-0.004-0.023,0-0.051,0.006-0.076c0.006-0.037,0.019-0.065,0.034-0.079
		c0.003-0.009,0.009-0.015,0.017-0.02c0.012-0.028,0.045-0.056,0.102-0.084c0.033-0.013,0.072-0.021,0.117-0.021h0.141h2.516
		c0.059,0,0.132,0.002,0.209,0.006c0.08,0.004,0.159,0.004,0.238,0c0.078-0.004,0.15-0.011,0.215-0.021
		c0.064-0.01,0.118-0.027,0.15-0.055c0.035-0.021,0.061-0.068,0.072-0.135c0.01-0.051,0.02-0.217,0.015-0.26
		C149.506,80.447,149.492,80.415,149.471,80.256 M147.936,80.03c-0.035,0.056-0.105,0.084-0.207,0.087
		c-0.11,0.004-0.212,0.007-0.307,0.007h-1.146h-0.278c-0.097,0-0.172-0.019-0.224-0.052c-0.036-0.027-0.059-0.063-0.067-0.105
		c-0.011-0.039-0.013-0.084-0.006-0.126c0.006-0.046,0.022-0.093,0.037-0.135c0.017-0.047,0.03-0.082,0.044-0.11
		c0.146-0.279,0.367-0.47,0.672-0.564c0.033-0.015,0.073-0.025,0.117-0.036c0.047-0.013,0.146-0.026,0.176-0.031
		c0.03-0.003,0.458-0.056,0.738,0.165c0.146,0.116,0.286,0.243,0.381,0.427c0.02,0.047,0.049,0.122,0.088,0.224
		C147.989,79.878,147.984,79.961,147.936,80.03"/>
	<path fill="#FFFFFF" d="M155.959,73.647c-3.379,0-6.119,2.738-6.119,6.116c0,3.377,2.74,6.115,6.119,6.115
		c3.375,0,6.112-2.738,6.112-6.115C162.071,76.386,159.334,73.647,155.959,73.647 M153.857,83.302
		c-0.022,0.048-0.09,0.085-0.184,0.112c-0.047,0.016-0.1,0.018-0.155,0.009c-0.056-0.005-0.112-0.009-0.164-0.009h-0.61
		c-0.072,0-0.144-0.002-0.209-0.01c-0.066-0.007-0.119-0.027-0.16-0.061c-0.033-0.036-0.057-0.086-0.061-0.154
		c-0.006-0.068-0.013-0.143-0.013-0.217v-0.896v-3.764v-1.504c0-0.096,0-0.209-0.006-0.339c0-0.132,0.015-0.222,0.05-0.277
		c0.025-0.044,0.07-0.077,0.133-0.104c0.021,0,0.04-0.002,0.057-0.006s0.03-0.006,0.047-0.006h0.885c0.077,0,0.15,0.002,0.217,0.006
		c0.068,0.004,0.119,0.031,0.154,0.077c0.034,0.048,0.053,0.11,0.057,0.185c0.003,0.076,0.006,0.16,0.006,0.249v0.896v3.578v1.687
		c0,0.093,0.001,0.19,0.004,0.302C153.906,83.164,153.892,83.246,153.857,83.302 M159.899,80.199v0.916v1.671
		c0,0.13-0.003,0.259-0.005,0.376c-0.007,0.121-0.055,0.198-0.147,0.23c-0.044,0.014-0.092,0.021-0.146,0.021h-0.168h-0.554
		c-0.083,0-0.157-0.004-0.221-0.014c-0.066-0.013-0.12-0.04-0.152-0.09c-0.027-0.04-0.042-0.093-0.046-0.159
		c-0.004-0.063-0.004-0.134-0.004-0.21V82.22v-1.535c0-0.255-0.013-0.492-0.032-0.708c-0.02-0.213-0.085-0.398-0.185-0.55
		c-0.082-0.116-0.194-0.202-0.34-0.263c-0.096-0.047-0.249-0.077-0.424-0.077c-0.199,0-0.377,0.043-0.464,0.106
		c-0.071,0.027-0.13,0.061-0.185,0.1c-0.22,0.157-0.352,0.388-0.392,0.689c-0.04,0.305-0.063,0.645-0.063,1.02v1.29v0.627v0.187
		c0,0.061-0.01,0.113-0.029,0.154c-0.031,0.076-0.09,0.121-0.167,0.133c-0.075,0.014-0.167,0.021-0.277,0.021h-0.515
		c-0.075,0-0.15-0.002-0.227-0.01c-0.075-0.007-0.129-0.029-0.164-0.072c-0.047-0.062-0.07-0.149-0.066-0.267
		c0.003-0.118,0.006-0.229,0.006-0.33v-1.403v-2.265v-0.526c0-0.076,0.002-0.146,0.002-0.207c0.003-0.063,0.025-0.112,0.059-0.155
		c0.016-0.02,0.035-0.034,0.068-0.046c0.029-0.008,0.064-0.02,0.096-0.026h0.053c0.035-0.007,0.068-0.009,0.105-0.009h0.113h0.43
		c0.055,0,0.109,0,0.159,0.004c0.052,0.004,0.099,0.012,0.141,0.027c0.049,0.02,0.079,0.05,0.099,0.093
		c0.014,0.036,0.014,0.075,0.026,0.121c0.028,0.118,0.06,0.249,0.147,0.259c0.039,0.004,0.081-0.013,0.116-0.047
		c0.017-0.01,0.06-0.053,0.072-0.071c0.046-0.058,0.139-0.142,0.198-0.178c0.039-0.028,0.068-0.048,0.099-0.069
		c0.102-0.067,0.248-0.134,0.427-0.184c0.004-0.002,0.012-0.004,0.02-0.006c0.057-0.021,0.113-0.033,0.175-0.04
		c0.03-0.006,0.056-0.011,0.082-0.015c0.228-0.038,0.442-0.047,0.604-0.027c0.289,0.018,0.537,0.075,0.744,0.176
		c0.278,0.129,0.496,0.32,0.652,0.576c0.05,0.074,0.086,0.156,0.113,0.24s0.056,0.174,0.082,0.262
		c0.012,0.058,0.023,0.107,0.025,0.156c0.006,0.049,0.015,0.096,0.025,0.145c0,0.043,0.006,0.068,0.012,0.08
		c0.016,0.1,0.021,0.197,0.021,0.303V80.199z"/>
	<path fill="#FFFFFF" d="M124.805,72.109c0.013,0.042,0.022,0.113,0.022,0.211c0,0.1-0.005,0.17-0.011,0.211
		c0,0.035-0.003,0.063-0.004,0.087c-0.008,0.026-0.008,0.054-0.008,0.088c-0.013,0.055-0.021,0.106-0.021,0.159
		c0,0.052-0.007,0.105-0.021,0.16c0,0.027-0.005,0.076-0.02,0.145c-0.019,0.08-0.039,0.166-0.057,0.251
		c-0.017,0.085-0.043,0.167-0.076,0.241c-0.124,0.309-0.28,0.577-0.462,0.805c-0.186,0.224-0.43,0.402-0.729,0.531
		c-0.062,0.029-0.128,0.049-0.193,0.066c-0.063,0.019-0.134,0.036-0.208,0.059c-0.042,0.014-0.083,0.021-0.129,0.021
		c-0.044,0-0.09,0.002-0.132,0.008h-0.09c-0.041,0.016-0.095,0.021-0.165,0.016c-0.069-0.002-0.121-0.011-0.164-0.023h-0.064
		c-0.033-0.008-0.072-0.014-0.111-0.018c-0.039-0.001-0.081-0.007-0.122-0.014c-0.13-0.034-0.253-0.071-0.36-0.104
		c-0.107-0.032-0.213-0.083-0.309-0.144c-0.041-0.027-0.081-0.053-0.118-0.082c-0.038-0.027-0.072-0.059-0.11-0.093
		c-0.017-0.013-0.037-0.026-0.058-0.042c-0.022-0.012-0.044-0.023-0.065-0.029c-0.059-0.021-0.1-0.008-0.109,0.041
		c-0.037,0.049-0.057,0.104-0.068,0.17c-0.012,0.064-0.036,0.113-0.078,0.148c-0.041,0.027-0.088,0.043-0.145,0.047
		c-0.055,0.004-0.115,0.004-0.184,0.004h-0.494c-0.047,0-0.098,0.002-0.147,0.006c-0.056,0.002-0.098-0.002-0.14-0.016
		c-0.096-0.033-0.15-0.098-0.159-0.189c-0.011-0.094-0.015-0.197-0.015-0.314v-6.271v-0.237c0-0.083,0.016-0.148,0.049-0.195
		c0.029-0.049,0.076-0.08,0.145-0.094c0.015-0.006,0.029-0.008,0.048-0.004c0.017,0.004,0.03,0.001,0.043-0.006h0.651
		c0.121,0,0.229,0.006,0.316,0.016c0.089,0.012,0.148,0.063,0.178,0.159c0.018,0.068,0.025,0.159,0.018,0.272
		s-0.008,0.211-0.008,0.292v1.122v0.227c0,0.075,0.003,0.141,0.018,0.194c0.006,0.035,0.016,0.065,0.023,0.089
		c0.006,0.022,0.025,0.039,0.049,0.045c0.015,0.016,0.031,0.02,0.056,0.02c0.028,0,0.046-0.002,0.061-0.009
		c0.047-0.028,0.089-0.056,0.134-0.087c0.039-0.031,0.084-0.063,0.133-0.099c0.088-0.061,0.181-0.112,0.275-0.159
		c0.098-0.043,0.201-0.082,0.321-0.119c0.055-0.02,0.106-0.031,0.163-0.035c0.055-0.002,0.111-0.012,0.167-0.027
		c0.044-0.013,0.099-0.02,0.152-0.02h0.165h0.102c0.019,0.007,0.045,0.008,0.07,0.006c0.03-0.004,0.057,0,0.083,0.007
		c0.074,0.019,0.147,0.034,0.213,0.044c0.065,0.013,0.128,0.031,0.188,0.057c0.314,0.131,0.571,0.299,0.771,0.505
		c0.199,0.206,0.366,0.463,0.504,0.77c0.035,0.084,0.064,0.17,0.092,0.259c0.021,0.089,0.044,0.182,0.076,0.277
		c0.01,0.049,0.021,0.095,0.023,0.138c0.003,0.045,0.012,0.095,0.023,0.149c0.014,0.037,0.02,0.072,0.018,0.113
		c-0.006,0.041-0.004,0.084,0.004,0.125V72.109z M123.285,73.075c0.02-0.069,0.037-0.152,0.055-0.257
		c0.018-0.102,0.025-0.206,0.03-0.313c0.005-0.105,0.005-0.211,0-0.318c-0.005-0.105-0.013-0.198-0.034-0.273
		c-0.022-0.068-0.037-0.135-0.043-0.197c-0.005-0.059-0.023-0.116-0.051-0.172c-0.096-0.242-0.229-0.443-0.406-0.611
		c-0.174-0.168-0.43-0.252-0.766-0.252c-0.026,0-0.052,0.002-0.07,0.004c-0.022,0.004-0.045,0.007-0.073,0.007
		c-0.051,0.012-0.095,0.022-0.132,0.034c-0.043,0.013-0.084,0.023-0.127,0.038c-0.197,0.088-0.35,0.211-0.453,0.372
		c-0.101,0.162-0.186,0.347-0.254,0.553c-0.023,0.055-0.034,0.111-0.038,0.168c-0.003,0.059-0.012,0.115-0.025,0.172
		c-0.007,0.02-0.01,0.055-0.01,0.1c-0.007,0.029-0.007,0.059-0.005,0.084c0.002,0.027,0.002,0.057-0.002,0.082
		c-0.019,0.057-0.021,0.129-0.016,0.229c0.008,0.094,0.02,0.162,0.032,0.204c0.014,0.062,0.022,0.118,0.025,0.173
		c0.004,0.055,0.015,0.11,0.038,0.165c0.059,0.193,0.136,0.358,0.221,0.499c0.087,0.14,0.207,0.26,0.363,0.355
		c0.115,0.068,0.221,0.117,0.34,0.145c0.014,0,0.032,0.002,0.047,0.006c0.014,0.002,0.035,0.005,0.058,0.005
		c0.021,0.005,0.055,0.012,0.103,0.015c0.047,0.002,0.088,0.001,0.123-0.008c0.069-0.012,0.133-0.025,0.189-0.034
		c0.061-0.009,0.113-0.024,0.17-0.045c0.191-0.09,0.341-0.214,0.447-0.372C123.129,73.474,123.216,73.288,123.285,73.075"/>
	<path fill="#FFFFFF" d="M125.019,69.703h0.78h0.203c0.072,0,0.131,0.016,0.18,0.041c0.083,0.055,0.137,0.143,0.168,0.258
		c0.033,0.117,0.063,0.224,0.096,0.318c0.035,0.082,0.068,0.17,0.088,0.26c0.027,0.086,0.054,0.173,0.086,0.254
		c0.056,0.159,0.109,0.314,0.157,0.469c0.046,0.154,0.099,0.308,0.153,0.459l0.217,0.645c0.021,0.063,0.037,0.128,0.057,0.193
		c0.017,0.064,0.039,0.128,0.067,0.189c0.019,0.055,0.042,0.117,0.068,0.185c0.021,0.068,0.071,0.098,0.147,0.092
		c0.013-0.013,0.025-0.022,0.035-0.027c0.012,0,0.023-0.01,0.035-0.022c0.021-0.035,0.04-0.072,0.053-0.104
		c0.015-0.034,0.027-0.067,0.043-0.102c0.033-0.075,0.061-0.156,0.08-0.241c0.021-0.088,0.044-0.171,0.07-0.252
		c0.1-0.287,0.189-0.574,0.281-0.855c0.088-0.281,0.178-0.564,0.275-0.854c0.035-0.095,0.066-0.19,0.086-0.282
		c0.023-0.091,0.055-0.183,0.088-0.271c0.021-0.056,0.041-0.108,0.058-0.161c0.017-0.052,0.05-0.094,0.099-0.128
		c0.04-0.033,0.092-0.052,0.152-0.056c0.063,0,0.132-0.006,0.207-0.006h0.627c0.068,0,0.131,0.006,0.196,0.011
		c0.06,0.006,0.106,0.028,0.146,0.062c0.039,0.049,0.045,0.111,0.019,0.185c-0.013,0.056-0.03,0.111-0.052,0.165
		s-0.041,0.111-0.061,0.166c-0.096,0.238-0.191,0.483-0.279,0.734c-0.09,0.25-0.178,0.496-0.277,0.736
		c-0.041,0.101-0.078,0.206-0.111,0.311c-0.037,0.107-0.074,0.213-0.113,0.315c-0.035,0.094-0.071,0.188-0.104,0.278
		c-0.035,0.088-0.069,0.18-0.104,0.277c-0.137,0.342-0.264,0.686-0.387,1.033c-0.12,0.345-0.246,0.688-0.385,1.021
		c-0.021,0.049-0.037,0.094-0.043,0.137c-0.013,0.039-0.028,0.082-0.049,0.121c-0.056,0.131-0.107,0.256-0.153,0.38
		c-0.05,0.124-0.099,0.243-0.154,0.355s-0.121,0.218-0.194,0.313c-0.076,0.096-0.172,0.181-0.281,0.257
		c-0.086,0.063-0.186,0.112-0.292,0.149c-0.106,0.039-0.221,0.074-0.347,0.109c-0.052,0.014-0.107,0.02-0.164,0.02
		c-0.053,0-0.107,0.006-0.163,0.02h-0.267h-0.195c-0.076,0-0.15-0.002-0.222-0.01c-0.072-0.007-0.139-0.014-0.193-0.024
		c-0.058-0.013-0.099-0.024-0.13-0.048c-0.033-0.026-0.055-0.061-0.064-0.097c-0.012-0.037-0.027-0.086-0.04-0.139v-0.247v-0.37
		c0-0.131,0.044-0.213,0.126-0.246c0.033-0.015,0.08-0.023,0.138-0.027c0.058-0.001,0.106,0,0.149,0.019h0.254h0.123
		c0.029-0.011,0.059-0.013,0.086-0.013s0.055-0.006,0.083-0.021c0.212-0.061,0.347-0.202,0.408-0.419
		c0.015-0.029,0.03-0.07,0.04-0.125c0.018-0.057,0.018-0.103,0-0.144c-0.01-0.034-0.018-0.069-0.018-0.103s-0.008-0.068-0.022-0.103
		c-0.04-0.137-0.083-0.274-0.134-0.407c-0.042-0.133-0.1-0.266-0.15-0.395c-0.055-0.133-0.106-0.262-0.15-0.393
		c-0.045-0.129-0.092-0.26-0.15-0.391c-0.034-0.084-0.063-0.166-0.086-0.247c-0.024-0.082-0.055-0.163-0.088-0.245
		c-0.109-0.262-0.209-0.529-0.304-0.804c-0.091-0.272-0.193-0.541-0.305-0.801c-0.011-0.026-0.018-0.052-0.018-0.066
		c0-0.02-0.008-0.037-0.022-0.06c-0.054-0.121-0.101-0.246-0.139-0.375c-0.038-0.125-0.086-0.246-0.137-0.363
		c-0.017-0.041-0.037-0.1-0.066-0.18c-0.033-0.078-0.035-0.146-0.018-0.199c0.02-0.057,0.064-0.092,0.133-0.104
		c0.016-0.005,0.025-0.005,0.037-0.005C124.991,69.713,125.006,69.711,125.019,69.703"/>
</g>
<g>
	<path fill="#FFFFFF" d="M14.007,4.292c0.316,0.256,0.646,0.443,0.948,0.641c0.59,0.389,1.242,0.768,1.682,1.236
		c0.23,0.231,0.42,0.493,0.587,0.731c0.165,0.244,0.306,0.476,0.394,0.716c0.176,0.473,0.146,0.923,0.052,1.441
		c-0.179,1.054-0.825,2.231-1.46,3.524l0.106,0.126c0.718-0.254,1.321-0.685,1.864-1.214c0.531-0.537,0.989-1.199,1.221-2.034
		c0.238-0.815,0.089-1.833-0.389-2.574c-0.459-0.768-1.178-1.219-1.877-1.482c-0.352-0.146-0.711-0.247-1.012-0.372
		c-0.311-0.133-0.6-0.308-0.846-0.53c-0.504-0.431-0.73-1.135-0.672-1.541c0.02-0.205,0.057-0.375,0.126-0.601
		c0.076-0.215,0.204-0.458,0.37-0.704c0.322-0.5,0.758-1.013,1.196-1.606l-0.074-0.147c-0.39,0.021-0.753,0.125-1.097,0.273
		c-0.354,0.143-0.682,0.345-0.984,0.603c-0.303,0.264-0.583,0.591-0.777,1.01c-0.197,0.414-0.273,0.95-0.124,1.423
		C13.389,3.684,13.693,4.042,14.007,4.292z"/>
	<path fill="#FFFFFF" d="M20.516,7.329c0.244,0.166,0.479,0.268,0.683,0.392c0.398,0.238,0.827,0.517,1.062,0.862
		c0.25,0.349,0.401,0.684,0.478,0.927c0.058,0.264,0.01,0.456-0.022,0.741c-0.034,0.276-0.131,0.628-0.248,1.02
		c-0.123,0.396-0.281,0.813-0.417,1.313l0.108,0.124c0.535-0.097,0.979-0.348,1.377-0.678c0.393-0.334,0.736-0.785,0.909-1.376
		c0.18-0.586,0.056-1.344-0.312-1.872c-0.342-0.551-0.879-0.836-1.376-0.969c-0.248-0.074-0.503-0.124-0.697-0.192
		c-0.202-0.071-0.386-0.18-0.534-0.33c-0.319-0.289-0.359-0.809-0.253-0.968c0.042-0.086,0.059-0.135,0.078-0.247
		c0.032-0.108,0.089-0.249,0.165-0.406c0.162-0.325,0.396-0.689,0.623-1.17l-0.074-0.147c-0.283-0.04-0.541,0.002-0.792,0.076
		c-0.257,0.069-0.493,0.192-0.712,0.364c-0.223,0.173-0.429,0.399-0.574,0.707c-0.152,0.295-0.207,0.709-0.08,1.066
		C20.033,6.927,20.279,7.171,20.516,7.329z"/>
	<g>
		<path fill="#FFFFFF" d="M10.39,50.642c-0.499,0.486-1.268,0.881-2.252,0.765c-1.589-0.188-2.684-1.328-2.748-2.936
			c-0.066-1.658,1.208-2.458,2.208-2.332c0.76,0.098,1.115,0.537,1.187,0.632c0.054-0.127,0.108-0.254,0.163-0.381
			c0.398,0.046,0.797,0.09,1.197,0.132c0.018,0.677,0.035,1.354,0.053,2.031c-0.451-0.045-0.904-0.095-1.355-0.146
			c-0.037-0.469-0.293-0.934-0.833-1c-0.546-0.066-0.88,0.525-0.853,1.31c0.025,0.712,0.43,1.403,1.146,1.487
			c0.634,0.074,1.112-0.504,1.179-0.568C9.784,49.972,10.088,50.309,10.39,50.642z"/>
		<path fill="#FFFFFF" d="M10.574,49.033c-0.042-1.548,1.029-2.495,2.611-2.375c1.875,0.14,2.761,1.214,2.777,2.812
			c0.018,1.601-0.924,2.548-2.625,2.435C11.764,51.798,10.621,50.82,10.574,49.033z M14.064,49.365
			c-0.014-0.861-0.278-1.566-0.865-1.61c-0.465-0.042-0.771,0.56-0.752,1.444c0.02,0.934,0.387,1.554,0.869,1.587
			C13.793,50.818,14.078,50.246,14.064,49.365z"/>
		<path fill="#FFFFFF" d="M20.818,47.098c0,0.52-0.002,1.038-0.004,1.557c-0.449-0.001-0.898-0.005-1.348-0.011
			c-0.002-0.21-0.002-0.419-0.002-0.628c-0.385-0.007-0.77-0.016-1.153-0.025c0.001,0.41,0.004,0.82,0.006,1.23
			c0.482,0.012,0.964,0.021,1.446,0.026c0,0.313,0,0.626,0,0.938c-0.48-0.006-0.961-0.014-1.441-0.024
			c0.002,0.3,0.003,0.599,0.004,0.898c0.258,0.005,0.516,0.011,0.771,0.015c0.002,0.313,0.003,0.625,0.004,0.939
			c-0.936-0.014-1.873-0.039-2.809-0.076c-0.003-0.315-0.007-0.629-0.01-0.943c0.156,0.006,0.313,0.012,0.469,0.019
			c-0.01-1.026-0.02-2.052-0.028-3.075c-0.158-0.006-0.315-0.014-0.474-0.021c-0.003-0.312-0.006-0.624-0.01-0.936
			C17.766,47.053,19.293,47.092,20.818,47.098z"/>
		<path fill="#FFFFFF" d="M25.705,47.008c-0.009,0.516-0.018,1.031-0.025,1.547c-0.449,0.02-0.898,0.037-1.35,0.051
			c0.003-0.209,0.005-0.416,0.008-0.625c-0.385,0.012-0.769,0.021-1.152,0.028c-0.004,0.407-0.008,0.815-0.012,1.222
			c0.482-0.01,0.965-0.022,1.445-0.039c-0.004,0.311-0.008,0.621-0.012,0.932c-0.48,0.018-0.961,0.031-1.441,0.043
			c-0.002,0.297-0.006,0.594-0.009,0.892c0.258-0.005,0.515-0.013,0.772-0.021c-0.004,0.311-0.008,0.622-0.01,0.934
			c-0.938,0.029-1.873,0.047-2.81,0.051c0.001-0.313,0.003-0.624,0.003-0.938c0.156,0,0.313-0.001,0.469-0.002
			c0.006-1.018,0.009-2.037,0.014-3.055c-0.158,0-0.315,0-0.474,0c0.001-0.309,0.001-0.619,0.003-0.929
			C22.651,47.1,24.18,47.07,25.705,47.008z"/>
		<path fill="#FFFFFF" d="M30.623,46.691c-0.016,0.514-0.031,1.026-0.048,1.539c-0.438,0.039-0.877,0.076-1.315,0.109
			c0.005-0.206,0.011-0.414,0.017-0.62c-0.407,0.03-0.813,0.06-1.221,0.086c-0.007,0.321-0.015,0.642-0.022,0.964
			c0.482-0.031,0.963-0.066,1.445-0.105c-0.009,0.31-0.018,0.619-0.025,0.928c-0.48,0.039-0.961,0.074-1.441,0.106
			c-0.008,0.379-0.018,0.759-0.026,1.138c0.403-0.027,0.806-0.057,1.21-0.09c0.005-0.216,0.012-0.432,0.018-0.648
			c0.436-0.035,0.873-0.072,1.309-0.112c-0.017,0.524-0.033,1.05-0.049,1.575c-1.513,0.141-3.029,0.25-4.545,0.327
			c0.006-0.312,0.01-0.62,0.016-0.931c0.159-0.008,0.318-0.016,0.477-0.025c0.019-1.012,0.037-2.023,0.057-3.035
			c-0.162,0.008-0.321,0.014-0.48,0.021c0.004-0.307,0.01-0.615,0.015-0.924C27.549,46.927,29.087,46.826,30.623,46.691z"/>
		<path fill="#FFFFFF" d="M35.604,46.141c-0.023,0.511-0.047,1.021-0.07,1.531c-0.438,0.06-0.875,0.117-1.312,0.171
			c0.009-0.206,0.017-0.411,0.026-0.617c-0.406,0.05-0.811,0.097-1.217,0.142c-0.013,0.32-0.024,0.64-0.037,0.959
			c0.48-0.055,0.961-0.111,1.44-0.172c-0.014,0.307-0.026,0.615-0.04,0.923c-0.479,0.061-0.957,0.118-1.436,0.173
			c-0.016,0.378-0.029,0.755-0.043,1.133c0.4-0.047,0.803-0.096,1.204-0.146c0.009-0.216,0.019-0.431,0.028-0.646
			c0.435-0.055,0.869-0.113,1.304-0.174c-0.024,0.523-0.048,1.045-0.073,1.566c-1.506,0.213-3.018,0.393-4.529,0.539
			c0.01-0.309,0.02-0.616,0.029-0.926c0.159-0.014,0.317-0.03,0.476-0.047c0.033-1.006,0.067-2.012,0.101-3.02
			c-0.16,0.016-0.319,0.031-0.479,0.046c0.01-0.307,0.02-0.612,0.028-0.919C32.541,46.52,34.074,46.347,35.604,46.141z"/>
		<path fill="#FFFFFF" d="M13.223,57.054c0.145,0.01,0.288,0.019,0.432,0.027c-0.02-1.044-0.037-2.089-0.057-3.133
			c-0.145-0.009-0.29-0.019-0.436-0.028c-0.006-0.307-0.012-0.612-0.017-0.92c0.934,0.065,1.868,0.117,2.804,0.156
			c1.249,0.052,1.846,0.5,1.851,1.271c0.003,0.594-0.167,0.881-0.725,1.078c0.538,0.157,0.989,0.54,0.993,1.227
			c0.004,0.994-0.578,1.432-2.01,1.385c-0.939-0.033-1.879-0.078-2.817-0.137C13.235,57.672,13.229,57.363,13.223,57.054z
			 M15.164,55.122c0.152,0.007,0.305,0.014,0.457,0.021c0.396,0.017,0.506-0.186,0.502-0.525c-0.004-0.326-0.217-0.525-0.501-0.539
			c-0.157-0.006-0.315-0.014-0.473-0.021C15.154,54.411,15.159,54.768,15.164,55.122z M15.787,57.186
			c0.313,0.012,0.601-0.206,0.596-0.588c-0.002-0.363-0.223-0.632-0.633-0.648c-0.191-0.008-0.383-0.016-0.574-0.024
			c0.006,0.412,0.012,0.823,0.018,1.235C15.391,57.17,15.59,57.178,15.787,57.186z"/>
		<path fill="#FFFFFF" d="M21.17,58.17c0.002-0.308,0.002-0.615,0.003-0.923c0.235-0.003,0.472-0.007,0.708-0.012
			c-0.053-0.158-0.104-0.316-0.154-0.476c-0.51,0.01-1.02,0.014-1.527,0.016c-0.053,0.16-0.104,0.32-0.156,0.48
			c0.193,0,0.387-0.002,0.58-0.004c0,0.309-0.001,0.616-0.002,0.924c-0.785,0.008-1.572,0.006-2.359-0.006
			c-0.002-0.308-0.003-0.617-0.004-0.926c0.168,0.002,0.338,0.004,0.506,0.006c0.33-1.03,0.664-2.061,1-3.092
			c-0.102,0-0.204,0-0.307-0.002c-0.002-0.305-0.002-0.607-0.002-0.91c0.963,0.008,1.927,0.004,2.89-0.015
			c0.437,1.323,0.866,2.642,1.29,3.954c0.174-0.006,0.348-0.012,0.521-0.02c-0.004,0.307-0.007,0.613-0.011,0.92
			C23.152,58.128,22.162,58.156,21.17,58.17z M21.453,55.92c-0.162-0.505-0.324-1.01-0.488-1.516
			c-0.164,0.508-0.327,1.016-0.49,1.524C20.801,55.928,21.127,55.925,21.453,55.92z"/>
		<path fill="#FFFFFF" d="M26.948,53.047c1.743-0.113,2.063,0.488,2.042,1.287c-0.016,0.543-0.486,0.968-1.107,1.098
			c0.514,0.031,0.964,0.41,0.949,0.912c-0.007,0.301,0.033,0.471,0.166,0.459c0.111-0.01,0.174-0.099,0.177-0.238
			c0.002-0.076,0.005-0.153,0.007-0.23c0.166-0.014,0.33-0.029,0.498-0.045c-0.004,0.129-0.008,0.256-0.012,0.383
			c-0.017,0.578-0.291,1.143-1.111,1.215c-0.969,0.081-1.425-0.371-1.408-1.188c0.014-0.636-0.065-0.782-0.729-0.741
			c-0.006,0.361-0.014,0.724-0.02,1.084c0.15-0.009,0.301-0.02,0.452-0.029c-0.006,0.309-0.013,0.615-0.019,0.923
			c-0.797,0.056-1.596,0.101-2.393,0.138c0.004-0.309,0.008-0.617,0.012-0.926c0.139-0.007,0.278-0.014,0.416-0.02
			c0.015-1.019,0.029-2.037,0.043-3.057c-0.14,0.006-0.279,0.013-0.42,0.018c0.005-0.306,0.008-0.611,0.012-0.918
			C25.319,53.139,26.134,53.098,26.948,53.047z M26.435,55.174c0.112-0.008,0.224-0.014,0.337-0.021
			c0.433-0.027,0.72-0.243,0.729-0.614c0.01-0.411-0.233-0.604-0.668-0.577c-0.125,0.008-0.25,0.016-0.375,0.023
			C26.449,54.381,26.443,54.777,26.435,55.174z"/>
	</g>
	<g>
		<path fill="#FFFFFF" d="M6.046,65.973c0.887,9.84,1.569,17.709,1.569,17.709s10.107,3.769,26.383,0l1.443-17.063
			C30.544,67.461,14.837,69.73,6.046,65.973z"/>
		<path fill="#FFFFFF" d="M3.295,23.555c0.516-0.074,1.141-0.166,1.857-0.269c0.717-0.107,1.527-0.217,2.414-0.309
			c0.886-0.095,1.846-0.197,2.861-0.305c1.016-0.101,2.09-0.211,3.2-0.287c1.112-0.069,2.26-0.176,3.43-0.219
			c1.171-0.052,2.356-0.115,3.547-0.145c1.189-0.028,2.378-0.048,3.551-0.046c1.171-0.018,2.325,0.025,3.442,0.057
			c1.116,0.012,2.195,0.104,3.217,0.175c1.021,0.059,1.986,0.173,2.877,0.262c0.443,0.054,0.871,0.073,1.274,0.148
			c0.402,0.068,0.786,0.132,1.144,0.193c0.359,0.061,0.693,0.118,1.004,0.17c0.311,0.052,0.591,0.131,0.846,0.186
			c0.377,0.083,0.689,0.165,0.938,0.229l-0.75-4.102c-12.057-3.16-34.71-0.114-35.234,0.114c-0.475,0.208-0.797,3.703-0.853,4.352
			c0.015-0.002,0.026-0.005,0.044-0.007C2.378,23.707,2.781,23.626,3.295,23.555z"/>
		<path fill="#FFFFFF" d="M3.1,26.097c0.334,0.023,0.693,0.049,1.078,0.076c0.77,0.054,1.635,0.123,2.586,0.148
			c0.947,0.034,1.974,0.089,3.063,0.095c1.088,0.017,2.232,0.04,3.42,0.031c0.593,0,1.197-0.001,1.807-0.001
			c0.611-0.009,1.229-0.018,1.852-0.027c1.246-0.009,2.512-0.041,3.777-0.079c1.266-0.02,2.531-0.07,3.778-0.11
			c1.246-0.045,2.474-0.091,3.659-0.134c2.375-0.104,4.59-0.2,6.489-0.283c2.392-0.11,4.28-0.197,5.353-0.246
			c0.979-1.42-1.027-1.97-1.027-1.97l-0.014-0.068c-0.258-0.044-0.589-0.1-0.992-0.167c-0.256-0.039-0.537-0.1-0.848-0.133
			c-0.311-0.034-0.646-0.07-1.006-0.109c-0.717-0.079-1.527-0.175-2.416-0.218c-0.887-0.055-1.846-0.132-2.865-0.153
			c-1.02-0.034-2.093-0.076-3.204-0.074c-0.556-0.004-1.12-0.009-1.692-0.014c-0.572,0.006-1.15,0.011-1.734,0.018
			c-1.168,0.006-2.352,0.036-3.537,0.073c-1.186,0.022-2.371,0.075-3.537,0.117c-1.168,0.041-2.314,0.108-3.424,0.159
			c-2.221,0.121-4.292,0.253-6.066,0.384c-2.742,0.199-4.77,0.381-5.551,0.454c-2.127,1.178-0.67,1.597-0.781,1.977
			c-0.004,0.012-0.01,0.027-0.014,0.04c0.258,0.03,0.567,0.067,0.936,0.111C2.463,26.022,2.766,26.075,3.1,26.097z"/>
		<path fill="#FFFFFF" d="M40.393,26.984c-0.145-0.221-0.464-1.259-0.485-1.327c-0.204,0.026-0.435,0.055-0.694,0.085
			c-1.104,0.125-2.68,0.313-4.574,0.487c-1.896,0.181-4.111,0.356-6.486,0.507c-1.188,0.062-2.415,0.153-3.664,0.198
			c-1.25,0.048-2.517,0.107-3.787,0.136c-1.27,0.032-2.539,0.054-3.789,0.055c-1.252,0.02-2.482-0.009-3.674-0.034
			c-1.191-0.009-2.342-0.076-3.433-0.13c-1.092-0.037-2.122-0.141-3.071-0.222c-0.475-0.046-0.93-0.066-1.362-0.13
			c-0.431-0.058-0.839-0.114-1.223-0.166c-0.386-0.052-0.744-0.101-1.075-0.146c-0.332-0.043-0.633-0.116-0.906-0.164
			c-0.37-0.075-0.68-0.137-0.937-0.189c-0.152,0.445-0.565,1.383-0.565,1.383c-1.866,0.949,0.686,0.899,1.603,0.855
			c0.223,1.231,0.6,4.53,1.054,8.944c4.684-0.137,29.117-0.821,34.641-0.314l0.762-9c0.238-0.016,0.795-0.059,1.519-0.143
			C41.217,27.556,40.543,27.213,40.393,26.984z"/>
	</g>
</g>
</svg>
