<?xml version="1.0" encoding="utf-8"?>
<!-- Generator: Adobe Illustrator 16.0.0, SVG Export Plug-In . SVG Version: 6.00 Build 0)  -->
<!DOCTYPE svg PUBLIC "-//W3C//DTD SVG 1.1//EN" "http://www.w3.org/Graphics/SVG/1.1/DTD/svg11.dtd">
<svg version="1.1" id="Capa_1" xmlns="http://www.w3.org/2000/svg" xmlns:xlink="http://www.w3.org/1999/xlink" x="0px" y="0px"
	 width="195px" height="65.931px" viewBox="0 0 195 65.931" enable-background="new 0 0 195 65.931" xml:space="preserve">
<g>
	<g>
		<polygon fill="#FF4833" points="50.363,57.641 45.713,50.746 41.016,57.641 35.053,57.641 42.283,47.151 35.475,37.213 
			41.482,37.213 45.713,43.513 49.896,37.213 55.904,37.213 49.051,47.151 56.369,57.641 		"/>
		<path fill="#FF4833" d="M55.938,31.798c0-1.775,1.48-3.171,3.211-3.171c1.777,0,3.217,1.396,3.217,3.171
			c0,1.777-1.439,3.215-3.217,3.215C57.418,35.013,55.938,33.575,55.938,31.798 M56.488,37.213h5.369v20.429h-5.369V37.213z"/>
		<polygon fill="#FF4833" points="70.357,57.641 62.154,37.213 67.904,37.213 73.234,51.424 78.564,37.213 84.357,37.213 
			76.154,57.641 		"/>
		<path fill="#FF4833" d="M82.496,47.405c0-5.922,4.352-10.703,10.572-10.703c6.09,0,10.234,4.569,10.234,11.251v1.186h-15.18
			c0.336,2.58,2.406,4.737,5.877,4.737c1.732,0,4.143-0.762,5.453-2.029l2.371,3.466c-2.029,1.861-5.244,2.835-8.42,2.835
			C87.189,58.147,82.496,53.959,82.496,47.405 M93.068,40.977c-3.342,0-4.779,2.494-5.031,4.525H98.1
			C97.977,43.555,96.619,40.977,93.068,40.977"/>
		<rect x="104.23" y="29.432" fill="#FF4833" width="5.373" height="28.21"/>
		<path fill="#FF4833" d="M112.9,60.968c0.414,0.159,1.188,0.182,1.691,0.182c1.396,0,2.328-0.379,2.834-1.481l0.762-1.732
			l-8.289-20.723h5.752l5.33,14.211l5.326-14.211h5.797l-9.6,23.768c-1.523,3.853-4.23,4.863-7.742,4.95
			c-0.637,0-1.188-0.023-1.863-0.191L112.9,60.968z"/>
		<path fill="#FF4833" d="M193.561,46.391c-0.01,0.007-0.02,0.008-0.031,0.012c-0.006,0.004-0.016,0.007-0.027,0.009
			c-0.01,0.008-0.02,0.012-0.025,0.018c-0.01,0.006-0.014,0.013-0.014,0.023c0,0.005,0,0.008,0,0.008
			c0.004,0.009,0.004,0.013,0.004,0.015c0.006,0.012,0.01,0.021,0.016,0.028c0.008,0.009,0.01,0.017,0.02,0.025l0.121,0.188
			c0.01,0.013,0.016,0.021,0.021,0.03c0.004,0.011,0.012,0.021,0.012,0.032c0.008,0.012,0.004,0.024,0,0.037
			c-0.008,0-0.016,0.002-0.016,0.002s-0.014,0-0.023,0.003c-0.008,0.001-0.018,0.001-0.033,0c-0.006-0.003-0.016-0.005-0.016-0.005
			c-0.01,0-0.014,0-0.02-0.004c-0.014-0.009-0.023-0.02-0.031-0.033c-0.006-0.012-0.016-0.024-0.025-0.034l-0.125-0.207
			c-0.014-0.015-0.023-0.03-0.029-0.048c-0.012-0.016-0.025-0.03-0.041-0.043c-0.008-0.006-0.018-0.007-0.029-0.008
			c-0.014,0-0.027-0.003-0.039-0.003h-0.021c-0.008,0.004-0.018,0.005-0.025,0.008s-0.014,0.005-0.021,0.013
			c-0.006,0.011-0.008,0.022-0.008,0.038v0.054v0.165v0.044c0,0.013,0,0.028-0.006,0.039c-0.006,0.007-0.01,0.012-0.021,0.02
			c-0.01,0.002-0.02,0.005-0.031,0.005s-0.021,0-0.033,0c-0.012-0.003-0.023-0.005-0.031-0.009c-0.006-0.009-0.006-0.009-0.01-0.02
			v-0.018V46.76c-0.008-0.005-0.008-0.015-0.008-0.026c0,0,0.008-0.017,0.008-0.026v-0.69V45.98c0-0.011,0-0.021,0.004-0.03
			c0.006-0.008,0.012-0.01,0.025-0.016c0.004,0,0.004-0.002,0.004-0.002h0.014h0.213c0.064,0,0.121,0.002,0.168,0.008
			c0.053,0,0.092,0.015,0.135,0.045c0.012,0.008,0.027,0.021,0.035,0.031c0.023,0.029,0.039,0.063,0.047,0.1l0.004,0.039v0.017
			c0.006,0.014,0.006,0.03,0,0.047c-0.002,0.023-0.008,0.037-0.008,0.046c-0.012,0.029-0.021,0.055-0.043,0.075
			C193.602,46.355,193.584,46.376,193.561,46.391 M193.268,46.327c0.029,0,0.055,0,0.072,0c0.027,0,0.053-0.005,0.068-0.005
			c0.025-0.008,0.037-0.012,0.059-0.019c0.014-0.007,0.025-0.018,0.037-0.034c0.014-0.014,0.021-0.034,0.021-0.052
			c0.006-0.02,0.01-0.036,0.004-0.057c-0.004-0.018-0.004-0.03-0.012-0.041c-0.006-0.023-0.025-0.04-0.045-0.053
			c-0.025-0.009-0.043-0.016-0.076-0.021c-0.029-0.004-0.057-0.009-0.092-0.009h-0.098c0,0-0.004,0-0.008,0.002
			c-0.002,0.003-0.008,0.003-0.01,0.003c-0.012,0.004-0.021,0.01-0.029,0.021c-0.004,0.004-0.004,0.01-0.006,0.015
			c0,0,0,0.011-0.002,0.016v0.021c0,0.009-0.004,0.017,0,0.027v0.026v0.075c-0.004,0.028,0,0.051,0.008,0.063
			c0.012,0.013,0.023,0.021,0.047,0.021C193.229,46.327,193.25,46.327,193.268,46.327"/>
		<path fill="#FF4833" d="M193.301,47.267c-0.49,0-0.893-0.396-0.893-0.891c0-0.488,0.402-0.887,0.893-0.887
			s0.887,0.398,0.887,0.887C194.188,46.87,193.791,47.267,193.301,47.267 M193.301,45.63c-0.414,0-0.75,0.333-0.75,0.746
			c0,0.412,0.336,0.748,0.75,0.748c0.41,0,0.746-0.336,0.746-0.748C194.047,45.963,193.711,45.63,193.301,45.63"/>
		<path fill="#FF4833" d="M144.43,57.159v-0.622V56.28c0-0.082-0.025-0.147-0.07-0.206c-0.029-0.033-0.084-0.059-0.172-0.077
			c-0.086-0.02-0.176-0.03-0.277-0.035c-0.1-0.004-0.201-0.004-0.305,0c-0.113,0.005-0.203,0.009-0.273,0.009h-1.826h-0.555
			c-0.191,0-0.316-0.06-0.379-0.176c-0.016-0.047-0.027-0.098-0.031-0.157c-0.008-0.057-0.008-0.119-0.008-0.183V55.32
			c0-0.082-0.012-0.104-0.008-0.176c0.004-0.066-0.01-0.161-0.01-0.229v-0.803v-4.096v-1.232v-0.326
			c0-0.107-0.018-0.188-0.066-0.254c-0.045-0.062-0.117-0.099-0.211-0.103c-0.094-0.003-0.189-0.006-0.289-0.006h-1.145
			c-0.025,0.008-0.041,0.01-0.057,0.006c-0.018-0.003-0.037,0-0.057,0.006c-0.105,0.029-0.178,0.074-0.217,0.139
			c-0.025,0.044-0.041,0.107-0.047,0.19c-0.004,0.077-0.004,0.161-0.004,0.243v0.848v3.059v3.586v0.948v0.248
			c0,0.085,0.014,0.154,0.051,0.21c0.049,0.071,0.115,0.113,0.211,0.127c0.094,0.015,0.205,0.023,0.332,0.023h0.973h2.865h0.963
			h0.256c0.088,0,0.156-0.02,0.201-0.057c0.055-0.025,0.1-0.074,0.137-0.149c0.018-0.044,0.027-0.1,0.023-0.161
			C144.43,57.302,144.43,57.232,144.43,57.159"/>
		<path fill="#FF4833" d="M151.756,54.197v-0.075c-0.012-0.346-0.059-0.661-0.127-0.884c-0.006-0.012-0.006-0.02-0.006-0.027
			c-0.021-0.081-0.041-0.16-0.068-0.23c-0.049-0.126-0.088-0.245-0.121-0.357c-0.037-0.112-0.088-0.219-0.15-0.318
			c-0.064-0.1-0.123-0.196-0.182-0.282c-0.061-0.091-0.125-0.184-0.199-0.273c-0.07-0.099-0.156-0.193-0.264-0.276
			c-0.102-0.085-0.205-0.164-0.303-0.237c-0.17-0.12-0.355-0.225-0.561-0.313c-0.293-0.201-0.918-0.338-1.639-0.338
			c-0.018,0-0.037,0.001-0.051,0.001h-0.131c-0.006,0-0.014,0.004-0.014,0.004c-0.08,0.002-0.152,0.007-0.221,0.014
			c-0.049,0-0.105,0.005-0.156,0.011c-0.002,0.003-0.01,0.003-0.01,0.003c-0.457,0.048-0.834,0.158-1.051,0.298
			c-0.098,0.033-0.193,0.072-0.277,0.117c-0.322,0.209-0.604,0.438-0.828,0.685c-0.225,0.248-0.42,0.557-0.582,0.925
			c-0.047,0.109-0.08,0.225-0.105,0.331c-0.025,0.115-0.063,0.229-0.092,0.347c-0.02,0.043-0.033,0.087-0.033,0.13
			c0,0.016,0,0.033,0,0.052c-0.006,0.029-0.014,0.061-0.018,0.093c-0.01,0.031-0.016,0.064-0.016,0.099
			c-0.023,0.15-0.033,0.314-0.039,0.49c-0.002,0.028-0.002,0.054-0.002,0.076v0.044c0,0.474,0.068,0.891,0.174,1.143
			c0.014,0.063,0.029,0.127,0.043,0.186c0.023,0.093,0.061,0.177,0.104,0.257c0.152,0.354,0.342,0.656,0.566,0.908
			c0.225,0.251,0.498,0.474,0.813,0.662c0.1,0.054,0.195,0.1,0.293,0.135c0.092,0.034,0.193,0.074,0.303,0.109
			c0.074,0.033,0.154,0.059,0.234,0.074c0.258,0.092,0.648,0.148,1.096,0.148c0.441,0,0.84-0.057,1.092-0.148h0.002
			c0.115-0.021,0.225-0.055,0.34-0.103c0.428-0.181,0.799-0.404,1.105-0.675c0.305-0.27,0.555-0.624,0.744-1.06
			c0.045-0.088,0.078-0.183,0.107-0.289c0.027-0.103,0.059-0.202,0.096-0.304c0-0.023,0.006-0.046,0.01-0.069
			c0.078-0.254,0.123-0.613,0.123-1.016v-0.043V54.197z M149.729,55.198c-0.018,0.089-0.045,0.181-0.084,0.27
			c-0.1,0.227-0.221,0.415-0.363,0.57c-0.146,0.153-0.336,0.274-0.568,0.361c-0.061,0.028-0.135,0.036-0.203,0.059
			c-0.084,0.023-0.113,0.023-0.18,0.036h-0.08c-0.102,0.013-0.139,0.016-0.176,0.011c-0.045-0.008-0.084,0.009-0.119,0
			c-0.035-0.014-0.043-0.011-0.086-0.014c-0.023-0.002-0.066-0.01-0.102-0.021c-0.08-0.019-0.162-0.042-0.238-0.07
			c-0.076-0.025-0.146-0.061-0.209-0.104c-0.223-0.137-0.389-0.288-0.492-0.455c-0.086-0.142-0.172-0.317-0.248-0.531
			c-0.107-0.219-0.174-0.605-0.174-1.044c0-0.373,0.047-0.708,0.127-0.933c0.01-0.038,0.018-0.073,0.033-0.109
			c0.078-0.243,0.188-0.458,0.326-0.641c0.141-0.187,0.324-0.33,0.551-0.429c0.041-0.025,0.096-0.046,0.154-0.063
			c0.059-0.014,0.117-0.026,0.182-0.044c0.025-0.011,0.064-0.016,0.098-0.021c0.035-0.005,0.029,0,0.092-0.005
			c0.08-0.011,0.164-0.004,0.242-0.008c0.086-0.007,0.162,0.001,0.23,0.018c0.064,0.019,0.125,0.033,0.178,0.046
			c0.051,0.014,0.109,0.03,0.16,0.051c0.229,0.1,0.406,0.231,0.543,0.399c0.133,0.163,0.252,0.367,0.352,0.602
			c0.025,0.071,0.049,0.146,0.061,0.222c0.004,0.01,0.004,0.021,0.006,0.033c0.072,0.227,0.115,0.537,0.115,0.881
			c0,0.356-0.049,0.677-0.121,0.9C149.734,55.176,149.732,55.188,149.729,55.198"/>
		<path fill="#FF4833" d="M170.189,48.152c-0.041-0.037-0.111-0.056-0.197-0.056h-0.246h-0.934h-0.883h-0.262
			c-0.09,0-0.156,0.022-0.209,0.066c-0.072,0.046-0.121,0.107-0.15,0.176c-0.025,0.074-0.051,0.146-0.078,0.218
			c-0.049,0.145-0.092,0.288-0.137,0.426c-0.051,0.139-0.088,0.281-0.139,0.427c-0.178,0.56-0.359,1.115-0.541,1.67
			c-0.178,0.556-0.359,1.107-0.539,1.656c-0.074,0.209-0.135,0.412-0.197,0.616c-0.059,0.204-0.125,0.407-0.193,0.616
			c-0.031,0.074-0.057,0.152-0.082,0.242c-0.012,0.042-0.027,0.069-0.047,0.098c-0.047,0.091-0.098,0.137-0.152,0.137
			c-0.098,0-0.188-0.174-0.252-0.451c-0.055-0.143-0.104-0.285-0.145-0.431c-0.055-0.19-0.115-0.377-0.186-0.557
			c-0.217-0.576-0.424-1.157-0.604-1.743c-0.189-0.588-0.383-1.162-0.59-1.734c-0.055-0.148-0.104-0.303-0.15-0.45
			c-0.055-0.148-0.105-0.295-0.16-0.44c-0.029-0.081-0.055-0.165-0.082-0.25c-0.027-0.086-0.074-0.15-0.135-0.196
			c-0.08-0.063-0.197-0.095-0.344-0.095h-0.441h-1.771c-0.016,0.008-0.039,0.01-0.055,0.006c-0.02-0.003-0.035,0-0.053,0.006
			c-0.109,0.029-0.182,0.074-0.221,0.139c-0.014,0.037-0.027,0.088-0.037,0.157c-0.01,0.064-0.012,0.136-0.012,0.205v0.224v0.199
			v1.89v5.036v1.188c0,0.101,0.002,0.196,0.012,0.293c0.01,0.091,0.037,0.163,0.098,0.208c0.051,0.044,0.121,0.069,0.199,0.073
			s0.17,0.009,0.27,0.009h0.705c0.07,0,0.143,0,0.217,0.005c0.072,0.008,0.139,0,0.205-0.021c0.098-0.014,0.164-0.056,0.199-0.121
			c0.037-0.043,0.057-0.101,0.057-0.176V57.2v-0.663v-3.599c0.01-0.099,0.014-0.198,0.014-0.298v-0.298c0-0.071,0.006-0.181,0-0.247
			c-0.004-0.066,0-0.093,0-0.158c-0.004-0.089,0-0.13,0-0.193s0.025-0.171,0.111-0.16c0.029,0.003,0.043,0.01,0.063,0.025
			c0.021,0.012,0.035,0.028,0.055,0.045c0.055,0.08,0.102,0.185,0.146,0.31c0.01,0.02,0.014,0.035,0.029,0.059l1.773,5.088
			l0.004-0.002c0.021,0.065,0.043,0.135,0.074,0.201c0.039,0.081,0.066,0.152,0.098,0.209c0.023,0.058,0.076,0.107,0.148,0.154
			c0.033,0.028,0.086,0.048,0.158,0.057c0.076,0.008,0.154,0.013,0.238,0.013c0.086,0,0.17,0,0.256-0.008
			c0.088-0.005,0.162-0.005,0.225-0.005h0.311c0.082,0.001,0.129,0,0.17-0.005c0.045-0.002,0.104-0.016,0.148-0.052
			c0.047-0.038,0.063-0.07,0.084-0.124c0.018-0.049,0.035-0.074,0.057-0.13l0.059-0.146l1.863-5.404v-0.011
			c0.018-0.045,0.033-0.094,0.063-0.143c0.027-0.048,0.045-0.078,0.082-0.135c0.004-0.01,0.01-0.026,0.023-0.046
			c0.016-0.018,0.084-0.056,0.111-0.048c0.053,0.018,0.061,0.027,0.076,0.097c0.012,0.073,0.012,0.216,0.008,0.285
			c-0.004,0.08,0.016,0.149,0.012,0.223c-0.008,0.08-0.008,0.154-0.008,0.225v0.346c0,0.111,0,0.236,0.012,0.358v3.477v0.689v0.229
			c0,0.075,0.02,0.133,0.057,0.176c0.033,0.056,0.076,0.087,0.129,0.095c0.049,0.013,0.107,0.022,0.18,0.043h0.367h0.65
			c0.094,0,0.186-0.005,0.27-0.009c0.078-0.004,0.146-0.029,0.201-0.073c0.057-0.045,0.086-0.117,0.086-0.208
			c0.006-0.097,0.01-0.192,0.01-0.293v-1.175v-5.032v-2.03v-0.45C170.34,48.309,170.287,48.205,170.189,48.152"/>
		<path fill="#FF4833" d="M159.195,51.064c-0.004-0.104-0.037-0.176-0.1-0.222c-0.051-0.043-0.123-0.068-0.197-0.075
			c-0.076-0.005-0.162-0.005-0.264-0.005h-0.688c-0.082,0-0.162,0-0.238,0.005c-0.078,0.007-0.145,0.028-0.197,0.063
			c-0.035,0.037-0.063,0.079-0.078,0.126c-0.004,0.03-0.004,0.05-0.006,0.089c-0.027,0.161-0.086,0.292-0.203,0.305
			c-0.066,0.008-0.129-0.022-0.174-0.079c-0.037-0.022-0.064-0.049-0.092-0.076c-0.043-0.043-0.096-0.092-0.15-0.133
			c-0.037-0.03-0.066-0.053-0.094-0.076c-0.031-0.024-0.059-0.042-0.082-0.063c-0.115-0.074-0.246-0.141-0.389-0.191
			c-0.102-0.063-0.291-0.112-0.531-0.135c-0.123-0.021-0.248-0.025-0.391-0.025h-0.033c-0.092,0-0.182,0.004-0.273,0.01
			c-0.004,0-0.016,0-0.016,0c-0.299,0.022-0.541,0.073-0.666,0.148c-0.08,0.026-0.16,0.059-0.229,0.086
			c-0.129,0.054-0.25,0.12-0.367,0.191c-0.043,0.025-0.092,0.056-0.135,0.088c-0.049,0.032-0.096,0.064-0.137,0.101l-0.08,0.08
			c-0.043,0.037-0.094,0.078-0.143,0.126c-0.051,0.043-0.088,0.087-0.117,0.133c-0.063,0.083-0.125,0.16-0.18,0.234
			c-0.059,0.079-0.113,0.164-0.158,0.252c-0.088,0.143-0.16,0.297-0.219,0.461c-0.02,0.054-0.039,0.11-0.057,0.165
			c-0.1,0.22-0.17,0.535-0.209,0.907c-0.008,0.026-0.008,0.051-0.008,0.076v0.003c-0.012,0.109-0.016,0.219-0.02,0.338v0.072v0.023
			v0.055c0,0.63,0.096,1.185,0.246,1.506c0.008,0.018,0.016,0.039,0.027,0.059c0.162,0.387,0.361,0.719,0.602,0.995
			c0.234,0.275,0.545,0.489,0.936,0.643c0.102,0.046,0.207,0.079,0.328,0.101c0.113,0.023,0.238,0.047,0.367,0.075
			c0.031,0.011,0.066,0.013,0.098,0.013s0.063,0.008,0.09,0.013h0.107c0.047,0.013,0.119,0.015,0.215,0.015
			c0.1,0,0.172-0.002,0.217-0.015c0.045-0.005,0.094-0.015,0.143-0.021c0.047-0.004,0.104-0.012,0.156-0.018
			c0.105-0.029,0.213-0.057,0.309-0.082c0.1-0.03,0.203-0.061,0.299-0.109c0.102-0.043,0.189-0.094,0.268-0.147
			c0.084-0.055,0.164-0.112,0.246-0.176c0.029-0.021,0.053-0.041,0.078-0.066c0.021-0.018,0.043-0.041,0.068-0.058
			c0.023-0.021,0.051-0.039,0.088-0.044c0.061-0.022,0.113-0.021,0.164,0.005c0.094,0.056,0.105,0.165,0.094,0.334
			c0,0.015-0.004,0.053-0.004,0.074c-0.004,0.035-0.008,0.07-0.008,0.104c0,0.1-0.023,0.183-0.027,0.279
			c-0.008,0.093-0.018,0.181-0.035,0.265c-0.016,0.063-0.031,0.12-0.037,0.174c-0.012,0.053-0.025,0.107-0.039,0.162
			c-0.086,0.182-0.189,0.339-0.313,0.473c-0.08,0.086-0.17,0.159-0.275,0.222c-0.041,0.029-0.094,0.059-0.152,0.083
			c-0.02,0.009-0.031,0.016-0.045,0.021c-0.029,0.017-0.059,0.021-0.082,0.026c-0.111,0.035-0.24,0.062-0.381,0.077
			c-0.258,0.03-0.387,0.015-0.656-0.029c-0.104-0.012-0.209-0.061-0.318-0.116c-0.049-0.021-0.09-0.043-0.125-0.069
			c-0.055-0.038-0.105-0.077-0.152-0.119c-0.008-0.005-0.016-0.01-0.018-0.016c-0.002,0-0.01-0.002-0.01-0.002
			c-0.051-0.062-0.104-0.115-0.139-0.178c-0.012-0.013-0.02-0.022-0.031-0.034c-0.068-0.099-0.123-0.177-0.158-0.238
			c-0.035-0.056-0.125-0.104-0.271-0.139c-0.047,0-0.082-0.008-0.113-0.01c-0.035-0.005-0.072-0.007-0.117-0.007h-0.459
			c-0.104,0-0.211-0.001-0.316-0.005c-0.115-0.006-0.219,0-0.305,0.021c-0.094,0.017-0.162,0.054-0.211,0.113
			c-0.053,0.058-0.059,0.146-0.033,0.264c0.008,0.016,0.012,0.041,0.012,0.066c0,0.03,0.012,0.054,0.027,0.081
			c0.127,0.372,0.326,0.665,0.598,0.887c0.27,0.221,0.572,0.402,0.918,0.545c0.08,0.038,0.162,0.069,0.25,0.095
			c0.086,0.015,0.17,0.038,0.264,0.057c0.014,0.007,0.025,0.013,0.043,0.016c0.217,0.051,0.527,0.087,0.877,0.091
			c0.02,0.004,0.033,0.004,0.053,0.004h0.016h0.035c0.359,0,0.684-0.032,0.92-0.081c0.094-0.013,0.195-0.029,0.287-0.053
			c0.107-0.031,0.215-0.059,0.311-0.086c0.1-0.025,0.199-0.06,0.301-0.108c0.34-0.143,0.631-0.326,0.871-0.553
			c0.238-0.227,0.432-0.509,0.588-0.854c0.045-0.1,0.08-0.205,0.104-0.315c0.02-0.114,0.049-0.233,0.086-0.358
			c0.01-0.073,0.02-0.138,0.02-0.196c0.004-0.062,0.014-0.125,0.023-0.196c0-0.07,0-0.14,0.004-0.21
			c0.002-0.067,0.002-0.137,0.002-0.21v-5.775C159.197,51.274,159.197,51.169,159.195,51.064 M157.389,54.312
			c-0.01,0.141-0.023,0.275-0.057,0.4c-0.021,0.124-0.055,0.229-0.092,0.307c-0.088,0.23-0.201,0.421-0.344,0.587
			c-0.139,0.16-0.324,0.288-0.547,0.377c-0.076,0.035-0.143,0.061-0.215,0.067c0,0-0.008,0-0.01,0.002
			c-0.064,0.018-0.133,0.029-0.203,0.035c-0.01,0.002-0.012,0.002-0.021,0.005h-0.018c-0.043,0-0.084,0.005-0.131,0.005
			c-0.02,0.005-0.041,0.005-0.066,0c-0.008,0-0.016,0-0.023-0.005c-0.061,0-0.121-0.008-0.178-0.018h-0.025
			c-0.021-0.003-0.037-0.005-0.053-0.012c-0.09-0.017-0.166-0.047-0.236-0.076c-0.029-0.015-0.063-0.028-0.092-0.042
			c-0.209-0.108-0.371-0.252-0.488-0.431c-0.117-0.173-0.213-0.377-0.295-0.614c-0.014-0.043-0.021-0.084-0.029-0.124
			c-0.018-0.088-0.037-0.181-0.049-0.278c-0.004-0.005-0.004-0.011-0.008-0.018v-0.013c-0.006-0.077-0.014-0.165-0.018-0.255
			c-0.014-0.092-0.014-0.201-0.008-0.326c0.008-0.132,0.02-0.241,0.033-0.333c0.008-0.071,0.02-0.138,0.033-0.199v-0.007
			c0-0.028,0.012-0.064,0.029-0.108v-0.003c0.033-0.123,0.07-0.226,0.115-0.305c0.059-0.127,0.123-0.241,0.195-0.356
			c0.125-0.199,0.309-0.346,0.541-0.445c0.012-0.005,0.027-0.012,0.039-0.016c0.137-0.071,0.344-0.114,0.566-0.114
			c0.16,0,0.305,0.021,0.422,0.056c0.199,0.041,0.373,0.11,0.498,0.209c0.24,0.171,0.42,0.414,0.543,0.729
			c0.029,0.057,0.049,0.113,0.072,0.175c0.014,0.065,0.033,0.127,0.053,0.191c0.004,0.022,0.008,0.044,0.008,0.061
			c0.01,0.048,0.016,0.095,0.025,0.143c0.021,0.104,0.037,0.214,0.037,0.338C157.4,54.034,157.398,54.174,157.389,54.312"/>
		<path fill="#FF4833" d="M177.783,53.683c-0.025-0.193-0.066-0.369-0.105-0.507c-0.049-0.201-0.131-0.43-0.234-0.665
			c-0.029-0.072-0.066-0.15-0.104-0.22c-0.008-0.015-0.021-0.027-0.025-0.041c-0.115-0.209-0.242-0.401-0.361-0.556
			c-0.008-0.009-0.016-0.019-0.02-0.026c-0.004,0-0.006-0.004-0.006-0.004c-0.096-0.118-0.193-0.214-0.281-0.284
			c-0.012-0.01-0.027-0.022-0.037-0.03c-0.078-0.069-0.162-0.128-0.244-0.181c-0.264-0.181-0.559-0.326-0.887-0.44
			c0,0-0.002,0-0.008-0.003c-0.227-0.092-0.615-0.155-1.055-0.155c0,0-0.018,0.003-0.025,0.003h-0.098h-0.004
			c-0.084,0.002-0.164,0.007-0.242,0.012c-0.051,0.003-0.104,0.006-0.158,0.018c-0.012,0-0.023,0.001-0.029,0.003
			c-0.148,0.023-0.285,0.048-0.389,0.082c-0.129,0.022-0.256,0.063-0.381,0.113c-0.928,0.391-1.586,1.051-1.975,1.99
			c-0.033,0.08-0.063,0.168-0.092,0.257c-0.078,0.247-0.137,0.551-0.16,0.895l-0.006,0.025v0.022
			c-0.004,0.066-0.008,0.136-0.008,0.205c0,0.015,0,0.027,0,0.045v0.051c0,0.574,0.1,1.088,0.252,1.424
			c0.021,0.091,0.063,0.181,0.096,0.268c0.145,0.315,0.332,0.593,0.555,0.833c0.227,0.236,0.48,0.448,0.771,0.629
			c0.072,0.047,0.15,0.081,0.236,0.112c0.078,0.03,0.379,0.153,0.512,0.193c0.107,0.037,0.23,0.066,0.369,0.092
			c0.01,0.004,0.02,0.005,0.029,0.005c0.158,0.035,0.318,0.046,0.43,0.05c0.082,0.005,0.162,0.009,0.246,0.009h0.07h0.025
			c0.91-0.054,1.055-0.143,1.512-0.301c0.297-0.109,0.352-0.16,0.563-0.311c0.25-0.181,0.475-0.42,0.674-0.716
			c0.07-0.097,0.137-0.198,0.191-0.298c0.053-0.1,0.104-0.211,0.146-0.342c0.016-0.04,0.025-0.097,0.02-0.157
			c0-0.025-0.004-0.049-0.01-0.066c-0.018-0.084-0.074-0.143-0.146-0.143h-0.295c-0.025-0.005-0.059-0.005-0.088-0.003
			c-0.012,0.002-0.023,0.002-0.033,0.003h-0.451c-0.021-0.001-0.047-0.001-0.068-0.003c-0.043,0-0.08,0-0.117,0.003h-0.084
			c-0.057,0-0.205,0.048-0.291,0.159c-0.031,0.038-0.068,0.085-0.1,0.119c-0.051,0.063-0.078,0.096-0.135,0.154
			c-0.07,0.076-0.082,0.079-0.191,0.152c-0.117,0.07-0.221,0.133-0.309,0.174c-0.004,0.004-0.004,0.004-0.004,0.004
			c-0.1,0.053-0.238,0.093-0.402,0.121c-0.021,0.004-0.043,0.013-0.068,0.014h-0.035c-0.063,0.007-0.123,0.012-0.184,0.012
			c-0.068,0.008-0.145,0.008-0.229,0h-0.004c-0.277-0.012-0.514-0.064-0.666-0.143c-0.029-0.013-0.055-0.028-0.084-0.043
			c-0.186-0.111-0.322-0.233-0.428-0.376c-0.102-0.139-0.203-0.31-0.275-0.526c-0.004-0.007-0.02-0.048-0.021-0.059
			c-0.016-0.051-0.018-0.093-0.031-0.172c0-0.037-0.008-0.069-0.008-0.101c-0.002-0.03,0-0.065,0.008-0.099
			c0.008-0.049,0.023-0.087,0.047-0.104c0.002-0.012,0.01-0.02,0.02-0.026c0.016-0.037,0.059-0.073,0.135-0.11
			c0.043-0.015,0.094-0.027,0.154-0.027h0.186h3.299c0.078,0,0.172,0.002,0.275,0.008c0.104,0.005,0.209,0.005,0.314,0
			c0.102-0.006,0.195-0.015,0.277-0.027c0.088-0.014,0.158-0.037,0.199-0.072c0.047-0.028,0.08-0.089,0.096-0.176
			c0.014-0.066,0.027-0.285,0.018-0.342C177.83,53.932,177.813,53.892,177.783,53.683 M175.768,53.385
			c-0.047,0.073-0.137,0.112-0.271,0.115c-0.145,0.007-0.277,0.007-0.402,0.007h-1.506h-0.361c-0.127,0-0.227-0.023-0.297-0.066
			c-0.047-0.037-0.076-0.081-0.086-0.138c-0.016-0.054-0.016-0.109-0.01-0.165c0.01-0.061,0.029-0.123,0.049-0.179
			c0.021-0.061,0.039-0.106,0.059-0.144c0.191-0.365,0.48-0.615,0.883-0.742c0.041-0.019,0.094-0.032,0.152-0.046
			c0.061-0.019,0.193-0.036,0.232-0.041c0.037-0.004,0.6-0.072,0.969,0.217c0.189,0.152,0.375,0.318,0.5,0.56
			c0.023,0.062,0.063,0.161,0.113,0.293C175.84,53.186,175.832,53.295,175.768,53.385"/>
		<path fill="#FF4833" d="M186.297,45.008c-4.432,0-8.031,3.595-8.031,8.027c0,4.434,3.6,8.028,8.031,8.028s8.023-3.595,8.023-8.028
			C194.32,48.603,190.729,45.008,186.297,45.008 M183.543,57.679c-0.033,0.063-0.119,0.111-0.242,0.147
			c-0.063,0.021-0.133,0.025-0.205,0.013c-0.072-0.006-0.146-0.013-0.215-0.013h-0.799c-0.098,0-0.191-0.003-0.277-0.014
			c-0.086-0.007-0.158-0.034-0.211-0.078c-0.041-0.048-0.074-0.112-0.08-0.204c-0.008-0.089-0.016-0.186-0.016-0.283v-1.178v-4.938
			v-1.975c0-0.125,0-0.274-0.006-0.443c0-0.174,0.018-0.293,0.063-0.364c0.037-0.059,0.092-0.103,0.176-0.141
			c0.027,0,0.053,0,0.074-0.006c0.021-0.004,0.039-0.008,0.064-0.008h1.16c0.1,0,0.195,0.004,0.283,0.008
			c0.09,0.006,0.156,0.042,0.201,0.102c0.047,0.063,0.072,0.146,0.076,0.242c0.004,0.101,0.008,0.21,0.008,0.327v1.177v4.693v2.214
			c0,0.122,0,0.249,0.004,0.396C183.605,57.498,183.586,57.607,183.543,57.679 M191.471,53.606v1.204v2.191
			c0,0.17-0.004,0.341-0.008,0.493c-0.01,0.159-0.072,0.261-0.191,0.303c-0.061,0.019-0.121,0.028-0.193,0.028h-0.219h-0.727
			c-0.109,0-0.205-0.005-0.289-0.017c-0.088-0.017-0.158-0.054-0.201-0.119c-0.035-0.053-0.055-0.121-0.061-0.208
			c-0.004-0.084-0.006-0.176-0.006-0.277v-0.946v-2.015c0-0.335-0.016-0.646-0.041-0.929c-0.027-0.281-0.111-0.524-0.242-0.723
			c-0.107-0.15-0.254-0.264-0.445-0.343c-0.127-0.063-0.328-0.104-0.557-0.104c-0.262,0-0.494,0.058-0.609,0.141
			c-0.092,0.035-0.17,0.079-0.244,0.132c-0.287,0.205-0.459,0.507-0.514,0.904c-0.053,0.4-0.08,0.845-0.08,1.337v1.694v0.823v0.245
			c0,0.078-0.012,0.146-0.039,0.201c-0.043,0.099-0.119,0.159-0.221,0.174c-0.096,0.019-0.217,0.028-0.363,0.028h-0.676
			c-0.098,0-0.197-0.003-0.295-0.014c-0.102-0.007-0.174-0.037-0.219-0.096c-0.061-0.079-0.092-0.193-0.088-0.348
			c0.004-0.155,0.01-0.301,0.01-0.433v-1.843v-2.973V51.43c0-0.1,0-0.189,0.002-0.271c0.004-0.081,0.031-0.145,0.076-0.203
			c0.021-0.025,0.045-0.046,0.09-0.059c0.039-0.013,0.084-0.028,0.129-0.034h0.066c0.045-0.01,0.092-0.012,0.141-0.012h0.146h0.566
			c0.07,0,0.141,0,0.207,0.005c0.068,0.005,0.129,0.013,0.184,0.033c0.064,0.025,0.104,0.066,0.129,0.125
			c0.018,0.046,0.018,0.097,0.035,0.157c0.037,0.156,0.08,0.326,0.195,0.339c0.051,0.008,0.104-0.015,0.15-0.059
			c0.021-0.015,0.076-0.073,0.096-0.094c0.061-0.079,0.182-0.188,0.26-0.234c0.051-0.037,0.092-0.063,0.131-0.092
			c0.133-0.088,0.324-0.176,0.561-0.242c0,0,0.014-0.004,0.025-0.008c0.072-0.026,0.148-0.043,0.23-0.051
			c0.037-0.008,0.068-0.014,0.105-0.021c0.297-0.051,0.58-0.06,0.795-0.035c0.379,0.022,0.705,0.1,0.975,0.231
			c0.365,0.168,0.652,0.421,0.854,0.755c0.066,0.099,0.117,0.208,0.152,0.317s0.072,0.227,0.107,0.342
			c0.016,0.076,0.029,0.14,0.033,0.207c0.006,0.063,0.02,0.126,0.033,0.188c0,0.056,0.008,0.089,0.018,0.106
			c0.018,0.128,0.025,0.259,0.025,0.397V53.606z"/>
		<path fill="#FF4833" d="M145.412,42.991c0.016,0.053,0.027,0.148,0.027,0.275c0,0.132-0.006,0.224-0.016,0.277
			c0,0.044,0,0.082-0.002,0.114c-0.01,0.033-0.01,0.071-0.01,0.114c-0.018,0.071-0.027,0.142-0.027,0.209
			c0,0.068-0.012,0.139-0.029,0.211c0,0.036-0.006,0.1-0.025,0.189c-0.025,0.104-0.051,0.219-0.072,0.331
			c-0.023,0.109-0.059,0.216-0.104,0.315c-0.162,0.405-0.365,0.756-0.607,1.055c-0.242,0.295-0.561,0.528-0.955,0.697
			c-0.08,0.038-0.168,0.065-0.254,0.09c-0.082,0.022-0.174,0.045-0.271,0.076c-0.055,0.018-0.111,0.026-0.17,0.026
			s-0.117,0.004-0.172,0.012h-0.117c-0.055,0.021-0.129,0.026-0.219,0.021c-0.092-0.004-0.158-0.016-0.215-0.032h-0.084
			c-0.045-0.009-0.096-0.019-0.148-0.021c-0.051-0.003-0.105-0.011-0.158-0.02c-0.17-0.044-0.332-0.093-0.473-0.136
			c-0.143-0.043-0.281-0.109-0.404-0.188c-0.055-0.038-0.107-0.069-0.158-0.107c-0.047-0.038-0.096-0.077-0.143-0.122
			c-0.021-0.018-0.049-0.035-0.076-0.056c-0.029-0.016-0.055-0.03-0.088-0.038c-0.074-0.028-0.129-0.01-0.143,0.056
			c-0.045,0.063-0.074,0.135-0.088,0.219c-0.016,0.087-0.049,0.151-0.104,0.196c-0.053,0.036-0.117,0.058-0.191,0.063
			c-0.07,0.004-0.15,0.005-0.238,0.005h-0.648c-0.063,0-0.133,0.002-0.195,0.007c-0.07,0.002-0.127-0.003-0.182-0.021
			c-0.125-0.043-0.195-0.128-0.209-0.25c-0.016-0.119-0.02-0.257-0.02-0.411v-8.23v-0.312c0-0.108,0.02-0.192,0.063-0.256
			c0.041-0.063,0.104-0.102,0.191-0.122c0.02-0.008,0.037-0.011,0.063-0.006c0.021,0.006,0.039,0.002,0.057-0.007h0.854
			c0.162,0,0.301,0.007,0.414,0.021c0.117,0.015,0.197,0.082,0.234,0.21c0.025,0.089,0.033,0.207,0.025,0.357
			c-0.012,0.147-0.012,0.275-0.012,0.382v1.473v0.298c0,0.098,0.004,0.184,0.021,0.255c0.008,0.046,0.023,0.086,0.033,0.117
			c0.008,0.03,0.031,0.051,0.064,0.06c0.018,0.019,0.043,0.024,0.072,0.024c0.037,0,0.061-0.003,0.08-0.011
			c0.061-0.038,0.117-0.073,0.174-0.114c0.053-0.041,0.111-0.083,0.176-0.13c0.115-0.079,0.236-0.147,0.361-0.209
			c0.127-0.059,0.264-0.108,0.422-0.155c0.07-0.025,0.139-0.043,0.213-0.049c0.072-0.001,0.146-0.014,0.219-0.034
			c0.057-0.017,0.131-0.024,0.201-0.024h0.213h0.139c0.023,0.008,0.059,0.008,0.092,0.006c0.037-0.004,0.07,0,0.107,0.009
			c0.098,0.026,0.195,0.044,0.279,0.06c0.086,0.016,0.168,0.038,0.248,0.074c0.412,0.172,0.75,0.392,1.012,0.662
			c0.264,0.27,0.48,0.607,0.662,1.008c0.045,0.112,0.086,0.225,0.119,0.342c0.029,0.117,0.059,0.236,0.1,0.364
			c0.014,0.063,0.027,0.123,0.031,0.18c0.004,0.06,0.014,0.125,0.033,0.197c0.016,0.047,0.023,0.094,0.021,0.147
			c-0.008,0.055-0.006,0.109,0.006,0.163V42.991z M143.416,44.258c0.027-0.089,0.049-0.2,0.072-0.337
			c0.023-0.134,0.033-0.271,0.041-0.41c0.006-0.141,0.006-0.278,0-0.418c-0.008-0.139-0.018-0.26-0.047-0.359
			c-0.027-0.09-0.047-0.176-0.055-0.258c-0.006-0.078-0.029-0.154-0.066-0.226c-0.129-0.317-0.301-0.582-0.535-0.803
			c-0.227-0.222-0.563-0.331-1.006-0.331c-0.033,0-0.066,0.001-0.092,0.007c-0.029,0.003-0.059,0.006-0.094,0.006
			c-0.066,0.017-0.125,0.032-0.174,0.046c-0.055,0.017-0.109,0.03-0.166,0.051c-0.262,0.115-0.459,0.276-0.594,0.489
			c-0.135,0.212-0.244,0.453-0.334,0.726c-0.033,0.069-0.047,0.145-0.051,0.219c-0.004,0.077-0.016,0.15-0.033,0.226
			c-0.008,0.024-0.012,0.07-0.012,0.133c-0.01,0.036-0.012,0.075-0.008,0.108c0.002,0.037,0.002,0.073-0.004,0.106
			c-0.021,0.075-0.025,0.171-0.018,0.3c0.012,0.123,0.023,0.215,0.041,0.269c0.018,0.081,0.029,0.155,0.033,0.227
			c0.004,0.074,0.018,0.146,0.051,0.217c0.074,0.255,0.178,0.471,0.289,0.657c0.115,0.183,0.27,0.338,0.477,0.466
			c0.15,0.089,0.291,0.152,0.447,0.188c0.018,0,0.041,0.002,0.061,0.008c0.018,0.002,0.047,0.006,0.076,0.006
			c0.025,0.007,0.07,0.017,0.133,0.021c0.063,0.001,0.117,0.001,0.162-0.01c0.09-0.017,0.174-0.033,0.248-0.046
			c0.08-0.012,0.15-0.032,0.225-0.061c0.25-0.117,0.445-0.279,0.586-0.486C143.211,44.781,143.324,44.537,143.416,44.258"/>
		<path fill="#FF4833" d="M145.691,39.833h1.025h0.266c0.096,0,0.172,0.02,0.234,0.053c0.111,0.072,0.182,0.187,0.221,0.339
			c0.043,0.153,0.082,0.293,0.127,0.418c0.047,0.107,0.088,0.222,0.115,0.34c0.035,0.113,0.068,0.229,0.113,0.334
			c0.072,0.207,0.145,0.411,0.207,0.616c0.059,0.201,0.129,0.401,0.201,0.602l0.283,0.847c0.029,0.082,0.051,0.168,0.074,0.252
			c0.021,0.085,0.051,0.168,0.088,0.249c0.023,0.071,0.055,0.154,0.09,0.243c0.029,0.09,0.096,0.128,0.195,0.119
			c0.014-0.017,0.033-0.028,0.045-0.036c0.016,0,0.031-0.013,0.045-0.027c0.029-0.047,0.055-0.095,0.07-0.138
			c0.018-0.046,0.037-0.09,0.059-0.134c0.043-0.099,0.078-0.205,0.104-0.317c0.027-0.114,0.057-0.224,0.092-0.331
			c0.129-0.376,0.25-0.751,0.369-1.121c0.115-0.37,0.234-0.74,0.361-1.121c0.045-0.124,0.088-0.25,0.113-0.369
			c0.029-0.12,0.072-0.241,0.113-0.357c0.029-0.072,0.055-0.141,0.076-0.21c0.023-0.068,0.068-0.124,0.131-0.168
			c0.053-0.043,0.121-0.068,0.199-0.075c0.084-0.001,0.174-0.006,0.271-0.006h0.822c0.092,0,0.174,0.005,0.26,0.013
			c0.078,0.007,0.139,0.038,0.189,0.083c0.053,0.062,0.059,0.144,0.025,0.241c-0.018,0.071-0.039,0.146-0.068,0.217
			c-0.029,0.07-0.055,0.146-0.08,0.215c-0.125,0.314-0.25,0.637-0.365,0.966c-0.119,0.328-0.236,0.651-0.363,0.967
			c-0.055,0.132-0.105,0.271-0.148,0.407c-0.047,0.142-0.098,0.28-0.146,0.413c-0.045,0.125-0.094,0.248-0.137,0.366
			c-0.047,0.115-0.092,0.235-0.137,0.365c-0.18,0.448-0.344,0.899-0.508,1.354c-0.156,0.452-0.322,0.902-0.504,1.34
			c-0.027,0.065-0.049,0.125-0.057,0.179c-0.018,0.054-0.035,0.109-0.064,0.16c-0.072,0.171-0.143,0.336-0.201,0.499
			c-0.064,0.163-0.131,0.32-0.201,0.467c-0.074,0.147-0.162,0.285-0.258,0.411c-0.098,0.126-0.223,0.235-0.369,0.337
			c-0.111,0.082-0.242,0.146-0.381,0.196c-0.141,0.051-0.289,0.099-0.453,0.143c-0.068,0.018-0.143,0.028-0.217,0.028
			c-0.07,0-0.143,0.008-0.215,0.025h-0.35h-0.258c-0.1,0-0.193-0.005-0.289-0.014c-0.096-0.01-0.184-0.019-0.256-0.032
			c-0.074-0.016-0.129-0.033-0.17-0.063c-0.045-0.035-0.07-0.079-0.082-0.128c-0.016-0.048-0.037-0.11-0.055-0.181v-0.324v-0.485
			c0-0.172,0.057-0.28,0.164-0.323c0.045-0.021,0.105-0.031,0.182-0.036c0.076,0,0.141,0,0.195,0.023h0.334h0.162
			c0.039-0.013,0.076-0.016,0.111-0.016c0.037,0,0.072-0.008,0.111-0.028c0.275-0.079,0.455-0.265,0.535-0.55
			c0.02-0.037,0.039-0.092,0.053-0.163c0.021-0.074,0.021-0.135,0-0.188c-0.014-0.046-0.023-0.092-0.023-0.135
			c0-0.044-0.01-0.092-0.029-0.137c-0.053-0.178-0.109-0.357-0.176-0.533c-0.055-0.175-0.131-0.349-0.199-0.519
			c-0.07-0.174-0.139-0.343-0.195-0.515c-0.059-0.169-0.121-0.34-0.197-0.513c-0.045-0.109-0.082-0.217-0.115-0.323
			c-0.029-0.11-0.072-0.216-0.113-0.322c-0.145-0.344-0.273-0.694-0.396-1.055c-0.121-0.357-0.258-0.709-0.402-1.051
			c-0.016-0.035-0.023-0.067-0.023-0.088c0-0.025-0.01-0.05-0.027-0.077c-0.072-0.159-0.135-0.324-0.184-0.492
			c-0.051-0.165-0.111-0.325-0.18-0.479c-0.021-0.054-0.047-0.13-0.086-0.234c-0.045-0.104-0.047-0.192-0.023-0.262
			c0.025-0.074,0.084-0.12,0.176-0.138c0.02-0.008,0.031-0.008,0.047-0.007C145.656,39.846,145.676,39.843,145.691,39.833"/>
	</g>
	<g>
		<path fill="#FF4833" d="M11.232,3.521c0.225,0.182,0.457,0.313,0.672,0.454c0.418,0.276,0.879,0.545,1.193,0.877
			c0.162,0.164,0.297,0.349,0.414,0.52s0.217,0.337,0.281,0.509c0.125,0.334,0.104,0.652,0.037,1.021
			c-0.129,0.748-0.586,1.583-1.037,2.5l0.074,0.089c0.51-0.181,0.939-0.486,1.324-0.86c0.377-0.382,0.701-0.851,0.865-1.443
			c0.17-0.579,0.064-1.3-0.275-1.824c-0.324-0.547-0.834-0.866-1.332-1.054c-0.248-0.103-0.504-0.174-0.717-0.264
			c-0.219-0.094-0.426-0.219-0.6-0.375c-0.357-0.305-0.518-0.807-0.477-1.094c0.014-0.146,0.041-0.266,0.088-0.426
			c0.057-0.152,0.146-0.326,0.264-0.499c0.229-0.355,0.539-0.718,0.848-1.14l-0.051-0.104C12.529,0.422,12.27,0.495,12.025,0.6
			c-0.25,0.101-0.482,0.246-0.699,0.428c-0.211,0.188-0.412,0.419-0.551,0.718c-0.139,0.292-0.191,0.675-0.086,1.008
			C10.795,3.089,11.01,3.343,11.232,3.521z"/>
		<path fill="#FF4833" d="M15.85,5.675c0.172,0.117,0.338,0.19,0.482,0.277c0.285,0.171,0.588,0.366,0.754,0.611
			c0.178,0.248,0.285,0.485,0.336,0.659c0.045,0.187,0.008,0.322-0.014,0.524c-0.023,0.196-0.092,0.446-0.176,0.725
			c-0.088,0.28-0.199,0.576-0.297,0.932l0.078,0.086c0.379-0.068,0.695-0.247,0.979-0.481c0.277-0.236,0.52-0.556,0.643-0.975
			c0.127-0.415,0.041-0.954-0.221-1.329c-0.242-0.391-0.623-0.593-0.977-0.688c-0.174-0.051-0.355-0.087-0.494-0.135
			c-0.143-0.051-0.273-0.129-0.379-0.234c-0.227-0.205-0.256-0.573-0.178-0.687c0.025-0.061,0.041-0.097,0.055-0.175
			c0.023-0.076,0.063-0.178,0.117-0.287c0.113-0.232,0.279-0.49,0.441-0.832l-0.051-0.103c-0.203-0.029-0.385,0.001-0.563,0.053
			c-0.182,0.05-0.352,0.137-0.506,0.259c-0.158,0.122-0.303,0.284-0.408,0.502c-0.109,0.209-0.146,0.503-0.059,0.755
			C15.508,5.39,15.682,5.563,15.85,5.675z"/>
		<g>
			<path fill="#FF4833" d="M8.666,36.397c-0.355,0.346-0.898,0.626-1.598,0.542c-1.129-0.13-1.904-0.941-1.951-2.081
				c-0.045-1.176,0.857-1.744,1.566-1.654c0.541,0.069,0.793,0.381,0.844,0.447c0.037-0.089,0.076-0.18,0.115-0.27
				c0.283,0.033,0.566,0.063,0.848,0.094c0.012,0.48,0.025,0.96,0.039,1.441c-0.32-0.033-0.641-0.068-0.961-0.104
				c-0.025-0.332-0.209-0.662-0.592-0.709c-0.387-0.047-0.625,0.373-0.604,0.929c0.018,0.504,0.305,0.995,0.811,1.054
				c0.451,0.054,0.791-0.356,0.838-0.402C8.236,35.923,8.451,36.161,8.666,36.397z"/>
			<path fill="#FF4833" d="M8.799,35.259c-0.033-1.1,0.729-1.771,1.852-1.687c1.328,0.1,1.957,0.861,1.969,1.994
				c0.012,1.136-0.656,1.809-1.861,1.728C9.641,37.22,8.83,36.524,8.799,35.259z M11.271,35.493
				c-0.01-0.611-0.195-1.112-0.613-1.144c-0.33-0.028-0.547,0.397-0.533,1.024c0.016,0.664,0.273,1.102,0.617,1.127
				C11.08,36.524,11.281,36.118,11.271,35.493z"/>
			<path fill="#FF4833" d="M16.064,33.884c-0.002,0.369-0.002,0.738-0.004,1.104c-0.316,0-0.639-0.002-0.957-0.007
				c0-0.149,0-0.299,0-0.446c-0.273-0.004-0.547-0.01-0.82-0.018c0.004,0.292,0.004,0.582,0.008,0.873
				c0.34,0.008,0.684,0.015,1.023,0.019c0,0.221,0,0.443,0,0.666c-0.34-0.004-0.68-0.01-1.02-0.017c0,0.211,0,0.424,0,0.637
				c0.186,0.002,0.365,0.007,0.549,0.01c0,0.222,0.002,0.443,0.002,0.665c-0.664-0.008-1.328-0.025-1.992-0.054
				c-0.002-0.223-0.004-0.445-0.008-0.667c0.111,0.002,0.223,0.008,0.332,0.013c-0.006-0.729-0.014-1.456-0.018-2.183
				c-0.113-0.004-0.227-0.011-0.338-0.015c-0.002-0.222-0.002-0.442-0.006-0.663C13.898,33.853,14.979,33.881,16.064,33.884z"/>
			<path fill="#FF4833" d="M19.529,33.821c-0.006,0.365-0.012,0.731-0.018,1.096c-0.32,0.015-0.639,0.025-0.955,0.037
				c0-0.147,0-0.297,0.004-0.444c-0.273,0.009-0.545,0.016-0.818,0.021c-0.002,0.29-0.004,0.578-0.008,0.867
				c0.342-0.007,0.684-0.017,1.025-0.027c-0.004,0.22-0.006,0.439-0.008,0.661c-0.342,0.012-0.684,0.022-1.023,0.029
				c-0.002,0.212-0.004,0.422-0.006,0.632c0.184-0.002,0.365-0.008,0.549-0.016c-0.004,0.222-0.006,0.443-0.008,0.665
				c-0.664,0.021-1.328,0.033-1.994,0.036c0-0.222,0.004-0.443,0.004-0.665c0.111,0,0.221-0.003,0.332-0.003
				c0.004-0.722,0.006-1.443,0.008-2.166c-0.111,0-0.223,0-0.334,0c0-0.22,0.002-0.439,0.002-0.658
				C17.365,33.887,18.447,33.865,19.529,33.821z"/>
			<path fill="#FF4833" d="M23.018,33.596c-0.01,0.364-0.021,0.729-0.033,1.093c-0.311,0.027-0.621,0.053-0.934,0.077
				c0.004-0.146,0.008-0.294,0.012-0.439c-0.289,0.021-0.578,0.041-0.863,0.062c-0.006,0.227-0.014,0.454-0.018,0.683
				c0.342-0.023,0.682-0.049,1.023-0.075c-0.004,0.221-0.01,0.439-0.018,0.658c-0.34,0.028-0.682,0.053-1.021,0.076
				c-0.006,0.269-0.012,0.537-0.02,0.808c0.287-0.021,0.572-0.041,0.859-0.063c0.002-0.154,0.008-0.309,0.01-0.461
				c0.311-0.025,0.621-0.051,0.932-0.079c-0.014,0.372-0.025,0.743-0.035,1.115c-1.074,0.103-2.148,0.179-3.225,0.233
				c0.004-0.221,0.006-0.439,0.012-0.661c0.113-0.005,0.225-0.01,0.336-0.017c0.014-0.718,0.029-1.437,0.041-2.153
				c-0.113,0.005-0.227,0.011-0.34,0.016c0.002-0.22,0.008-0.438,0.01-0.655C20.838,33.764,21.928,33.692,23.018,33.596z"/>
			<path fill="#FF4833" d="M26.551,33.206c-0.016,0.361-0.033,0.723-0.049,1.086c-0.313,0.042-0.619,0.083-0.93,0.121
				c0.004-0.146,0.012-0.292,0.018-0.438c-0.289,0.036-0.576,0.069-0.863,0.101c-0.008,0.229-0.018,0.455-0.025,0.682
				c0.34-0.038,0.68-0.08,1.021-0.123c-0.01,0.219-0.02,0.437-0.029,0.655c-0.34,0.042-0.678,0.084-1.018,0.122
				c-0.012,0.268-0.021,0.535-0.031,0.804c0.285-0.033,0.57-0.067,0.854-0.103c0.008-0.153,0.014-0.307,0.02-0.459
				c0.309-0.038,0.617-0.079,0.928-0.122c-0.02,0.369-0.035,0.741-0.053,1.11c-1.068,0.151-2.141,0.277-3.215,0.382
				c0.008-0.218,0.016-0.438,0.023-0.657c0.109-0.009,0.223-0.021,0.336-0.033c0.023-0.713,0.047-1.426,0.072-2.141
				c-0.115,0.011-0.227,0.021-0.34,0.032c0.008-0.217,0.014-0.435,0.021-0.652C24.379,33.474,25.465,33.351,26.551,33.206z"/>
			<path fill="#FF4833" d="M10.676,40.947c0.102,0.006,0.205,0.013,0.307,0.019c-0.014-0.741-0.027-1.48-0.041-2.222
				c-0.104-0.007-0.205-0.013-0.309-0.021c-0.004-0.217-0.008-0.435-0.014-0.65c0.664,0.045,1.326,0.081,1.99,0.109
				c0.887,0.037,1.309,0.354,1.313,0.901c0.002,0.422-0.117,0.625-0.514,0.766c0.381,0.11,0.701,0.382,0.705,0.869
				c0.002,0.706-0.412,1.015-1.426,0.982c-0.666-0.023-1.332-0.055-1.998-0.097C10.684,41.386,10.68,41.167,10.676,40.947z
				 M12.055,39.575c0.105,0.008,0.215,0.011,0.322,0.016c0.279,0.013,0.359-0.133,0.355-0.372c-0.002-0.231-0.152-0.374-0.355-0.382
				c-0.111-0.005-0.223-0.01-0.334-0.016C12.047,39.072,12.047,39.323,12.055,39.575z M12.496,41.04
				c0.221,0.008,0.424-0.146,0.422-0.416c-0.004-0.257-0.156-0.449-0.449-0.46c-0.137-0.005-0.271-0.012-0.406-0.019
				c0.004,0.293,0.006,0.584,0.01,0.877C12.213,41.028,12.355,41.035,12.496,41.04z"/>
			<path fill="#FF4833" d="M16.313,41.737c0.002-0.216,0.002-0.436,0.004-0.654c0.166-0.002,0.334-0.004,0.5-0.008
				c-0.037-0.111-0.072-0.224-0.111-0.337c-0.359,0.006-0.721,0.01-1.08,0.012c-0.039,0.113-0.076,0.227-0.111,0.341
				c0.137-0.001,0.273-0.001,0.41-0.003c0,0.217,0,0.436,0,0.655c-0.557,0.005-1.115,0.002-1.674-0.003
				c0-0.219-0.002-0.439-0.002-0.659c0.117,0.002,0.236,0.005,0.357,0.005c0.234-0.731,0.473-1.462,0.709-2.193
				c-0.072,0-0.145,0-0.217-0.002c0-0.214,0-0.431-0.002-0.645c0.684,0.005,1.369,0.003,2.049-0.011
				c0.311,0.939,0.615,1.874,0.916,2.805c0.123-0.004,0.248-0.008,0.369-0.013c-0.002,0.216-0.004,0.435-0.008,0.651
				C17.719,41.71,17.018,41.728,16.313,41.737z M16.516,40.143c-0.117-0.358-0.232-0.718-0.348-1.076
				c-0.117,0.361-0.232,0.721-0.348,1.082C16.051,40.147,16.283,40.146,16.516,40.143z"/>
			<path fill="#FF4833" d="M20.412,38.104c1.236-0.079,1.463,0.347,1.449,0.914c-0.012,0.385-0.348,0.687-0.787,0.778
				c0.365,0.022,0.686,0.291,0.674,0.648c-0.006,0.212,0.023,0.333,0.117,0.324c0.08-0.008,0.125-0.07,0.125-0.169
				c0.002-0.054,0.004-0.108,0.006-0.163c0.117-0.011,0.234-0.021,0.354-0.032c-0.004,0.091-0.006,0.183-0.01,0.271
				c-0.01,0.41-0.205,0.81-0.787,0.86c-0.688,0.059-1.012-0.262-1-0.842c0.012-0.451-0.045-0.555-0.514-0.525
				c-0.008,0.257-0.012,0.515-0.018,0.77c0.109-0.006,0.215-0.014,0.322-0.021c-0.004,0.218-0.01,0.437-0.014,0.654
				c-0.564,0.038-1.131,0.071-1.695,0.097c0.002-0.219,0.004-0.438,0.008-0.657c0.098-0.002,0.197-0.009,0.295-0.013
				c0.01-0.723,0.021-1.446,0.029-2.167c-0.098,0.002-0.197,0.008-0.297,0.011c0.002-0.217,0.006-0.434,0.008-0.65
				C19.256,38.168,19.834,38.139,20.412,38.104z M20.047,39.613c0.08-0.005,0.158-0.01,0.24-0.015
				c0.307-0.021,0.51-0.174,0.516-0.436c0.008-0.293-0.164-0.43-0.475-0.41c-0.088,0.005-0.176,0.012-0.264,0.018
				C20.057,39.051,20.053,39.332,20.047,39.613z"/>
		</g>
		<g>
			<path fill="#FF4833" d="M5.086,47.274c0.629,6.979,1.111,12.562,1.111,12.562s7.17,2.673,18.717,0l1.021-12.105
				C22.463,48.329,11.32,49.938,5.086,47.274z"/>
			<path fill="#FF4833" d="M3.135,17.185c0.363-0.052,0.807-0.118,1.316-0.192c0.506-0.075,1.082-0.152,1.711-0.218
				c0.629-0.067,1.309-0.139,2.029-0.215c0.721-0.072,1.482-0.15,2.271-0.205c0.789-0.048,1.602-0.125,2.434-0.155
				c0.828-0.036,1.672-0.081,2.516-0.102s1.688-0.034,2.518-0.033c0.832-0.012,1.65,0.017,2.441,0.04
				c0.793,0.01,1.557,0.073,2.283,0.124c0.725,0.042,1.408,0.124,2.041,0.186c0.314,0.038,0.617,0.052,0.904,0.106
				c0.285,0.047,0.557,0.094,0.811,0.136c0.256,0.044,0.492,0.084,0.713,0.122c0.219,0.036,0.418,0.092,0.6,0.13
				c0.266,0.062,0.488,0.117,0.664,0.163l-0.531-2.909c-8.553-2.241-24.621-0.081-24.994,0.081
				c-0.336,0.146-0.566,2.627-0.605,3.086c0.012-0.002,0.02-0.003,0.033-0.006C2.484,17.292,2.77,17.234,3.135,17.185z"/>
			<path fill="#FF4833" d="M2.994,18.988c0.236,0.017,0.492,0.034,0.766,0.054c0.547,0.038,1.16,0.088,1.834,0.104
				c0.674,0.024,1.4,0.064,2.172,0.068c0.773,0.013,1.584,0.029,2.426,0.022c0.422-0.001,0.85-0.001,1.281-0.003
				c0.434-0.005,0.873-0.011,1.314-0.018c0.883-0.006,1.781-0.027,2.68-0.056c0.896-0.015,1.795-0.05,2.68-0.079
				c0.885-0.033,1.754-0.063,2.596-0.094c1.684-0.074,3.258-0.144,4.604-0.2c1.697-0.078,3.037-0.142,3.799-0.175
				c0.691-1.009-0.73-1.398-0.73-1.398l-0.012-0.048c-0.182-0.03-0.418-0.071-0.703-0.118c-0.18-0.028-0.379-0.073-0.6-0.096
				c-0.221-0.023-0.457-0.049-0.715-0.076c-0.508-0.057-1.082-0.124-1.713-0.156c-0.629-0.038-1.311-0.093-2.033-0.106
				c-0.723-0.025-1.484-0.054-2.273-0.054c-0.393-0.002-0.793-0.006-1.199-0.009c-0.406,0.004-0.816,0.009-1.23,0.012
				c-0.828,0.005-1.668,0.025-2.51,0.054c-0.842,0.015-1.682,0.053-2.51,0.081c-0.826,0.029-1.639,0.076-2.426,0.112
				c-1.578,0.086-3.045,0.181-4.307,0.272c-1.943,0.143-3.381,0.272-3.936,0.323c-1.51,0.835-0.477,1.132-0.555,1.4
				c-0.002,0.011-0.008,0.021-0.01,0.029c0.184,0.021,0.402,0.047,0.664,0.078C2.545,18.935,2.758,18.972,2.994,18.988z"/>
			<path fill="#FF4833" d="M29.449,19.617c-0.104-0.157-0.33-0.894-0.344-0.941c-0.148,0.019-0.311,0.038-0.496,0.061
				c-0.779,0.087-1.898,0.223-3.242,0.345c-1.346,0.129-2.916,0.252-4.602,0.36c-0.842,0.045-1.713,0.108-2.6,0.139
				c-0.885,0.036-1.785,0.079-2.686,0.097c-0.9,0.023-1.803,0.04-2.689,0.04c-0.885,0.014-1.76-0.007-2.605-0.024
				c-0.844-0.005-1.66-0.054-2.434-0.092c-0.775-0.026-1.504-0.1-2.18-0.156c-0.336-0.033-0.66-0.048-0.965-0.094
				c-0.305-0.04-0.596-0.081-0.869-0.117c-0.271-0.036-0.527-0.071-0.762-0.103c-0.236-0.032-0.449-0.083-0.643-0.117
				c-0.264-0.053-0.482-0.099-0.666-0.134c-0.105,0.315-0.4,0.98-0.4,0.98c-1.324,0.672,0.488,0.638,1.139,0.606
				c0.158,0.873,0.426,3.214,0.746,6.344c3.324-0.097,20.656-0.583,24.572-0.222l0.541-6.384c0.168-0.011,0.564-0.042,1.076-0.101
				C30.033,20.022,29.555,19.778,29.449,19.617z"/>
		</g>
	</g>
</g>
</svg>
